<svg width="14" height="20" viewBox="0 0 14 20" fill="none" xmlns="http://www.w3.org/2000/svg">
<path d="M0 4.99601C0 4.99801 0 4.99901 0 5.00001V13C0 14.838 0.737 16.586 2.076 17.924C3.415 19.263 5.163 20 7 20C8.838 20 10.586 19.263 11.924 17.924C13.263 16.586 14 14.838 14 13V5.00001H12V13C12 14.303 11.471 15.55 10.51 16.51C9.55 17.471 8.303 18 7 18C5.698 18 4.451 17.471 3.49 16.51C2.529 15.55 2 14.303 2 13V5.00001C2 4.99901 2 4.99701 2 4.99601C2 4.20601 2.314 3.457 2.886 2.887C3.457 2.316 4.208 2.00101 5.002 2.00001C5.791 1.99901 6.541 2.31301 7.112 2.88401C7.684 3.45701 7.999 4.20901 8 5.00001V13C8 13.256 7.893 13.505 7.7 13.698C7.505 13.893 7.256 14 7 14C6.748 14 6.493 13.89 6.302 13.699C6.107 13.505 6 13.256 6 13V5.00001H4V13C4 13.79 4.315 14.541 4.889 15.114C5.461 15.686 6.211 16 7 16C7.789 16 8.54 15.686 9.114 15.112C9.686 14.54 10 13.789 10 13V4.99901C9.999 3.67501 9.477 2.42201 8.527 1.47101C7.577 0.520006 6.323 -0.00199427 4.999 5.72584e-06C3.673 0.00100573 2.42 0.524006 1.472 1.47201C0.522 2.42001 0 3.67201 0 4.99601Z" fill="#B6BEC8"/>
</svg>
