<svg width="12" height="13" viewBox="0 0 12 13" fill="none" xmlns="http://www.w3.org/2000/svg">
<path d="M6 0.133301C4.162 0.133301 2.66667 1.62863 2.66667 3.46663C2.66667 5.30463 4.162 6.79997 6 6.79997C7.838 6.79997 9.33333 5.30463 9.33333 3.46663C9.33333 1.62863 7.838 0.133301 6 0.133301ZM6 5.46663C4.89733 5.46663 4 4.5693 4 3.46663C4 2.36397 4.89733 1.46663 6 1.46663C7.10267 1.46663 8 2.36397 8 3.46663C8 4.5693 7.10267 5.46663 6 5.46663ZM12 12.8V12.1333C12 9.56063 9.906 7.46663 7.33333 7.46663H4.66667C2.09333 7.46663 0 9.56063 0 12.1333V12.8H1.33333V12.1333C1.33333 10.2953 2.82867 8.79997 4.66667 8.79997H7.33333C9.17133 8.79997 10.6667 10.2953 10.6667 12.1333V12.8H12Z" fill="#F7A30A"/>
</svg>
