<svg width="60" height="60" viewBox="0 0 60 60" fill="none" xmlns="http://www.w3.org/2000/svg">
<circle cx="30" cy="30" r="30" fill="#FFECB3"/>
<circle cx="30" cy="30" r="24.5455" fill="#FFC20E"/>
<circle cx="30.0909" cy="30.0909" r="19.0909" fill="white"/>
<path d="M20 28.75H27.5C27.8315 28.75 28.1495 28.6183 28.3839 28.3839C28.6183 28.1495 28.75 27.8315 28.75 27.5V20C28.75 19.6685 28.6183 19.3506 28.3839 19.1161C28.1495 18.8817 27.8315 18.75 27.5 18.75H20C19.6685 18.75 19.3505 18.8817 19.1161 19.1161C18.8817 19.3506 18.75 19.6685 18.75 20V27.5C18.75 27.8315 18.8817 28.1495 19.1161 28.3839C19.3505 28.6183 19.6685 28.75 20 28.75ZM20 41.25H27.5C27.8315 41.25 28.1495 41.1183 28.3839 40.8839C28.6183 40.6495 28.75 40.3315 28.75 40V32.5C28.75 32.1685 28.6183 31.8506 28.3839 31.6161C28.1495 31.3817 27.8315 31.25 27.5 31.25H20C19.6685 31.25 19.3505 31.3817 19.1161 31.6161C18.8817 31.8506 18.75 32.1685 18.75 32.5V40C18.75 40.3315 18.8817 40.6495 19.1161 40.8839C19.3505 41.1183 19.6685 41.25 20 41.25ZM32.5 41.25H40C40.3315 41.25 40.6495 41.1183 40.8839 40.8839C41.1183 40.6495 41.25 40.3315 41.25 40V32.5C41.25 32.1685 41.1183 31.8506 40.8839 31.6161C40.6495 31.3817 40.3315 31.25 40 31.25H32.5C32.1685 31.25 31.8505 31.3817 31.6161 31.6161C31.3817 31.8506 31.25 32.1685 31.25 32.5V40C31.25 40.3315 31.3817 40.6495 31.6161 40.8839C31.8505 41.1183 32.1685 41.25 32.5 41.25ZM41.6162 22.8663L37.1338 18.3838C37.0178 18.2676 36.88 18.1754 36.7284 18.1125C36.5767 18.0496 36.4142 18.0173 36.25 18.0173C36.0858 18.0173 35.9233 18.0496 35.7716 18.1125C35.62 18.1754 35.4822 18.2676 35.3662 18.3838L30.8837 22.8663C30.7676 22.9823 30.6754 23.12 30.6125 23.2717C30.5496 23.4233 30.5172 23.5859 30.5172 23.75C30.5172 23.9142 30.5496 24.0767 30.6125 24.2284C30.6754 24.38 30.7676 24.5178 30.8837 24.6338L35.3662 29.1163C35.4822 29.2325 35.62 29.3246 35.7716 29.3875C35.9233 29.4504 36.0858 29.4828 36.25 29.4828C36.4142 29.4828 36.5767 29.4504 36.7284 29.3875C36.88 29.3246 37.0178 29.2325 37.1338 29.1163L41.6162 24.6338C41.7324 24.5178 41.8246 24.38 41.8875 24.2284C41.9504 24.0767 41.9827 23.9142 41.9827 23.75C41.9827 23.5859 41.9504 23.4233 41.8875 23.2717C41.8246 23.12 41.7324 22.9823 41.6162 22.8663Z" fill="#F7A30A"/>
</svg>
