<svg width="44" height="44" viewBox="0 0 44 44" fill="none" xmlns="http://www.w3.org/2000/svg">
<path d="M28.5267 33.1068L11.6866 37.5527C10.7076 37.8112 9.70475 37.2273 9.44625 36.2483L3.12858 12.3187C2.87008 11.3397 3.454 10.3368 4.433 10.0783L21.2731 5.6325C22.2521 5.374 23.2549 5.95792 23.5134 6.93692L29.8311 30.8674C30.0896 31.8455 29.5057 32.8483 28.5267 33.1068Z" fill="url(#paint0_linear_2080_45671)"/>
<path opacity="0.05" d="M23.5134 6.93692C23.2549 5.95792 22.2521 5.374 21.2731 5.6325L9.16667 8.828V32.0829C9.16667 34.1051 10.8112 35.7496 12.8333 35.7496H18.5176L28.5258 33.1068C29.5048 32.8483 30.0887 31.8455 29.8302 30.8665L23.5134 6.93692Z" fill="#212B36"/>
<path opacity="0.07" d="M23.5134 6.93692C23.2549 5.95792 22.2521 5.374 21.2731 5.6325L10.0833 8.586V32.0829C10.0833 33.6 11.3162 34.8329 12.8333 34.8329H21.9899L28.5267 33.1068C29.5057 32.8483 30.0896 31.8455 29.8311 30.8665L23.5134 6.93692Z" fill="#212B36"/>
<path d="M30.25 33.9167H12.8333C11.8204 33.9167 11 33.0962 11 32.0833V7.33333C11 6.32042 11.8204 5.5 12.8333 5.5H30.25C31.2629 5.5 32.0833 6.32042 32.0833 7.33333V32.0833C32.0833 33.0962 31.2629 33.9167 30.25 33.9167Z" fill="url(#paint1_linear_2080_45671)"/>
<path opacity="0.05" d="M30.25 5.5H19.0474C18.9475 5.70533 18.8613 5.91983 18.8008 6.14625L12.4034 30.0547C12.0083 31.5315 12.5794 33.0403 13.7243 33.9157H30.25C31.2629 33.9157 32.0833 33.0953 32.0833 32.0824V7.33333C32.0833 6.32042 31.2629 5.5 30.25 5.5Z" fill="#212B36"/>
<path opacity="0.07" d="M21.263 5.5C19.668 5.5 19.5846 6.798 19.3554 7.62208L13.497 29.5176C13.4264 29.7816 13.2101 30.8229 13.2541 31.0768C13.2027 32.0201 13.7417 32.934 14.5988 33.3465L19.1739 33.9167H30.25C31.207 33.9167 31.9917 33.1806 32.0687 32.2465C32.0788 32.1933 32.0833 31.9742 32.0833 31.9183V8.84033C32.0833 8.33433 31.6727 6.65133 31.1667 6.65133L21.263 5.5Z" fill="#212B36"/>
<path d="M32.2969 37.2758L15.4724 32.7741C14.4943 32.5128 13.9132 31.5073 14.1753 30.5292L20.5727 6.61976C20.834 5.64168 21.8396 5.06051 22.8177 5.32268L39.6422 9.82443C40.6202 10.0857 41.2014 11.0913 40.9392 12.0693L34.5418 35.9788C34.2806 36.9559 33.275 37.5371 32.2969 37.2758Z" fill="#212B36"/>
<path fill-rule="evenodd" clip-rule="evenodd" d="M35.3401 8.6733L22.8178 5.32268C21.8397 5.06051 20.8341 5.64168 20.5729 6.61976L14.1755 30.5292C13.9133 31.5073 14.4945 32.5128 15.4725 32.7741L27.5735 36.012L35.3401 8.6733ZM38.2385 9.44883L39.6423 9.82443C40.6204 10.0857 41.2015 11.0913 40.9394 12.0693L34.542 35.9788C34.2807 36.9559 33.2751 37.5371 32.297 37.2758L30.4719 36.7875L38.2385 9.44883Z" fill="url(#paint2_linear_2080_45671)"/>
<defs>
<linearGradient id="paint0_linear_2080_45671" x1="-2.66582" y1="10.4441" x2="30.9189" y2="29.9979" gradientUnits="userSpaceOnUse">
<stop stop-color="#BE1128"/>
<stop offset="1" stop-color="#A40F22"/>
</linearGradient>
<linearGradient id="paint1_linear_2080_45671" x1="5.87583" y1="4.0425" x2="33.3557" y2="31.5223" gradientUnits="userSpaceOnUse">
<stop stop-color="#FFC20E"/>
<stop offset="1" stop-color="#F7A30A"/>
</linearGradient>
<linearGradient id="paint2_linear_2080_45671" x1="16.473" y1="2.11665" x2="35.9136" y2="35.767" gradientUnits="userSpaceOnUse">
<stop stop-color="#F8F9FA"/>
<stop offset="1" stop-color="#EAEEF2"/>
</linearGradient>
</defs>
</svg>
