<svg width="44" height="44" viewBox="0 0 44 44" fill="none" xmlns="http://www.w3.org/2000/svg">
<path d="M26.5585 6.61529L26.5585 37.3848C26.5585 37.985 26.0199 38.4697 25.3531 38.4697H9.45279C8.786 38.4697 8.24744 37.985 8.24744 37.3848L8.24744 6.61529C8.24744 6.01513 8.786 5.53039 9.45279 5.53039H25.3659C26.0199 5.54193 26.5585 6.02667 26.5585 6.61529Z" fill="#ABD653"/>
<path d="M8.20984 8.33308L8.20984 35.6816H26.5209V8.33308H8.20984Z" fill="#7DBA00"/>
<path d="M24.0101 24.666C24.0101 21.0136 21.0493 18.0527 17.3969 18.0527C13.7444 18.0527 10.7836 21.0136 10.7836 24.666C10.7836 28.3184 13.7444 31.2793 17.3969 31.2793C21.0493 31.2793 24.0101 28.3184 24.0101 24.666Z" fill="#ABD653"/>
<path d="M24.0101 14.3704C24.0101 13.6947 23.4624 13.147 22.7868 13.147C22.1111 13.147 21.5634 13.6947 21.5634 14.3704C21.5634 15.046 22.1111 15.5938 22.7868 15.5938C23.4624 15.5938 24.0101 15.046 24.0101 14.3704Z" fill="#ABD653"/>
<path d="M24.0101 11.0461C24.0101 10.3705 23.4624 9.82274 22.7868 9.82274C22.1111 9.82274 21.5634 10.3705 21.5634 11.0461C21.5634 11.7218 22.1111 12.2695 22.7868 12.2695C23.4624 12.2695 24.0101 11.7218 24.0101 11.0461Z" fill="#ABD653"/>
<path opacity="0.07" d="M26.4823 37.7663L21.2089 37.7663C20.6566 37.7663 20.2089 37.3186 20.2089 36.7663V17.6328C20.2089 17.0805 20.6566 16.6328 21.2089 16.6328L26.5585 16.6328V37.3851C26.5585 37.5194 26.5315 37.6478 26.4823 37.7663Z" fill="#212B36"/>
<path d="M36 18.4336C36 17.8813 35.5523 17.4336 35 17.4336L22.052 17.4336C21.4997 17.4336 21.052 17.8813 21.052 18.4336V37.5671C21.052 38.1194 21.4997 38.5671 22.052 38.5671L35 38.5671C35.5523 38.5671 36 38.1194 36 37.5671V18.4336Z" fill="url(#paint0_linear_2369_121829)"/>
<rect width="2" height="21.1335" transform="matrix(-1 0 0 1 33.952 17.4336)" fill="#454F5B"/>
<rect width="2" height="18.211" transform="matrix(-1 0 0 1 30.3256 19.3027)" fill="#F7B512"/>
<defs>
<linearGradient id="paint0_linear_2369_121829" x1="39.4026" y1="16.5104" x2="22.0154" y2="34.7376" gradientUnits="userSpaceOnUse">
<stop stop-color="#FFECB3"/>
<stop offset="1" stop-color="#FFDF80"/>
</linearGradient>
</defs>
</svg>
