<svg width="24" height="24" viewBox="0 0 24 24" fill="none" xmlns="http://www.w3.org/2000/svg">
<path d="M18.948 11.112C18.511 7.67 15.563 5 12.004 5C9.248 5 6.854 6.611 5.761 9.15C3.613 9.792 2.004 11.82 2.004 14C2.004 16.757 4.247 19 7.004 19H8.004V17H7.004C5.35 17 4.004 15.654 4.004 14C4.004 12.596 5.203 11.243 6.677 10.984L7.258 10.882L7.45 10.324C8.153 8.273 9.898 7 12.004 7C14.761 7 17.004 9.243 17.004 12V13H18.004C19.107 13 20.004 13.897 20.004 15C20.004 16.103 19.107 17 18.004 17H16.004V19H18.004C20.21 19 22.004 17.206 22.004 15C22.004 13.119 20.699 11.538 18.948 11.112Z" fill="#454F5B"/>
<path d="M13.004 14V10H11.004V14H8.004L12.004 19L16.004 14H13.004Z" fill="#454F5B"/>
</svg>
