<svg width="32" height="32" viewBox="0 0 32 32" fill="none" xmlns="http://www.w3.org/2000/svg">
<path d="M17.3333 25.3335V20.0002H21.3333L16 13.3335L10.6666 20.0002H14.6666V25.3335H17.3333Z" fill="#454F5B"/>
<path d="M9.33329 25.3332H12V22.6665H9.33329C7.12796 22.6665 5.33329 20.8718 5.33329 18.6665C5.33329 16.7945 6.93196 14.9918 8.89729 14.6465L9.67196 14.5105L9.92796 13.7665C10.8653 11.0318 13.1933 9.33317 16 9.33317C19.676 9.33317 22.6666 12.3238 22.6666 15.9998V17.3332H24C25.4706 17.3332 26.6666 18.5292 26.6666 19.9998C26.6666 21.4705 25.4706 22.6665 24 22.6665H20V25.3332H24C26.9413 25.3332 29.3333 22.9412 29.3333 19.9998C29.3333 17.4932 27.5933 15.3838 25.2586 14.8158C24.676 10.2265 20.7466 6.6665 16 6.6665C12.3253 6.6665 9.13329 8.8145 7.67596 12.1998C4.81196 13.0558 2.66663 15.7598 2.66663 18.6665C2.66663 22.3425 5.65729 25.3332 9.33329 25.3332Z" fill="#454F5B"/>
</svg>
