<svg width="44" height="44" viewBox="0 0 44 44" fill="none" xmlns="http://www.w3.org/2000/svg">
<path d="M36.6666 11H32.0833V17.4167H36.6666V11Z" fill="url(#paint0_linear_2080_45574)"/>
<path d="M36.6666 17.417H32.0833V24.7503H36.6666V17.417Z" fill="url(#paint1_linear_2080_45574)"/>
<path d="M36.6666 24.75H32.0833V32.0833H36.6666V24.75Z" fill="url(#paint2_linear_2080_45574)"/>
<path d="M36.6666 37.583V32.083H32.0833V39.4163H34.8333C35.8462 39.4163 36.6666 38.5959 36.6666 37.583Z" fill="url(#paint3_linear_2080_45574)"/>
<path d="M36.6666 6.41634C36.6666 5.40342 35.8462 4.58301 34.8333 4.58301H32.0833V10.9997H36.6666V6.41634Z" fill="url(#paint4_linear_2080_45574)"/>
<path d="M33.9166 6.41634C33.9166 5.40342 33.0962 4.58301 32.0833 4.58301H9.16665C8.15373 4.58301 7.33331 5.40342 7.33331 6.41634V37.583C7.33331 38.5959 8.15373 39.4163 9.16665 39.4163H32.0833C33.0962 39.4163 33.9166 38.5959 33.9166 37.583V6.41634Z" fill="url(#paint5_linear_2080_45574)"/>
<path opacity="0.15" d="M21.0833 21.0837C23.6146 21.0837 25.6667 19.0316 25.6667 16.5003C25.6667 13.969 23.6146 11.917 21.0833 11.917C18.552 11.917 16.5 13.969 16.5 16.5003C16.5 19.0316 18.552 21.0837 21.0833 21.0837Z" fill="url(#paint6_radial_2080_45574)"/>
<path opacity="0.05" d="M14.6667 28.4163V30.3542C14.6667 31.3084 15.4413 32.083 16.3955 32.083H25.7703C26.7254 32.083 27.5 31.3084 27.5 30.3542V28.4163C27.5 23.833 24.6272 21.083 21.0834 21.083C17.5395 21.083 14.6667 23.833 14.6667 28.4163Z" fill="#212B36"/>
<path opacity="0.07" d="M15.125 28.0739V30.3023C15.125 31.0329 15.7172 31.625 16.4478 31.625H25.7189C26.4495 31.625 27.0417 31.0329 27.0417 30.3023V27.9584C27.0417 24.1194 24.3283 21.4959 20.999 21.5426C17.7219 21.5884 15.125 24.2761 15.125 28.0739Z" fill="#212B36"/>
<path d="M21.0834 20.1663C23.1084 20.1663 24.75 18.5247 24.75 16.4997C24.75 14.4746 23.1084 12.833 21.0834 12.833C19.0583 12.833 17.4167 14.4746 17.4167 16.4997C17.4167 18.5247 19.0583 20.1663 21.0834 20.1663Z" fill="white"/>
<path d="M26.5833 27.4998C26.5833 24.406 24.0286 21.909 20.9137 22.0025C17.9043 22.0924 15.5833 24.7186 15.5833 27.7308V30.2498C15.5833 30.7558 15.994 31.1665 16.5 31.1665H25.6666C26.1726 31.1665 26.5833 30.7558 26.5833 30.2498V27.4998Z" fill="white"/>
<defs>
<linearGradient id="paint0_linear_2080_45574" x1="32.0952" y1="14.2083" x2="36.4292" y2="14.2083" gradientUnits="userSpaceOnUse">
<stop offset="0.3" stop-color="#D4470F"/>
<stop offset="0.651" stop-color="#FFB580"/>
</linearGradient>
<linearGradient id="paint1_linear_2080_45574" x1="32.0952" y1="21.0837" x2="36.4292" y2="21.0837" gradientUnits="userSpaceOnUse">
<stop offset="0.3" stop-color="#337321"/>
<stop offset="0.65" stop-color="#ABD653"/>
</linearGradient>
<linearGradient id="paint2_linear_2080_45574" x1="32.0952" y1="28.4167" x2="36.4292" y2="28.4167" gradientUnits="userSpaceOnUse">
<stop offset="0.3" stop-color="#006FD6"/>
<stop offset="0.65" stop-color="#80C2FF"/>
</linearGradient>
<linearGradient id="paint3_linear_2080_45574" x1="32.0952" y1="35.7497" x2="36.41" y2="35.7497" gradientUnits="userSpaceOnUse">
<stop offset="0.301" stop-color="#6B1C3A"/>
<stop offset="0.65" stop-color="#A60066"/>
</linearGradient>
<linearGradient id="paint4_linear_2080_45574" x1="32.0952" y1="7.79134" x2="36.4292" y2="7.79134" gradientUnits="userSpaceOnUse">
<stop offset="0.302" stop-color="#A40F22"/>
<stop offset="0.65" stop-color="#EB2629"/>
</linearGradient>
<linearGradient id="paint5_linear_2080_45574" x1="12.0376" y1="4.20167" x2="28.7512" y2="38.8425" gradientUnits="userSpaceOnUse">
<stop stop-color="#FFECB3"/>
<stop offset="0.091" stop-color="#FFDF80"/>
<stop offset="0.683" stop-color="#FFC20E"/>
<stop offset="1" stop-color="#F7A30A"/>
</linearGradient>
<radialGradient id="paint6_radial_2080_45574" cx="0" cy="0" r="1" gradientUnits="userSpaceOnUse" gradientTransform="translate(21.0833 16.5003) scale(4.58333)">
<stop offset="0.486"/>
<stop offset="1" stop-opacity="0"/>
</radialGradient>
</defs>
</svg>
