<svg width="59" height="44" viewBox="0 0 59 44" fill="none" xmlns="http://www.w3.org/2000/svg">
<path d="M58.1503 0H6.77307V43.3271H58.1503V0Z" fill="#80C2FF"/>
<path d="M58.1503 0H6.77307V5.00657H58.1503V0Z" fill="#FFDF80"/>
<path d="M32.4613 21.4553C34.1646 21.4553 35.5454 20.0784 35.5454 18.3799C35.5454 16.6814 34.1646 15.3045 32.4613 15.3045C30.758 15.3045 29.3772 16.6814 29.3772 18.3799C29.3772 20.0784 30.758 21.4553 32.4613 21.4553Z" fill="white"/>
<path d="M27.8528 30.465H37.0698L36.1101 24.4003C35.8263 22.6099 34.2793 21.292 32.4613 21.292C30.644 21.292 29.0971 22.6107 28.8132 24.4003L27.8528 30.465Z" fill="white"/>
<path d="M19.226 21.4553C20.9293 21.4553 22.3101 20.0784 22.3101 18.3799C22.3101 16.6814 20.9293 15.3045 19.226 15.3045C17.5227 15.3045 16.1418 16.6814 16.1418 18.3799C16.1418 20.0784 17.5227 21.4553 19.226 21.4553Z" fill="white"/>
<path d="M14.6174 30.465H23.8345L22.874 24.4003C22.5909 22.6099 21.0432 21.292 19.226 21.292C17.4087 21.292 15.8617 22.6107 15.5779 24.4003L14.6174 30.465Z" fill="white"/>
<path d="M45.6968 21.4553C47.4001 21.4553 48.7809 20.0784 48.7809 18.3799C48.7809 16.6814 47.4001 15.3045 45.6968 15.3045C43.9935 15.3045 42.6127 16.6814 42.6127 18.3799C42.6127 20.0784 43.9935 21.4553 45.6968 21.4553Z" fill="white"/>
<path d="M41.0883 30.465H50.3053L49.3456 24.4003C49.0618 22.6099 47.5148 21.292 45.6968 21.292C43.8795 21.292 42.3326 22.6107 42.0495 24.4003L41.0883 30.465Z" fill="white"/>
<path d="M9.45959 43.3274C9.47086 37.4499 12.549 35.0163 14.934 34.5895C17.3182 34.1634 19.8489 35.4169 21.365 37.7772C23.6419 33.1705 26.7035 28.8588 30.7743 27.0968C34.8452 25.3349 40.0334 26.8924 42.0768 31.6706C43.5689 35.1608 43.1356 39.4058 42.6617 43.3266" fill="#FFECB3"/>
<path d="M26.757 43.3304L26.4131 43.0129C26.5783 42.834 30.5012 38.6488 33.3991 39.4613C34.5067 39.7713 35.302 40.7612 35.7668 42.4079C36.6139 40.3359 39.4509 34.5476 44.5311 34.9437L44.4943 35.4102C38.7083 34.9617 35.9666 43.1911 35.9388 43.2743L35.4852 43.2488C35.0992 41.3378 34.3543 40.2154 33.2707 39.9121C30.6469 39.1775 26.7953 43.2892 26.757 43.3304Z" fill="black"/>
<path d="M14.7178 12.5816L4.85899 39.3684L0 37.5717L9.85818 10.7848L14.0114 7L14.7178 12.5816Z" fill="#FFECB3"/>
<path d="M5.55287 37.4836L0.693604 35.687L0.56456 36.0376L5.42382 37.8342L5.55287 37.4836Z" fill="black"/>
<path d="M14.7176 12.5815L9.85803 10.7848L12.5157 8.36259L14.0113 6.99993L14.2654 9.00895L14.7176 12.5815Z" fill="white"/>
<path d="M14.2656 9.00894L12.5159 8.36259L14.0114 6.99993L14.2656 9.00894Z" fill="black"/>
</svg>
