<svg width="66" height="57" viewBox="0 0 66 57" fill="none" xmlns="http://www.w3.org/2000/svg">
<path d="M60.1164 6.54954C60.3163 8.85656 60.181 10.8264 59.4683 13.0275C59.2376 13.7418 58.8794 14.4265 58.4234 15.0324L56.7854 13.8144L57.8527 15.6971C56.957 16.61 55.8082 17.2438 54.5428 17.3624C53.716 15.2255 53.8483 12.7339 54.898 10.6968C55.9477 8.65982 57.898 7.11131 60.1164 6.54954Z" fill="#FED766"/>
<path d="M56.2847 3.42512L54.2711 4.18847L56.3167 4.30107C56.3167 4.50326 56.3107 4.70182 56.2986 4.89432C56.1978 6.43132 55.8064 7.97862 54.9487 9.25592C54.0923 10.5344 52.4778 11.6368 50.9528 11.8226C50.1132 9.62217 50.1519 7.09903 51.0561 4.9258C51.9608 2.75196 53.722 0.951017 55.8716 0C56.0069 1.06301 56.2098 2.2713 56.2847 3.42512Z" fill="#80C2FF"/>
<path d="M52.3818 33.9395C49.0001 24.5504 49.2713 13.8858 53.1241 4.6813L53.472 4.8272C49.6554 13.9457 49.3872 24.5098 52.7363 33.8111L52.3818 33.9395Z" fill="black"/>
<path d="M52.9791 34.2967L52.6016 34.29C52.7303 26.8417 53.1796 18.2856 56.9141 11.0146L57.2499 11.1878C53.9238 17.6633 53.1374 25.1086 52.9791 34.2967Z" fill="black"/>
<path d="M53.7444 31.8189L53.3687 31.7783C53.9244 26.6582 55.9827 21.6113 59.1651 17.5663L59.4611 17.8012C56.3228 21.7905 54.2928 26.769 53.7444 31.8189Z" fill="black"/>
<path d="M52.3963 56.0823C59.7949 56.0823 65.7926 50.8349 65.7926 44.3619C65.7926 37.889 59.7949 32.6416 52.3963 32.6416C44.9977 32.6416 39 37.889 39 44.3619C39 50.8349 44.9977 56.0823 52.3963 56.0823Z" fill="#80C2FF"/>
<path d="M55.2344 30.1386H49.5582V35.2593H55.2344V30.1386Z" fill="#FF993B"/>
<path d="M51.7659 56.4571H8.67021C6.31189 56.4571 4.4006 54.5478 4.4006 52.1939V27.025C4.4006 24.6703 6.31189 22.762 8.67021 22.762H51.7659C54.1234 22.762 56.0355 24.6703 56.0355 27.025V52.1939C56.0347 54.5478 54.1234 56.4571 51.7659 56.4571Z" fill="#FFB580"/>
<path d="M55.673 53.9079L30.1853 38.4807L4.74316 53.8658C5.39431 55.3893 6.90664 56.4571 8.67032 56.4571H51.766C53.5128 56.4571 55.0117 55.4086 55.673 53.9079Z" fill="#FFB580"/>
<path d="M4.75412 25.3115L30.2409 42.6411L55.6831 25.3535C55.0328 23.83 53.5205 22.763 51.756 22.763H8.66017C6.91336 22.763 5.41455 23.8115 4.75412 25.3115Z" fill="#FFB580"/>
<path d="M30.2401 43.1318L4.5248 25.6472L4.98194 24.976L30.2401 42.1499L55.4553 25.0182L55.9125 25.6894L30.2401 43.1318Z" fill="#2E2E46"/>
<path d="M27.9498 29.0285H-1.90735e-06V12.8132H24.3931V25.2535L27.9498 29.0285Z" fill="#80C2FF"/>
<path d="M5.52599 22.7955C4.43794 22.7955 3.55592 21.916 3.55592 20.831C3.55592 19.7461 4.43794 18.8665 5.52599 18.8665C6.61403 18.8665 7.49606 19.7461 7.49606 20.831C7.49606 21.916 6.61403 22.7955 5.52599 22.7955Z" fill="white"/>
<path d="M12.2078 22.8859C11.1197 22.8859 10.2377 22.0064 10.2377 20.9214C10.2377 19.8364 11.1197 18.9569 12.2078 18.9569C13.2958 18.9569 14.1779 19.8364 14.1779 20.9214C14.1779 22.0064 13.2958 22.8859 12.2078 22.8859Z" fill="white"/>
<path d="M18.8904 22.9759C17.8023 22.9759 16.9203 22.0963 16.9203 21.0114C16.9203 19.9264 17.8023 19.0469 18.8904 19.0469C19.9784 19.0469 20.8605 19.9264 20.8605 21.0114C20.8605 22.0963 19.9784 22.9759 18.8904 22.9759Z" fill="white"/>
</svg>
