<svg width="60" height="60" viewBox="0 0 60 60" fill="none" xmlns="http://www.w3.org/2000/svg">
<circle cx="30" cy="30" r="30" fill="#D3D8DE"/>
<circle cx="30" cy="30" r="24.5455" fill="#B6BEC8"/>
<circle cx="30.0001" cy="30" r="19.0909" fill="white"/>
<path fill-rule="evenodd" clip-rule="evenodd" d="M40.5178 19.4822C40.9866 19.9511 41.25 20.587 41.25 21.25V38.75C41.25 39.413 40.9866 40.0489 40.5178 40.5178C40.0489 40.9866 39.413 41.25 38.75 41.25H21.25C20.587 41.25 19.9511 40.9866 19.4822 40.5178C19.0134 40.0489 18.75 39.413 18.75 38.75V21.25C18.75 20.587 19.0134 19.9511 19.4822 19.4822C19.9511 19.0134 20.587 18.75 21.25 18.75H38.75C39.413 18.75 40.0489 19.0134 40.5178 19.4822ZM25.0122 37.5H27.5122V32.5H25.0122V37.5ZM30.0122 37.5H32.5122V27.5H30.0122V37.5ZM34.8438 21.25H36.4062V23.5938H38.75V25.1562H36.4062V27.5H34.8438V25.1562H32.5V23.5938H34.8438V21.25ZM34.9746 30.0045H37.4746V37.5045H34.9746V30.0045ZM27.3475 28.5144C27.0424 28.8048 26.5491 28.8048 26.2439 28.5144L24.4543 26.8111L21.1036 30L20 28.9497L23.9025 25.2356C24.2076 24.9452 24.7009 24.9452 25.0061 25.2356L26.7957 26.9389L30.1464 23.75L31.25 24.8003L27.3475 28.5144Z" fill="#454F5B"/>
</svg>
