<svg width="60" height="60" viewBox="0 0 60 60" fill="none" xmlns="http://www.w3.org/2000/svg">
<circle cx="30" cy="30" r="30" fill="#D3D8DE"/>
<circle cx="30" cy="30" r="24.5455" fill="#B6BEC8"/>
<circle cx="30.0909" cy="30.0909" r="19.0909" fill="white"/>
<path d="M33.75 28.75H42.5V31.25H33.75V28.75ZM35 33.75H42.5V36.25H35V33.75ZM32.5 23.75H42.5V26.25H32.5V23.75ZM20 38.75H32.5V37.5C32.5 34.0538 29.6962 31.25 26.25 31.25H23.75C20.3038 31.25 17.5 34.0538 17.5 37.5V38.75H20ZM25 30C27.4937 30 29.375 28.1188 29.375 25.625C29.375 23.1313 27.4937 21.25 25 21.25C22.5062 21.25 20.625 23.1313 20.625 25.625C20.625 28.1188 22.5062 30 25 30Z" fill="#454F5B"/>
</svg>
