<svg width="25" height="24" viewBox="0 0 25 24" fill="none" xmlns="http://www.w3.org/2000/svg">
<path d="M5.65039 20C5.65039 21.103 6.54739 22 7.65039 22H17.6504C18.7534 22 19.6504 21.103 19.6504 20V8H21.6504V6H18.6504H17.6504V4C17.6504 2.897 16.7534 2 15.6504 2H9.65039C8.54739 2 7.65039 2.897 7.65039 4V6H6.65039H3.65039V8H5.65039V20ZM9.65039 4H15.6504V6H9.65039V4ZM8.65039 8H16.6504H17.6504L17.6514 20H7.65039V8H8.65039Z" fill="#D12421"/>
<path d="M9.65039 10H11.6504V18H9.65039V10ZM13.6504 10H15.6504V18H13.6504V10Z" fill="#D12421"/>
</svg>
