<svg width="16" height="16" viewBox="0 0 16 16" fill="none" xmlns="http://www.w3.org/2000/svg">
<path d="M3.33529 13.3333C3.33529 14.0686 3.93329 14.6666 4.66862 14.6666H11.3353C12.0706 14.6666 12.6686 14.0686 12.6686 13.3333V5.33325H14.002V3.99992H12.002H11.3353V2.66659C11.3353 1.93125 10.7373 1.33325 10.002 1.33325H6.00195C5.26662 1.33325 4.66862 1.93125 4.66862 2.66659V3.99992H4.00195H2.00195V5.33325H3.33529V13.3333ZM6.00195 2.66659H10.002V3.99992H6.00195V2.66659ZM5.33529 5.33325H10.6686H11.3353L11.336 13.3333H4.66862V5.33325H5.33529Z" fill="#454F5B"/>
<path d="M6.00195 6.66675H7.33529V12.0001H6.00195V6.66675ZM8.66862 6.66675H10.002V12.0001H8.66862V6.66675Z" fill="#454F5B"/>
</svg>
