<svg width="163" height="139" viewBox="0 0 163 139" fill="none" xmlns="http://www.w3.org/2000/svg">
<path d="M82.9565 138.558C110.063 138.558 132.037 116.617 132.037 89.5513C132.037 62.4858 110.063 40.5449 82.9565 40.5449C55.8502 40.5449 33.8762 62.4858 33.8762 89.5513C33.8762 116.617 55.8502 138.558 82.9565 138.558Z" fill="#FCA5A6"/>
<g opacity="0.6">
<path d="M87.3326 40.7298C87.5312 40.8575 87.7404 40.9884 87.9618 41.1228C87.9818 40.9833 98.3058 44.246 99.3633 44.7293C102.426 46.1291 104.306 46.6301 100.947 47.6918C102.407 47.2302 105.703 56.1894 108.021 55.8181C110.274 55.457 110.939 57.9893 111.536 59.7293C111.853 60.6516 112.838 61.19 112.47 62.2991C112.352 62.6512 110.743 63.3745 110.866 63.6081C111.541 64.8915 114.621 65.0386 114.639 66.9255C114.342 67.3988 113.89 67.6263 113.283 67.6081C111.856 68.1836 113.208 69.3362 113.481 70.227C114.141 72.379 116.204 74.2902 117.698 71.8417C119.2 69.3806 115.763 66.9708 117.847 64.4592C119.07 62.9863 122.337 65.6271 121.562 62.8155C121.34 62.0099 117.943 58.4499 119.825 57.9247C119.916 57.8993 119.979 57.7156 120.018 57.4124C114.433 50.9789 107.096 45.9156 98.4158 43.0393C94.7424 41.8221 91.0275 41.0632 87.3326 40.7298Z" fill="#EB2629"/>
<path d="M126.64 67.2129C126.402 66.7487 123.977 69.414 123.474 69.6906C121.637 70.7026 121.234 68.7059 119.692 70.8146C119.421 71.186 116.631 74.8852 116.616 74.4704C116.667 75.8429 116.098 77.2024 116.76 78.5205C117.353 79.7012 115.958 80.7728 116.043 82.0182C116.154 83.654 114.654 84.7686 115.033 86.3973C115.361 87.8101 116.212 88.8405 116.214 90.3464C116.217 92.7419 115.783 93.8327 117.71 95.549C118.95 96.6529 120.562 100.465 122.74 98.3163C123.14 97.9215 127.117 94.7411 126.882 94.4915C128.295 95.9899 127.051 95.008 129.059 94.9141C129.603 94.8887 128.653 108.7 127.823 108.383C127.955 108.433 128.11 108.42 128.283 108.352C128.738 107.254 129.158 106.133 129.539 104.987C133.854 92.0037 132.428 78.4976 126.64 67.2129Z" fill="#EB2629"/>
</g>
<path opacity="0.6" d="M103.661 113.105C103.677 111.693 101.03 110.377 99.5984 110.435C96.525 110.56 95.7118 109.568 92.8562 108.832C90.4589 108.215 90.8284 104.138 87.19 103.962C85.2519 103.869 81.5982 98.607 79.6862 100.18C78.4216 101.221 75.9863 98.4265 75.1368 98.4162C73.1762 98.3928 74.7615 99.5552 73.4804 98.0975C72.6371 97.1382 70.3219 99.1568 69.8335 99.7283C68.8868 100.836 64.7603 99.1733 64.1166 97.5836C63.8885 97.0209 65.2085 94.7571 64.2259 93.1452C63.8484 92.5259 61.1151 92.9803 60.6919 92.5685C60.1221 92.0137 62.1563 89.9754 61.9272 89.5509C60.9729 87.7842 57.8407 92.2146 56.4752 88.6496C55.3651 85.7512 56.8118 84.6628 57.0974 81.8691C57.232 80.5543 59.4732 79.9112 60.559 80.3876C62.3012 81.1517 62.0675 80.4394 63.3882 80.2954C64.4308 80.1818 65.539 81.3621 66.5445 81.5359C67.7311 81.7412 66.9185 85.0658 68.0378 85.8618C68.6878 86.324 68.6725 81.3895 68.7145 81.2711C69.4246 79.2706 72.5283 79.4521 73.0239 77.7735C74.2452 73.6363 77.0531 73.9459 80.4501 72.4855C82.0697 71.7892 86.0744 70.9813 87.0874 69.3962C88.9761 66.4404 84.0124 62.0298 82.7167 59.9464C82.701 59.9213 81.5684 61.221 81.3077 61.2317C80.3455 61.2713 79.4523 55.8567 77.6092 58.9654C77.2578 59.5577 75.9098 59.734 76.6624 60.6083C78.1318 62.3155 75.2842 62.7239 74.3975 62.4815C73.4978 62.2356 69.0774 59.6793 70.6306 58.2538C73.7991 55.3461 74.5179 56.8514 77.8079 56.8375C81.578 56.8214 81.714 60.3597 84.8322 56.5752C85.6949 55.5282 80.0609 52.5347 81.1727 51.2085C85.1079 46.5143 87.2734 56.9403 88.7488 58.7489C90.9054 61.3927 92.294 59.9982 92.1224 57.0799C92.0414 55.7051 94.9714 54.4257 95.1718 52.9411C95.2128 52.6387 93.2831 49.9027 92.997 49.7191C91.9801 49.0656 91.7455 48.3775 91.2234 47.7268C90.5654 46.9067 89.5328 48.1341 88.946 47.402C88.6741 47.063 83.7283 47.2525 83.2021 47.2584C80.6035 47.1596 77.6949 47.2462 75.0759 47.2853C74.0014 47.2436 68.3148 50.0195 68.1639 47.7476C68.0891 46.6212 69.4413 44.6442 67.0273 45.5568C66.2543 45.8488 65.766 45.4187 65.922 45.387C64.2555 45.726 61.1391 46.888 59.8036 48.0843C59.0639 48.7469 60.8362 49.0532 60.9569 49.622C61.19 50.7185 58.423 52.7592 57.8044 53.4706C55.6032 56.0026 55.7023 59.3721 52.7369 61.8352C49.3124 64.6795 49.1219 68.8401 49.0889 72.7575C49.0729 74.66 47.4399 75.4611 48.4712 77.6125C49.3515 79.4488 50.987 80.3289 51.2594 82.5579C51.4385 84.0215 50.2895 85.3809 50.8447 86.8064C51.528 88.5605 52.827 90.1173 54.4175 90.9509C57.8115 92.7296 60.0322 94.0631 62.2078 97.3217C64.9052 101.362 69.7126 99.5979 68.1376 103.676C67.4741 105.395 65.7839 106.211 65.0918 108.046C64.2621 110.247 65.8563 111.837 66.8809 113.621C67.9134 115.42 68.2953 117.578 70.1036 118.803C71.3991 119.681 73.7584 120.409 74.0919 122.193C74.6222 125.031 72.2229 128.576 72.4781 131.174C72.6498 132.922 72.6819 134.719 74.2049 135.86C76.9484 137.914 76.298 135.05 78.0014 133.697C79.5998 132.427 81.4847 132.803 83.3105 132.297C84.9849 131.834 82.9899 131.219 83.6676 130.839C85.1053 130.032 85.9587 131.243 87.3287 130.014C88.5774 128.894 90.2659 128.575 90.8474 126.825C91.7986 123.964 96.1185 125.011 97.919 122.787C99.0291 121.416 99.5106 119.957 100.008 118.297C100.619 116.252 103.638 115.316 103.661 113.105C103.646 114.583 103.677 111.629 103.661 113.105Z" fill="#EB2629"/>
<path d="M73.6123 24.4942C73.04 25.5025 67.2937 34.3044 68.4965 42.9134L74.7509 40.6772L77.6087 29.073L73.6123 24.4942Z" fill="#FFA982"/>
<path d="M98.5867 20.8869C98.5867 20.8869 94.7438 14.0716 85.3902 15.9557C76.0363 17.84 70.9318 31.0791 73.4688 57.3015C73.4688 57.3015 88.3287 51.4594 107.651 56.1689C107.651 56.1688 104.47 30.7735 98.5867 20.8869Z" fill="#464646"/>
<path d="M105.721 18.1329L99.146 24.6233C99.146 24.6233 82.2904 29.1265 77.6088 29.0726C72.9273 29.0186 71.0843 25.6351 71.0843 25.6351C71.0843 25.6351 75.0356 19.4473 83.0307 16.6486C83.7816 16.3845 84.5673 16.1518 85.3896 15.9562C86.7699 15.6289 88.1735 15.4399 89.5662 15.3576C97.8429 14.8706 105.721 18.1329 105.721 18.1329Z" fill="#464646"/>
<path d="M105.721 18.133C106.772 19.2627 105.151 20.4968 103.335 22.289C101.52 24.0815 99.6444 25.1266 99.1462 24.6234C98.6481 24.1205 99.7161 22.2598 101.532 20.4676C103.347 18.6753 105.239 17.6149 105.721 18.133Z" fill="#2E2E46"/>
<path d="M100.021 24.6499C100.021 24.6499 99.9226 23.3537 101.57 21.6986C102.563 20.7017 103.819 20.0502 104.661 19.6898C105.162 19.4755 105.741 19.7163 105.939 20.223L106.467 21.5669L104.012 23.1296L100.021 24.6499Z" fill="#FFA982"/>
<path d="M88.4027 48.6908C88.4027 48.6908 108.686 37.8214 115.956 49.6786C121.338 58.4558 113.248 66.63 83.2409 65.7998C83.2409 65.7998 80.2753 64.4261 80.9976 57.3015C81.2838 54.4786 88.4027 48.6908 88.4027 48.6908Z" fill="#FFC20E"/>
<path d="M88.4027 48.6908C88.4027 48.6908 61.388 37.7481 56.0427 44.5889C49.8996 52.4508 55.7907 65.7998 84.2665 61.028L87.7366 57.3014L88.4027 48.6908Z" fill="#FFC20E"/>
<path d="M80.8251 59.2616C80.8251 59.2616 75.8465 59.4617 73.5078 60.5959C71.1692 61.73 72.4181 64.4987 77.1665 64.4247C81.9151 64.3509 81.5545 63.652 81.5545 63.652C81.5545 63.652 80.6525 61.2217 80.8251 59.2616Z" fill="#2E2E46"/>
<path d="M83.2084 65.8461C79.8767 63.4952 80.9309 57.3536 80.9419 57.2917L80.9476 57.2596L80.9784 57.2484L101.485 49.8681L101.524 49.9744L81.0482 57.3434C80.9701 57.8251 80.1243 63.5315 83.2738 65.7537L83.2084 65.8461Z" fill="#020202"/>
<path d="M87.198 49.2118C85.5492 49.2118 84.1947 48.7996 83.0965 47.9805C81.0222 46.4333 80.6373 43.967 80.9381 42.3249L82.9226 41.1841C83.0211 40.6456 86.8506 42.6464 86.8441 42.6441C86.8615 42.65 88.6717 43.1679 94.9479 39.9963C99.3168 37.7883 101.519 34.6549 101.679 30.4169C101.801 27.2219 100.36 25.4274 100.021 24.6496C99.9753 24.5461 102.132 22.4081 102.07 22.1903L103.687 21.378C103.635 21.1946 105.242 20.568 105.219 20.5157L106.466 21.5667C107.082 22.9752 108.392 26.2089 108.223 30.6645C108.048 35.2929 106.115 41.681 97.9046 45.83C93.4277 48.0926 89.9141 49.2118 87.198 49.2118Z" fill="#FFA982"/>
<path d="M85.8663 49.472H68.3612C67.9947 49.472 67.6694 49.2416 67.5536 48.9002L63.9159 38.1574C63.7327 37.6162 64.1428 37.0579 64.7235 37.0579H81.5576C82.3247 37.0579 83.0056 37.5403 83.2477 38.2551L86.6738 48.3727C86.8571 48.9138 86.4468 49.472 85.8663 49.472Z" fill="#1890FF"/>
<path d="M84.7677 49.472H67.2625C66.896 49.472 66.5708 49.2416 66.4549 48.9002L62.8172 38.1574C62.6339 37.6162 63.0441 37.0579 63.6249 37.0579H80.4588C81.2261 37.0579 81.9069 37.5403 82.149 38.2551L85.575 48.3727C85.7583 48.9138 85.3483 49.472 84.7677 49.472Z" fill="#1890FF"/>
<path d="M72.5021 42.9136C72.5021 42.5057 72.9781 42.3395 73.3934 42.3395C73.8087 42.3395 74.4869 42.7871 74.4825 43.3587C74.4779 43.9751 73.9904 44.0555 73.5753 44.0555C73.1597 44.0555 72.5021 43.4329 72.5021 42.9136Z" fill="#DEEBE9"/>
<path d="M91.2129 47.954H67.2537V49.472H91.7084C91.9915 49.472 92.2208 49.2432 92.2208 48.9605C92.2208 48.4047 91.7695 47.954 91.2129 47.954Z" fill="#1890FF"/>
<path d="M83.5234 42.4892C83.5146 42.4573 82.6559 39.2723 82.0997 38.2828C81.5517 37.3074 80.8763 37.1142 80.8694 37.1124L80.8993 37.0034C80.9287 37.0113 81.6274 37.2111 82.1986 38.2274C82.7615 39.2295 83.5973 42.3284 83.6325 42.46L83.5234 42.4892Z" fill="#2E2E46"/>
<path d="M86.1099 48.0105C85.4614 48.0105 85.3 47.7268 85.2934 47.7145L85.2895 47.7059L83.9253 43.6769L84.0326 43.6405L85.3949 47.6635C85.4128 47.6901 85.5711 47.8974 86.11 47.8974V48.0105H86.1099Z" fill="#2E2E46"/>
<path d="M102.934 39.8992C102.833 39.8992 102.739 39.8757 102.654 39.8271C102.225 39.5799 102.237 38.7851 102.681 38.0175C102.886 37.6623 103.153 37.3694 103.433 37.1922C103.735 37.0011 104.021 36.9645 104.237 37.0892C104.666 37.3363 104.653 38.1312 104.21 38.8986C103.853 39.5147 103.343 39.8992 102.934 39.8992ZM103.956 37.2434C103.839 37.2434 103.7 37.2907 103.555 37.383C103.305 37.5409 103.064 37.8065 102.877 38.1305C102.509 38.7664 102.459 39.4538 102.767 39.6315C103.075 39.8088 103.646 39.4216 104.014 38.7857C104.381 38.1498 104.432 37.4624 104.124 37.2848C104.076 37.257 104.019 37.2434 103.956 37.2434Z" fill="#F18C7E"/>
<path d="M89.7112 15.3415C88.561 15.3082 87.6887 15.1912 87.0271 14.4215L84.9797 12.0403L84.3839 11.3468L80.8795 7.27018L82.7201 12.0372L83.825 14.8983L84.1746 15.804C84.4121 16.4186 84.0984 16.7053 83.8774 17.4243C83.7878 17.7157 83.184 19.5089 84.7573 19.52C86.7174 19.5341 89.1967 17.2811 89.7413 15.3356C89.7312 15.3379 89.7214 15.3419 89.7112 15.3415Z" fill="#FFA982"/>
<path d="M85.5491 10.5102C85.5491 10.5102 89.4077 6.84309 87.1817 3.74784C84.9557 0.652588 84.3997 8.71544 84.3997 8.71544L85.0217 10.5792L85.5491 10.5102Z" fill="#2E2E46"/>
<path d="M84.9602 11.9579C84.9676 11.9851 84.974 12.0125 84.9795 12.0403C85.3378 13.6481 83.838 14.9038 83.838 14.9038L83.8249 14.8983L82.72 12.0372C83.1893 11.6894 83.8807 11.2688 84.3837 11.3468C84.6467 11.3876 84.8579 11.5644 84.9602 11.9579Z" fill="#2E2E46"/>
<path d="M79.526 3.46686C77.1457 4.18733 75.9214 7.09461 76.7914 9.96046C77.6615 12.8263 80.2964 14.5655 82.6768 13.845C85.0571 13.1245 86.2814 10.2172 85.4114 7.3514C84.5413 4.48555 81.9064 2.74638 79.526 3.46686Z" fill="#FFA982"/>
<path d="M84.5963 6.94241C84.5963 6.94241 83.3676 7.82599 82.3377 7.07939C81.3077 6.33266 80.5794 5.62434 78.2732 6.77222C75.9673 7.91998 73.4427 7.40446 72.9765 6.11218C72.5102 4.8199 73.6087 3.83008 75.0573 3.89415C76.506 3.95823 74.7509 3.17299 75.7584 1.8144C76.7663 0.45593 79.3221 1.85551 80.5891 1.18204C81.8562 0.508695 86.3698 -0.0764364 87.1818 3.74787L84.5963 6.94241Z" fill="#2E2E46"/>
<path d="M84.2968 8.04743C84.7015 8.31174 85.2698 8.15941 85.566 7.70719C85.8622 7.25497 85.7743 6.6741 85.3696 6.40979C84.9649 6.14548 84.3967 6.29781 84.1004 6.75003C83.8042 7.20225 83.8921 7.78312 84.2968 8.04743Z" fill="#FFA982"/>
<path d="M75.5236 5.66496C75.438 5.66496 75.3549 5.65589 75.2758 5.63599C74.7572 5.50584 74.6116 5.23707 74.6481 5.02907C74.6901 4.78962 74.9837 4.56031 75.4455 4.60706C76.1332 4.67644 76.5096 4.44759 76.5133 4.44535L76.603 4.58716C76.5861 4.59799 76.179 4.84969 75.4288 4.77396C75.0858 4.73933 74.8423 4.89433 74.8137 5.05804C74.7838 5.22882 74.9767 5.38806 75.3171 5.47345C76.2049 5.69547 77.7393 4.33111 77.7547 4.31733L77.8671 4.44217C77.8066 4.496 76.492 5.66496 75.5236 5.66496Z" fill="white"/>
<path d="M79.5073 2.46358C78.5714 2.46358 77.7312 2.06314 77.6579 1.97951L77.7844 1.86903L77.7213 1.92427L77.7804 1.86468C77.8662 1.93617 79.2384 2.59302 80.412 2.13828C80.8045 1.98622 81.1488 1.80626 81.4819 1.63218C82.164 1.27543 82.7532 0.967785 83.4259 1.09722L83.394 1.26188C82.7789 1.1434 82.2139 1.43879 81.5596 1.78082C81.2226 1.95701 80.8739 2.13934 80.4726 2.29469C80.1578 2.41683 79.8268 2.46358 79.5073 2.46358Z" fill="white"/>
<path d="M86.0162 3.5492C85.7682 3.5492 85.3094 3.16689 85.1898 2.9252C85.102 2.74794 85.1922 2.66668 85.2354 2.63994C85.573 2.4297 86.0616 3.08668 86.1561 3.22047L86.1646 3.23272L86.1685 3.24709C86.2234 3.45121 86.1367 3.51728 86.0801 3.5386C86.0611 3.54578 86.0394 3.5492 86.0162 3.5492ZM85.381 2.76714C85.3599 2.76714 85.3409 2.77197 85.3243 2.7821C85.3166 2.79706 85.3321 2.8881 85.5029 3.05935C85.7311 3.28773 85.9676 3.39809 86.0195 3.38207C86.0178 3.3803 86.0229 3.35922 86.0098 3.30469C85.8381 3.06583 85.5472 2.76714 85.381 2.76714Z" fill="white"/>
<path d="M112.602 56.5178C112.267 56.5178 111.943 56.4335 111.654 56.2664C111.159 55.9815 110.824 55.4909 110.711 54.8851C110.598 54.2857 110.716 53.6444 111.043 53.0793C111.721 51.9068 113.098 51.4283 114.113 52.0135C115.127 52.5984 115.401 54.028 114.723 55.2007C114.396 55.7658 113.899 56.1886 113.323 56.391C113.082 56.4759 112.839 56.5178 112.602 56.5178ZM113.164 51.9893C112.437 51.9893 111.679 52.4317 111.239 53.1922C110.939 53.7108 110.831 54.2973 110.933 54.8436C111.034 55.3834 111.33 55.8193 111.767 56.0707C112.203 56.3222 112.729 56.3602 113.248 56.1779C113.773 55.9935 114.227 55.6061 114.527 55.0876C115.143 54.023 114.906 52.7317 114 52.2091C113.741 52.0601 113.455 51.9893 113.164 51.9893Z" fill="#2E2E46"/>
<path d="M80.237 8.80252C80.2096 8.79864 80.1842 8.7825 80.1697 8.75647C80.1451 8.71254 80.161 8.6573 80.205 8.63269C80.2308 8.6182 80.8004 8.22765 81.4105 8.74446C81.4491 8.77697 81.4556 8.83374 81.4237 8.8726C81.3918 8.9117 81.3403 8.90841 81.295 8.88579C80.8436 8.65966 80.3153 8.78026 80.2938 8.79204C80.2759 8.80205 80.2558 8.80523 80.237 8.80252Z" fill="#060633"/>
<path d="M80.8533 10.141C81.0094 10.116 81.1081 9.92171 81.0737 9.70693C81.0393 9.49215 80.8848 9.33825 80.7287 9.36317C80.5726 9.3881 80.4739 9.58242 80.5083 9.7972C80.5427 10.012 80.6972 10.1659 80.8533 10.141Z" fill="#060633"/>
<path d="M77.048 9.94613C77.0273 9.95143 77.0036 9.94471 76.9843 9.92516C76.9516 9.89218 76.9432 9.83529 76.9656 9.79819C76.979 9.77628 77.2444 9.22731 77.8573 9.51128C77.8959 9.52918 77.9204 9.57983 77.9117 9.62659C77.9029 9.67323 77.8652 9.68689 77.8256 9.68053C77.427 9.61622 77.0958 9.89984 77.0847 9.91798C77.0753 9.93305 77.0622 9.94247 77.048 9.94613Z" fill="#060633"/>
<path d="M78.1578 10.9398C78.2926 10.8574 78.3096 10.6402 78.1958 10.4547C78.082 10.2692 77.8805 10.1856 77.7457 10.268C77.611 10.3504 77.5939 10.5676 77.7077 10.7531C77.8215 10.9386 78.023 11.0222 78.1578 10.9398Z" fill="#060633"/>
<path d="M80.8039 12.7385C80.4828 12.7385 80.2574 12.6836 80.2513 12.682C80.2174 12.6734 80.1966 12.6388 80.2052 12.6048C80.214 12.5707 80.2485 12.5502 80.2826 12.5587C80.3455 12.5746 81.8313 12.9331 82.5625 11.6557C82.58 11.6253 82.619 11.6146 82.6496 11.632C82.6801 11.6495 82.6906 11.6882 82.673 11.7188C82.1815 12.5784 81.3527 12.7385 80.8039 12.7385Z" fill="#020202"/>
<path d="M82.8038 11.9419C82.7771 11.9419 82.7522 11.925 82.7434 11.8983C82.7142 11.8106 82.6274 11.6768 82.3806 11.5364C82.3714 11.5311 82.3651 11.5274 82.3623 11.5254C82.3331 11.506 82.3252 11.4665 82.3446 11.4373C82.364 11.4081 82.4032 11.4002 82.4325 11.4192L82.4438 11.4258C82.6701 11.5544 82.8117 11.7 82.8642 11.858C82.8754 11.8914 82.8574 11.9274 82.8239 11.9386C82.8174 11.9408 82.8106 11.9419 82.8038 11.9419Z" fill="#020202"/>
<path d="M83.8864 21.6788L83.8783 21.3972C88.9046 21.2542 90.7173 16.9515 90.7349 16.9081L90.9962 17.0142C90.9774 17.0605 90.5214 18.1601 89.4162 19.2927C88.3955 20.3384 86.6075 21.6013 83.8864 21.6788Z" fill="#2E2E46"/>
<path d="M86.2807 24.0875L86.1318 23.8484C86.1576 23.8322 88.7223 22.2066 89.0537 19.2984L89.3339 19.3303C88.9868 22.3764 86.3076 24.0708 86.2807 24.0875Z" fill="#2E2E46"/>
<path d="M75.8408 25.471L75.573 25.3823L74.5402 28.4887L74.808 28.5774L75.8408 25.471Z" fill="#2E2E46"/>
<path d="M77.6789 13.5265C77.6175 13.5265 77.555 13.5223 77.4916 13.5138C76.8157 13.4232 76.1132 12.8575 75.6123 12.0003C74.7976 10.6055 74.7613 8.8569 75.5314 8.10217C75.8169 7.82244 76.1812 7.70325 76.5855 7.75755C77.2614 7.84812 77.9639 8.41382 78.4645 9.27102C79.2795 10.6658 79.3158 12.4144 78.5457 13.1691C78.3052 13.4047 78.0084 13.5265 77.6789 13.5265ZM76.4005 7.9341C76.1204 7.9341 75.8683 8.03727 75.6642 8.23703C74.952 8.93487 75.0024 10.5803 75.7762 11.9049C76.2478 12.7121 76.8984 13.2434 77.5167 13.3262C77.8609 13.3723 78.1708 13.2713 78.413 13.0342C79.1251 12.3363 79.0748 10.691 78.301 9.3663C77.8296 8.55915 77.1788 8.02785 76.5605 7.94505C76.5063 7.93775 76.4526 7.9341 76.4005 7.9341Z" fill="#FF6757"/>
<g opacity="0.3">
<path opacity="0.3" d="M83.0518 7.22236C83.7115 8.60933 83.5291 10.2969 82.6445 10.9915C81.76 11.6861 80.5081 11.125 79.8485 9.7379C79.1887 8.35081 79.3711 6.66326 80.2558 5.96872C81.1403 5.27417 82.3922 5.83539 83.0518 7.22236Z" fill="white"/>
</g>
<g opacity="0.3">
<path opacity="0.3" d="M78.5309 9.38294C79.1928 10.7766 79.1035 12.4674 78.331 13.1597C77.5587 13.852 76.3959 13.2834 75.7337 11.8899C75.0717 10.4963 75.1611 8.80546 75.9335 8.11327C76.7059 7.42084 77.8687 7.98937 78.5309 9.38294Z" fill="white"/>
</g>
<path d="M81.6542 11.3647C81.5267 11.3647 81.3967 11.3493 81.2651 11.3182C80.558 11.151 79.9148 10.5612 79.5005 9.70002C78.7881 8.21929 79.0036 6.40066 79.9809 5.64616C80.3753 5.34146 80.8418 5.24147 81.3298 5.35677C82.0369 5.52378 82.6802 6.11351 83.0946 6.97483C83.807 8.45556 83.5914 10.2742 82.6143 11.0288C82.326 11.2513 81.9994 11.3647 81.6542 11.3647ZM80.943 5.49987C80.6386 5.49987 80.3508 5.59975 80.0968 5.79585C79.1863 6.49865 78.9956 8.21352 79.6713 9.61817C80.0551 10.4158 80.6673 10.9824 81.3087 11.1341C81.739 11.2359 82.1506 11.1477 82.4984 10.8792C83.4087 10.1763 83.5997 8.46145 82.9239 7.05681C82.5401 6.25932 81.928 5.69256 81.2863 5.54098C81.1702 5.51342 81.0555 5.49987 80.943 5.49987Z" fill="#FF6757"/>
<path d="M78.4179 9.97689C78.3798 9.97689 78.3416 9.96488 78.3093 9.93967C78.2329 9.87984 78.2183 9.76995 78.2779 9.69304C78.2969 9.66831 78.7573 9.0873 79.7381 9.06304C79.8359 9.05904 79.9169 9.13783 79.9192 9.23535C79.9217 9.33299 79.8445 9.41391 79.7468 9.41626C78.9419 9.43605 78.5726 9.89044 78.5571 9.90976C78.5222 9.95381 78.4702 9.97689 78.4179 9.97689Z" fill="#FF6757"/>
<path d="M65.2719 35.9112C65.2178 35.9112 65.164 35.8871 65.1279 35.8413C64.9047 35.5571 64.6724 35.2746 64.4371 35.0017C64.3712 34.9254 64.3799 34.81 64.4564 34.7443C64.5329 34.6784 64.6483 34.6872 64.7142 34.7635C64.9531 35.0407 65.1891 35.3273 65.4157 35.6158C65.4781 35.6952 65.4641 35.8099 65.3846 35.8721C65.3512 35.8984 65.3115 35.9112 65.2719 35.9112Z" fill="#2E2E46"/>
<path d="M40.2621 117.407C40.162 117.407 40.0804 117.326 40.0793 117.226C40.0784 117.125 40.1595 117.043 40.2604 117.042C40.9739 117.035 41.7049 117.016 42.4329 116.985C42.5314 116.979 42.6189 117.059 42.6232 117.16C42.6275 117.261 42.5491 117.346 42.4482 117.35C41.7163 117.381 40.9813 117.4 40.2639 117.407H40.2621V117.407ZM38.0835 117.391C38.0818 117.391 38.0805 117.391 38.0789 117.391C37.346 117.373 36.6111 117.341 35.8945 117.297C35.7938 117.291 35.7171 117.204 35.7234 117.104C35.7296 117.003 35.8177 116.926 35.9169 116.933C36.629 116.976 37.3594 117.008 38.0878 117.026C38.1887 117.028 38.2685 117.112 38.2661 117.212C38.2637 117.312 38.1823 117.391 38.0835 117.391ZM44.6162 117.225C44.5211 117.225 44.441 117.152 44.4341 117.056C44.4266 116.955 44.5023 116.868 44.603 116.86C45.3172 116.808 46.0457 116.745 46.7687 116.671C46.8699 116.661 46.9588 116.734 46.9691 116.834C46.9793 116.935 46.9062 117.024 46.8058 117.034C46.0793 117.108 45.3472 117.172 44.6296 117.224C44.625 117.225 44.6205 117.225 44.6162 117.225ZM33.7338 117.122C33.7275 117.122 33.7215 117.122 33.7151 117.122C32.9853 117.048 32.2549 116.96 31.5443 116.859C31.4442 116.845 31.3749 116.752 31.3891 116.653C31.4035 116.553 31.4974 116.483 31.5959 116.498C32.3015 116.598 33.0271 116.686 33.7518 116.758C33.8523 116.769 33.9256 116.858 33.9156 116.958C33.9059 117.052 33.8264 117.122 33.7338 117.122ZM48.9521 116.784C48.8616 116.784 48.7828 116.717 48.771 116.625C48.758 116.525 48.8286 116.434 48.9287 116.421C49.6385 116.329 50.3627 116.225 51.0814 116.113C51.1811 116.097 51.2748 116.165 51.2903 116.265C51.3059 116.364 51.2377 116.458 51.138 116.473C50.416 116.586 49.6885 116.69 48.9759 116.783C48.9679 116.784 48.9597 116.784 48.9521 116.784ZM29.4202 116.507C29.409 116.507 29.3978 116.506 29.3863 116.504C28.6656 116.369 27.9456 116.217 27.2461 116.052C27.148 116.029 27.0871 115.931 27.1104 115.833C27.1335 115.735 27.2316 115.674 27.3302 115.697C28.024 115.861 28.7385 116.011 29.4537 116.145C29.5529 116.164 29.6182 116.259 29.5996 116.359C29.5832 116.446 29.5063 116.507 29.4202 116.507ZM53.2583 116.111C53.1717 116.111 53.0947 116.05 53.0787 115.962C53.0606 115.862 53.1265 115.767 53.2257 115.749C53.9315 115.621 54.6499 115.481 55.3607 115.333C55.4586 115.313 55.5563 115.376 55.5768 115.475C55.5974 115.574 55.5338 115.67 55.435 115.691C54.7214 115.839 54.0002 115.979 53.2915 116.108C53.2802 116.11 53.2691 116.111 53.2583 116.111ZM25.1806 115.506C25.1638 115.506 25.1468 115.503 25.1297 115.499C24.4258 115.295 23.724 115.074 23.0438 114.839C22.9482 114.806 22.8977 114.702 22.9306 114.606C22.9638 114.511 23.068 114.461 23.1631 114.494C23.8375 114.726 24.5332 114.947 25.2311 115.148C25.328 115.176 25.384 115.277 25.3561 115.374C25.3331 115.454 25.26 115.506 25.1806 115.506ZM57.5263 115.228C57.4432 115.228 57.3679 115.171 57.3483 115.086C57.3255 114.988 57.3867 114.89 57.4851 114.867C58.1859 114.705 58.897 114.532 59.5985 114.352C59.6956 114.327 59.796 114.386 59.821 114.484C59.8461 114.581 59.787 114.681 59.6893 114.706C58.9851 114.886 58.2713 115.06 57.5678 115.223C57.5539 115.226 57.5401 115.228 57.5263 115.228ZM61.7491 114.148C61.6692 114.148 61.5957 114.095 61.5733 114.014C61.546 113.917 61.6026 113.817 61.6998 113.789C62.3961 113.595 63.0987 113.389 63.7882 113.18C63.8843 113.15 63.9869 113.205 64.0163 113.301C64.0458 113.397 63.9913 113.5 63.8948 113.529C63.2027 113.739 62.4975 113.945 61.7986 114.141C61.7821 114.145 61.7655 114.148 61.7491 114.148ZM21.0644 114.083C21.0416 114.083 21.0181 114.078 20.9954 114.069C20.3186 113.793 19.6447 113.497 18.9928 113.187C18.9016 113.144 18.8628 113.035 18.9063 112.944C18.9495 112.853 19.0588 112.814 19.1499 112.857C19.7955 113.164 20.4629 113.458 21.1334 113.731C21.227 113.769 21.2719 113.876 21.2337 113.969C21.2048 114.04 21.1365 114.083 21.0644 114.083ZM65.9195 112.879C65.8427 112.879 65.7713 112.83 65.7459 112.754C65.7143 112.658 65.7663 112.555 65.8622 112.523C66.5591 112.293 67.2514 112.056 67.92 111.817C68.0153 111.783 68.1197 111.832 68.1535 111.927C68.1876 112.022 68.1382 112.127 68.0431 112.161C67.3717 112.4 66.6763 112.639 65.9766 112.87C65.9579 112.876 65.9385 112.879 65.9195 112.879ZM17.132 112.214C17.1021 112.214 17.0721 112.206 17.044 112.191C16.405 111.84 15.7702 111.467 15.1577 111.081C15.0723 111.028 15.0467 110.915 15.1006 110.83C15.1543 110.744 15.2672 110.719 15.3527 110.773C15.9592 111.154 16.5875 111.524 17.2202 111.871C17.3088 111.92 17.341 112.031 17.2924 112.119C17.259 112.179 17.1965 112.214 17.132 112.214ZM13.4486 109.894C13.4117 109.894 13.3743 109.883 13.3421 109.86C12.7526 109.437 12.1682 108.989 11.605 108.53C11.5268 108.466 11.515 108.351 11.5789 108.273C11.6426 108.195 11.7581 108.183 11.836 108.247C12.3936 108.702 12.9721 109.144 13.5556 109.564C13.6375 109.622 13.6561 109.736 13.5973 109.818C13.5616 109.868 13.5055 109.894 13.4486 109.894ZM10.0767 107.145C10.0322 107.145 9.98777 107.129 9.9525 107.096C9.81567 106.97 9.67931 106.842 9.54354 106.713C9.14756 106.336 8.75936 105.95 8.3898 105.566C8.31997 105.493 8.32233 105.377 8.39523 105.308C8.46801 105.238 8.58384 105.24 8.65355 105.313C9.01946 105.694 9.40364 106.076 9.79585 106.449C9.93021 106.577 10.0653 106.703 10.2007 106.828C10.2749 106.897 10.2795 107.012 10.2109 107.086C10.175 107.125 10.1258 107.145 10.0767 107.145ZM7.06502 104.005C7.013 104.005 6.96122 103.983 6.92489 103.94C6.45058 103.378 5.99585 102.798 5.57368 102.218C5.51423 102.137 5.53228 102.023 5.61391 101.963C5.69565 101.904 5.81007 101.922 5.86929 102.004C6.28662 102.577 6.7358 103.149 7.20468 103.705C7.26979 103.782 7.25977 103.897 7.1825 103.962C7.14842 103.991 7.10666 104.005 7.06502 104.005ZM4.50841 100.488C4.44707 100.488 4.38727 100.457 4.35271 100.401C3.96675 99.7759 3.60544 99.1335 3.27894 98.4921C3.23317 98.4022 3.26915 98.2924 3.35915 98.2466C3.44962 98.201 3.55909 98.237 3.60497 98.3268C3.92688 98.9593 4.28311 99.5928 4.66388 100.21C4.71684 100.296 4.69018 100.408 4.60419 100.461C4.57423 100.479 4.54108 100.488 4.50841 100.488ZM2.53994 96.6128C2.46763 96.6128 2.39909 96.5696 2.37031 96.4983C2.09618 95.8189 1.8513 95.1236 1.64275 94.4314C1.61373 94.3349 1.66847 94.233 1.76507 94.2041C1.86144 94.175 1.96383 94.2296 1.99285 94.3262C2.19821 95.0078 2.43932 95.6927 2.70944 96.3618C2.74719 96.4553 2.70201 96.5616 2.60835 96.5994C2.58582 96.6084 2.56258 96.6128 2.53994 96.6128ZM1.28805 92.4525C1.20265 92.4525 1.12645 92.3925 1.10888 92.3058C0.964849 91.5912 0.853734 90.8622 0.778477 90.1391C0.768097 90.0388 0.840876 89.9492 0.941376 89.9388C1.04341 89.9282 1.13176 90.0012 1.14214 90.1014C1.21622 90.8131 1.32568 91.5306 1.46735 92.2338C1.48728 92.3328 1.42323 92.4289 1.32415 92.4488C1.31212 92.4512 1.29997 92.4525 1.28805 92.4525ZM0.838635 88.1317C0.738371 88.1317 0.656626 88.0509 0.6558 87.9507C0.65521 87.886 0.654976 87.8215 0.654976 87.7569C0.654976 87.0951 0.683992 86.4235 0.740966 85.7609C0.749576 85.6604 0.838281 85.586 0.93878 85.5947C1.03928 85.6033 1.11383 85.6918 1.1051 85.7922C1.04895 86.4445 1.02053 87.1055 1.02053 87.757C1.02053 87.8205 1.02076 87.8841 1.02135 87.9477C1.02218 88.0484 0.941023 88.1309 0.840051 88.1318H0.838635V88.1317ZM1.21008 83.8038C1.19935 83.8038 1.1885 83.8027 1.17765 83.8008C1.07821 83.783 1.01227 83.6881 1.03008 83.5888C1.15877 82.8753 1.32238 82.1565 1.5163 81.4522C1.5432 81.3549 1.64358 81.2978 1.74101 81.3246C1.83844 81.3513 1.89565 81.4517 1.86888 81.5489C1.67778 82.2427 1.51665 82.9507 1.38985 83.6535C1.37381 83.7418 1.29678 83.8038 1.21008 83.8038ZM16.6537 83.793C16.1551 83.793 15.6483 83.7615 15.147 83.6993C15.0467 83.6869 14.9757 83.5956 14.9882 83.4956C15.0006 83.3954 15.0921 83.3247 15.1922 83.337C15.9064 83.4257 16.629 83.4497 17.333 83.408C17.4356 83.402 17.5204 83.4788 17.5264 83.5794C17.5323 83.68 17.4555 83.7664 17.3548 83.7724C17.123 83.7862 16.8871 83.793 16.6537 83.793ZM19.4922 83.4324C19.4112 83.4324 19.3373 83.3783 19.3156 83.2966C19.2898 83.1991 19.3479 83.0992 19.4456 83.0734C20.1504 82.8872 20.8198 82.629 21.4352 82.306C21.5248 82.2592 21.6351 82.2935 21.6822 82.3825C21.729 82.4718 21.6947 82.582 21.6055 82.629C20.9657 82.9648 20.2705 83.233 19.5391 83.4263C19.5233 83.4304 19.5076 83.4324 19.4922 83.4324ZM13.0422 83.2455C13.0245 83.2455 13.0064 83.243 12.9887 83.2376C12.2912 83.0243 11.6021 82.7489 10.9406 82.4189C10.8503 82.3738 10.8137 82.2643 10.8589 82.174C10.9041 82.0839 11.0135 82.0472 11.104 82.0924C11.7475 82.4135 12.4177 82.6812 13.0958 82.8885C13.1922 82.9181 13.2466 83.0202 13.217 83.1166C13.1929 83.195 13.1204 83.2455 13.0422 83.2455ZM23.2986 81.404C23.2494 81.404 23.2004 81.3842 23.1643 81.3453C23.0959 81.2714 23.1003 81.1559 23.1743 81.0875C23.7041 80.5983 24.15 80.0447 24.4994 79.442C24.5499 79.3547 24.6617 79.3249 24.7491 79.3755C24.8365 79.4261 24.8663 79.5378 24.8156 79.6249C24.4478 80.2592 23.9791 80.8414 23.4225 81.3555C23.3876 81.388 23.343 81.404 23.2986 81.404ZM9.15994 81.3148C9.12302 81.3148 9.08587 81.3036 9.05366 81.2806C8.46494 80.8589 7.89709 80.3833 7.36581 79.867C7.2935 79.7965 7.29197 79.6811 7.36251 79.6089C7.43293 79.5366 7.54865 79.5351 7.62095 79.6054C8.13914 80.1091 8.69283 80.5729 9.2667 80.984C9.34868 81.0428 9.36743 81.1569 9.30869 81.2388C9.27306 81.2885 9.21692 81.3148 9.15994 81.3148ZM2.36264 79.6137C2.34141 79.6137 2.31994 79.6101 2.29883 79.6022C2.20423 79.5669 2.15622 79.4619 2.19137 79.3675C2.44522 78.6873 2.73303 78.0084 3.04656 77.3497C3.08997 77.2586 3.1992 77.22 3.29014 77.2632C3.38133 77.3066 3.42013 77.4155 3.37672 77.5064C3.06768 78.1555 2.78411 78.8245 2.5338 79.4949C2.50655 79.5683 2.43672 79.6137 2.36264 79.6137ZM6.04481 78.2978C5.99031 78.2978 5.93628 78.2736 5.90031 78.2272C5.45985 77.6611 5.04405 77.0501 4.66458 76.4111C4.61304 76.3244 4.64182 76.2123 4.72863 76.161C4.81533 76.1094 4.92775 76.1382 4.97906 76.2249C5.35074 76.8507 5.75793 77.4492 6.18895 78.0033C6.25088 78.083 6.23649 78.1976 6.15686 78.2594C6.12348 78.2853 6.08409 78.2978 6.04481 78.2978ZM25.4397 77.6965C25.4267 77.6965 25.4137 77.6951 25.4006 77.6924C25.3019 77.6708 25.2394 77.5736 25.2609 77.4751C25.3725 76.9637 25.4292 76.4271 25.4292 75.8799C25.4292 75.7096 25.4238 75.5359 25.4129 75.3638C25.4066 75.2632 25.4832 75.1764 25.5839 75.1701C25.6853 75.1637 25.7715 75.2403 25.7779 75.3408C25.7892 75.5204 25.7949 75.7018 25.7949 75.8798C25.7949 76.453 25.7354 77.0159 25.6182 77.5527C25.5994 77.6383 25.5238 77.6965 25.4397 77.6965ZM4.23144 75.6885C4.19995 75.6885 4.1681 75.6804 4.1392 75.6633C4.05203 75.6123 4.0229 75.5005 4.07397 75.4135C4.44436 74.7831 4.84553 74.1643 5.26641 73.5739C5.32491 73.4918 5.43909 73.4726 5.52131 73.5311C5.60353 73.5895 5.62264 73.7036 5.56413 73.7856C5.14939 74.3672 4.75411 74.9771 4.38915 75.5984C4.3553 75.6561 4.2942 75.6885 4.23144 75.6885ZM3.8206 74.5714C3.75089 74.5714 3.68436 74.5313 3.65381 74.4638C3.3608 73.8141 3.09162 73.1276 2.85429 72.4232C2.82209 72.3277 2.87352 72.2242 2.9693 72.192C3.06508 72.1599 3.16853 72.2114 3.20085 72.3068C3.43441 72.9999 3.6991 73.6752 3.98727 74.3139C4.02879 74.4058 3.98775 74.5138 3.89574 74.5553C3.8712 74.5662 3.84572 74.5714 3.8206 74.5714ZM25.2115 73.3979C25.1322 73.3979 25.0593 73.3462 25.0361 73.2664C25.0145 73.1924 24.9921 73.1182 24.9688 73.0436C24.7697 72.4081 24.5404 71.8061 24.2875 71.2544C24.2455 71.1627 24.2857 71.0544 24.3776 71.0124C24.4696 70.9705 24.5779 71.0108 24.62 71.1024C24.8793 71.6681 25.114 72.2845 25.3179 72.9347C25.3419 73.0115 25.3651 73.0883 25.3873 73.1645C25.4154 73.2613 25.3599 73.3626 25.2628 73.3907C25.2456 73.3956 25.2285 73.3979 25.2115 73.3979ZM6.75809 72.1491C6.71587 72.1491 6.6734 72.1346 6.63896 72.1049C6.5624 72.0392 6.55367 71.924 6.61949 71.8476C7.10182 71.2874 7.60998 70.7518 8.13017 70.2556C8.20307 70.1858 8.31867 70.1885 8.38862 70.2613C8.45833 70.3342 8.45574 70.4499 8.38272 70.5194C7.87114 71.0076 7.37124 71.5344 6.89669 72.0855C6.86072 72.1275 6.80952 72.1491 6.75809 72.1491ZM2.42504 70.459C2.34271 70.459 2.26793 70.4029 2.24764 70.3194C2.0799 69.6293 1.93411 68.9078 1.81426 68.1752C1.79775 68.0757 1.86557 67.9818 1.96513 67.9657C2.06468 67.9493 2.1587 68.0169 2.17486 68.1164C2.2934 68.84 2.43719 69.5521 2.60281 70.2334C2.62663 70.3313 2.56636 70.43 2.46822 70.4538C2.45394 70.4574 2.43944 70.459 2.42504 70.459ZM23.3737 69.4764C23.3167 69.4764 23.2603 69.4498 23.2247 69.4001C22.7931 68.797 22.3094 68.2713 21.7872 67.8376C21.7094 67.7732 21.6988 67.6581 21.7633 67.5805C21.828 67.5029 21.9432 67.4926 22.0208 67.5569C22.5672 68.0105 23.0723 68.5593 23.5222 69.1879C23.5809 69.2698 23.562 69.3839 23.4799 69.4424C23.4475 69.4654 23.4105 69.4764 23.3737 69.4764ZM9.90933 69.1535C9.85436 69.1535 9.79998 69.1289 9.76412 69.082C9.70266 69.0019 9.718 68.8874 9.79809 68.8261C10.3953 68.3691 11.0096 67.9564 11.624 67.5993C11.711 67.5486 11.8232 67.5781 11.8739 67.6652C11.9247 67.7523 11.8951 67.864 11.8079 67.9148C11.2069 68.2641 10.6054 68.6682 10.0204 69.1158C9.98718 69.1411 9.94814 69.1535 9.90933 69.1535ZM13.6732 66.9886C13.6002 66.9886 13.5311 66.9445 13.503 66.8726C13.4662 66.7786 13.5126 66.6728 13.6066 66.6361C14.3218 66.3568 15.0368 66.1527 15.7317 66.0293C15.8311 66.0117 15.926 66.0777 15.9438 66.177C15.9614 66.2762 15.8952 66.3709 15.7958 66.3887C15.1245 66.5079 14.4326 66.7054 13.7399 66.9761C13.7178 66.9845 13.6953 66.9886 13.6732 66.9886ZM20.0447 66.7637C20.0219 66.7637 19.9986 66.7595 19.9763 66.7504C19.3314 66.4902 18.6386 66.3298 17.9175 66.2735C17.8167 66.2658 17.7416 66.1778 17.7494 66.0773C17.7572 65.9768 17.8456 65.9023 17.9458 65.9096C18.7046 65.9687 19.4337 66.1378 20.1131 66.4119C20.2068 66.4497 20.2521 66.5561 20.2142 66.6496C20.1855 66.7206 20.117 66.7637 20.0447 66.7637ZM1.71695 66.1725C1.62376 66.1725 1.54414 66.1017 1.53506 66.0073C1.46758 65.3 1.41958 64.5665 1.39268 63.8274C1.38902 63.7267 1.46794 63.6421 1.56879 63.6384C1.66976 63.6349 1.75446 63.7135 1.75811 63.8142C1.78477 64.5462 1.83207 65.2724 1.89895 65.9727C1.90851 66.0731 1.83479 66.1621 1.7344 66.1717C1.72862 66.1722 1.72273 66.1725 1.71695 66.1725ZM1.55452 61.8289C1.55346 61.8289 1.5524 61.8289 1.55157 61.8289C1.4506 61.8272 1.37003 61.7442 1.37168 61.6435C1.38301 60.9332 1.41214 60.1989 1.45827 59.4614C1.46464 59.3608 1.55181 59.2835 1.65219 59.2905C1.75292 59.2968 1.82948 59.3834 1.82311 59.4841C1.77734 60.2161 1.74856 60.9446 1.73724 61.6494C1.73558 61.749 1.65396 61.8289 1.55452 61.8289ZM1.82346 57.4872C1.81686 57.4872 1.81049 57.4869 1.80376 57.4861C1.70326 57.4754 1.63072 57.3855 1.64145 57.2852C1.71942 56.5578 1.81638 55.8295 1.92974 55.1204C1.94555 55.0207 2.03956 54.953 2.139 54.9689C2.23867 54.9848 2.30661 55.0784 2.29069 55.1779C2.1784 55.8808 2.08214 56.6029 2.00488 57.324C1.99497 57.4177 1.9157 57.4872 1.82346 57.4872ZM2.51139 53.1954C2.49865 53.1954 2.48556 53.194 2.47258 53.1913C2.37397 53.1699 2.31122 53.0728 2.33245 52.9743C2.48709 52.2602 2.66261 51.5466 2.85441 50.8536C2.88142 50.7564 2.98133 50.6992 3.07935 50.7262C3.17655 50.7531 3.23376 50.8536 3.20675 50.9507C3.01684 51.6372 2.84285 52.344 2.68986 53.0513C2.67134 53.137 2.59573 53.1954 2.51139 53.1954ZM3.67174 49.0078C3.65216 49.0078 3.63234 49.0047 3.61276 48.9979C3.51709 48.9656 3.46626 48.8618 3.49869 48.7663C3.73426 48.0768 3.99282 47.3887 4.26778 46.721C4.30599 46.6279 4.41298 46.5832 4.50617 46.6216C4.59959 46.6599 4.64418 46.7665 4.60572 46.8598C4.33395 47.5204 4.07786 48.2016 3.84478 48.8841C3.81883 48.9599 3.7477 49.0078 3.67174 49.0078ZM5.32633 44.9893C5.29943 44.9893 5.27242 44.9834 5.24659 44.9709C5.15564 44.9269 5.11801 44.8176 5.16201 44.727C5.48073 44.0728 5.82364 43.4222 6.18152 42.7933C6.23153 42.7057 6.343 42.6751 6.43076 42.7248C6.51852 42.7746 6.54919 42.886 6.49941 42.9736C6.14542 43.5957 5.80606 44.2393 5.49088 44.8866C5.45926 44.9515 5.39415 44.9893 5.32633 44.9893ZM7.47634 41.2118C7.44189 41.2118 7.40709 41.2021 7.37607 41.1818C7.29173 41.1264 7.26826 41.0132 7.3237 40.9291C7.72263 40.323 8.14692 39.7218 8.58466 39.1426C8.64553 39.062 8.76007 39.046 8.84087 39.1068C8.92143 39.1676 8.93736 39.2819 8.87661 39.3625C8.44347 39.9355 8.02378 40.5299 7.62933 41.1294C7.59418 41.1828 7.5359 41.2118 7.47634 41.2118ZM10.0978 37.7433C10.0556 37.7433 10.0131 37.7288 9.97857 37.6991C9.90201 37.6331 9.8934 37.5179 9.95946 37.4416C10.4332 36.8929 10.9318 36.3517 11.4415 35.833C11.5121 35.7609 11.628 35.7598 11.6999 35.8305C11.772 35.9012 11.7731 36.0166 11.7024 36.0886C11.1982 36.6017 10.7049 37.137 10.2362 37.68C10.2002 37.7218 10.1493 37.7433 10.0978 37.7433ZM13.1458 34.6405C13.0956 34.6405 13.0456 34.62 13.0097 34.5798C12.9422 34.5047 12.9484 34.3894 13.0235 34.3221C13.5614 33.84 14.1238 33.3669 14.695 32.9157C14.7741 32.8532 14.8891 32.8665 14.9518 32.9456C15.0144 33.0248 15.0011 33.1395 14.9219 33.2021C14.3566 33.6486 13.8 34.1168 13.2678 34.5938C13.2329 34.625 13.1893 34.6405 13.1458 34.6405ZM63.0826 33.4815C63.0366 33.4815 62.9908 33.4643 62.9553 33.4298C62.4447 32.934 61.9022 32.4504 61.3428 31.9922C61.2649 31.9282 61.2534 31.8133 61.3174 31.7353C61.3815 31.6573 61.4967 31.646 61.5748 31.7099C62.1422 32.1744 62.6923 32.6651 63.2102 33.1681C63.2825 33.2384 63.2841 33.354 63.2137 33.4263C63.1778 33.4631 63.1303 33.4815 63.0826 33.4815ZM16.555 31.9463C16.4972 31.9463 16.4403 31.9192 16.4049 31.868C16.3473 31.7855 16.3676 31.6716 16.4504 31.6141C17.044 31.2013 17.6602 30.7996 18.2817 30.4199C18.3681 30.3673 18.4806 30.3944 18.5331 30.4805C18.5857 30.5665 18.5587 30.6788 18.4724 30.7315C17.8569 31.1072 17.247 31.5049 16.6593 31.9136C16.6277 31.9357 16.5911 31.9463 16.555 31.9463ZM59.7206 30.7246C59.6847 30.7246 59.6484 30.7142 59.6166 30.6921C59.0319 30.2872 58.4185 29.8965 57.7932 29.5307C57.706 29.4796 57.6769 29.3678 57.7277 29.2809C57.7789 29.194 57.891 29.165 57.9779 29.2158C58.6111 29.5863 59.2326 29.982 59.8249 30.3922C59.9078 30.4495 59.9285 30.5633 59.871 30.6461C59.8355 30.6972 59.7785 30.7246 59.7206 30.7246ZM20.2668 29.6786C20.2015 29.6786 20.1384 29.6435 20.1054 29.5822C20.0579 29.4934 20.0914 29.3828 20.1805 29.3351C20.8176 28.9949 21.4764 28.667 22.1384 28.3605C22.2299 28.3181 22.3385 28.3577 22.3812 28.4493C22.4237 28.5408 22.3839 28.6492 22.2923 28.6918C21.6365 28.9954 20.984 29.3202 20.353 29.6571C20.3253 29.6717 20.2958 29.6786 20.2668 29.6786ZM55.9683 28.5258C55.9413 28.5258 55.9137 28.5197 55.8877 28.507C55.2487 28.1925 54.585 27.8937 53.9144 27.6188C53.821 27.5805 53.7764 27.4739 53.8147 27.3806C53.8531 27.2874 53.9597 27.2427 54.0531 27.2811C54.7313 27.5592 55.4028 27.8615 56.0492 28.1795C56.1398 28.2241 56.177 28.3336 56.1322 28.4239C56.1006 28.4884 56.0359 28.5258 55.9683 28.5258ZM24.2156 27.8488C24.1429 27.8488 24.0742 27.8052 24.0457 27.7337C24.0084 27.6401 24.0541 27.5339 24.1479 27.4965C24.8202 27.2291 25.5112 26.9758 26.2015 26.7436C26.2973 26.7112 26.4008 26.7628 26.433 26.8584C26.4652 26.9539 26.4138 27.0573 26.3182 27.0896C25.6341 27.3196 24.9494 27.5707 24.2831 27.8356C24.261 27.8447 24.2381 27.8488 24.2156 27.8488ZM51.9445 26.8725C51.9251 26.8725 51.9055 26.8696 51.8861 26.8629C51.2101 26.6353 50.5126 26.4245 49.8133 26.2361C49.7158 26.2098 49.6582 26.1098 49.6845 26.0125C49.7108 25.9152 49.8106 25.8575 49.9086 25.8837C50.615 26.0741 51.3197 26.2872 52.0028 26.517C52.0986 26.5492 52.1499 26.6528 52.1178 26.7484C52.0921 26.8245 52.0207 26.8725 51.9445 26.8725ZM28.3411 26.4603C28.2611 26.4603 28.1877 26.4074 28.1651 26.3266C28.1381 26.2296 28.1949 26.1289 28.2922 26.1019C28.9893 25.9078 29.7032 25.7291 30.4136 25.5707C30.512 25.5488 30.6099 25.6108 30.6319 25.7092C30.6539 25.8077 30.5917 25.9052 30.4933 25.9271C29.7889 26.084 29.0813 26.2611 28.3904 26.4536C28.374 26.4582 28.3574 26.4603 28.3411 26.4603ZM47.7431 25.7387C47.7308 25.7387 47.7182 25.7375 47.7058 25.7349C47.0054 25.5899 46.2876 25.4622 45.5722 25.3559C45.4724 25.3409 45.4035 25.2481 45.4183 25.1484C45.4333 25.0487 45.5256 24.9798 45.6261 24.9947C46.3483 25.1021 47.0729 25.2309 47.78 25.3774C47.8791 25.3979 47.9425 25.4945 47.9219 25.5932C47.9039 25.6794 47.8279 25.7387 47.7431 25.7387ZM32.5901 25.5132C32.5025 25.5132 32.4252 25.4502 32.4101 25.3612C32.3932 25.2618 32.4602 25.1674 32.5599 25.1507C33.2749 25.0298 34.0031 24.9258 34.7243 24.8418C34.8237 24.8298 34.9152 24.9016 34.9272 25.0018C34.9388 25.102 34.867 25.1925 34.7669 25.2043C34.0518 25.2876 33.3298 25.3906 32.6211 25.5108C32.6104 25.5123 32.6001 25.5132 32.5901 25.5132ZM43.4374 25.0969C43.4318 25.0969 43.4261 25.0965 43.4202 25.0959C42.7061 25.0295 41.9782 24.9813 41.2569 24.953C41.1561 24.949 41.0775 24.864 41.0816 24.7635C41.0855 24.6626 41.1699 24.5853 41.2714 24.5883C41.9991 24.6169 42.7336 24.6655 43.4541 24.7326C43.5547 24.742 43.6285 24.8311 43.6191 24.9314C43.6105 25.0258 43.5307 25.0969 43.4374 25.0969ZM36.9127 25.009C36.8171 25.009 36.7367 24.9349 36.7304 24.8384C36.7239 24.7378 36.8003 24.6509 36.9009 24.6445C37.6257 24.5975 38.3604 24.5689 39.085 24.5595C39.0859 24.5595 39.0868 24.5595 39.0875 24.5595C39.1873 24.5595 39.2689 24.6397 39.2702 24.7395C39.2716 24.8404 39.1908 24.9232 39.0899 24.9243C38.3715 24.9338 37.643 24.962 36.9248 25.0087C36.9208 25.0089 36.9167 25.009 36.9127 25.009Z" fill="#2E2E46"/>
<path d="M70.1074 111.376C70.0345 111.376 69.9656 111.332 69.9373 111.26C69.9004 111.166 69.9464 111.061 70.0403 111.023C70.6898 110.768 71.0461 110.614 71.0497 110.612C71.1423 110.572 71.2499 110.614 71.2901 110.707C71.3303 110.799 71.2879 110.907 71.1953 110.947C71.1917 110.949 70.8303 111.105 70.1744 111.363C70.1522 111.372 70.1296 111.376 70.1074 111.376Z" fill="#2E2E46"/>
<path d="M80.2035 33.8864C80.1901 33.8864 80.1765 33.8849 80.1631 33.8818C80.0645 33.8597 80.0027 33.7619 80.0249 33.6636C80.1056 33.3072 80.2043 32.9464 80.3188 32.592C80.35 32.4961 80.4527 32.4433 80.549 32.4743C80.6449 32.5053 80.6977 32.6083 80.6667 32.7041C80.5557 33.0481 80.4596 33.398 80.3815 33.7439C80.3625 33.8287 80.287 33.8864 80.2035 33.8864Z" fill="#2E2E46"/>
<path d="M129.275 85.418C129.202 85.418 129.132 85.3731 129.104 85.3002C129.069 85.2058 129.116 85.1005 129.211 85.0647C129.857 84.8197 130.512 84.5179 131.156 84.1676C131.244 84.1194 131.355 84.1521 131.404 84.2406C131.452 84.3291 131.419 84.4399 131.331 84.4882C130.672 84.8465 130.003 85.1553 129.34 85.4062C129.319 85.4142 129.297 85.418 129.275 85.418ZM133.078 83.3589C133.022 83.3589 132.965 83.3324 132.93 83.2828C132.871 83.201 132.89 83.0869 132.972 83.0281C133.553 82.6118 134.112 82.157 134.635 81.6761C134.709 81.6077 134.825 81.6125 134.893 81.6867C134.962 81.7608 134.957 81.8762 134.883 81.9445C134.349 82.4355 133.778 82.8998 133.185 83.3248C133.153 83.3477 133.115 83.3589 133.078 83.3589ZM136.257 80.43C136.215 80.43 136.174 80.4158 136.139 80.387C136.062 80.3221 136.052 80.2069 136.117 80.1298C136.579 79.5825 137.006 79.0033 137.388 78.4077C137.442 78.3227 137.555 78.2979 137.64 78.3522C137.725 78.4066 137.75 78.5195 137.696 78.6044C137.306 79.2133 136.869 79.8056 136.397 80.365C136.361 80.4078 136.309 80.43 136.257 80.43ZM138.584 76.7931C138.558 76.7931 138.532 76.7876 138.507 76.776C138.415 76.7336 138.375 76.6251 138.418 76.5336C138.717 75.8912 138.975 75.2202 139.187 74.5387C139.217 74.4425 139.32 74.3886 139.416 74.4185C139.512 74.4484 139.566 74.5506 139.536 74.6469C139.32 75.3437 139.055 76.0302 138.75 76.6872C138.719 76.7539 138.653 76.7931 138.584 76.7931ZM139.867 72.6735C139.856 72.6735 139.846 72.6725 139.835 72.6708C139.736 72.6536 139.669 72.5591 139.686 72.4598C139.806 71.7694 139.885 71.0538 139.922 70.3329C139.927 70.2324 140.011 70.1559 140.114 70.1598C140.214 70.165 140.292 70.2506 140.287 70.3514C140.25 71.0869 140.169 71.8171 140.046 72.522C140.031 72.6108 139.954 72.6735 139.867 72.6735ZM140.094 68.3621C139.998 68.3621 139.917 68.2873 139.911 68.1903C139.87 67.4941 139.792 66.7762 139.679 66.0571C139.663 65.9574 139.731 65.864 139.831 65.8485C139.931 65.8328 140.025 65.9008 140.04 66.0004C140.155 66.7314 140.234 67.4609 140.276 68.169C140.282 68.2696 140.205 68.356 140.104 68.3619C140.101 68.362 140.097 68.3621 140.094 68.3621ZM139.43 64.0903C139.348 64.0903 139.273 64.0344 139.252 63.9513C139.086 63.2738 138.886 62.5783 138.659 61.8842C138.627 61.7884 138.68 61.6853 138.776 61.654C138.872 61.6229 138.975 61.6751 139.006 61.7708C139.236 62.4735 139.438 63.1777 139.608 63.864C139.632 63.9619 139.572 64.0607 139.474 64.0848C139.459 64.0886 139.444 64.0903 139.43 64.0903ZM138.118 59.9669C138.041 59.9669 137.969 59.918 137.944 59.8411C137.715 59.1441 137.523 58.4352 137.373 57.7342C137.351 57.6356 137.414 57.5386 137.513 57.5174C137.612 57.4964 137.709 57.5591 137.73 57.6577C137.878 58.3463 138.067 59.0427 138.291 59.7275C138.323 59.8232 138.27 59.9263 138.174 59.9577C138.156 59.964 138.136 59.9669 138.118 59.9669ZM137.215 55.7414C137.122 55.7414 137.043 55.6712 137.033 55.577C136.971 54.9533 136.939 54.3216 136.939 53.6995C136.939 53.5977 136.94 53.4962 136.942 53.395C136.943 53.2952 137.025 53.2154 137.125 53.2154C137.126 53.2154 137.127 53.2154 137.127 53.2155C137.228 53.2172 137.309 53.3001 137.307 53.4009C137.306 53.5002 137.305 53.5997 137.305 53.6995C137.305 54.3096 137.336 54.929 137.397 55.5409C137.407 55.6412 137.334 55.7306 137.233 55.7406C137.227 55.7412 137.221 55.7414 137.215 55.7414ZM137.288 51.4248C137.28 51.4248 137.272 51.4242 137.263 51.4232C137.163 51.4096 137.093 51.3176 137.106 51.2178C137.204 50.4985 137.346 49.7774 137.528 49.0744C137.554 48.9769 137.653 48.9183 137.751 48.9435C137.849 48.9689 137.908 49.0685 137.882 49.166C137.704 49.855 137.564 50.5618 137.469 51.2669C137.456 51.3584 137.378 51.4248 137.288 51.4248ZM152.44 51.1451C152.341 51.1451 152.259 51.0653 152.258 50.9657C152.256 50.865 152.336 50.7817 152.437 50.7801C153.168 50.7677 153.887 50.7106 154.574 50.6105C154.674 50.5958 154.766 50.6649 154.781 50.7649C154.796 50.8647 154.727 50.9572 154.626 50.9718C153.924 51.0742 153.189 51.1325 152.444 51.1452C152.442 51.1451 152.442 51.1451 152.44 51.1451ZM150.275 51.0575C150.27 51.0575 150.264 51.0571 150.258 51.0565C149.542 50.9875 148.814 50.8783 148.096 50.7318C147.997 50.7117 147.933 50.6153 147.953 50.5165C147.973 50.4177 148.069 50.3537 148.169 50.3742C148.875 50.5181 149.589 50.6254 150.293 50.6932C150.393 50.7028 150.467 50.7921 150.457 50.8923C150.448 50.9867 150.369 51.0575 150.275 51.0575ZM156.714 50.5041C156.636 50.5041 156.564 50.4536 156.54 50.3752C156.51 50.2788 156.564 50.1766 156.661 50.1469C157.374 49.9277 158.035 49.6536 158.625 49.3322C158.714 49.2837 158.825 49.3166 158.874 49.405C158.922 49.4935 158.889 49.6043 158.801 49.6527C158.189 49.9857 157.505 50.2694 156.768 50.4959C156.75 50.5014 156.732 50.5041 156.714 50.5041ZM146.034 50.1963C146.016 50.1963 145.997 50.1937 145.979 50.188C145.288 49.9729 144.598 49.7203 143.928 49.4373C143.835 49.3981 143.791 49.2909 143.83 49.1982C143.87 49.1053 143.977 49.0618 144.07 49.1011C144.729 49.3794 145.408 49.628 146.088 49.8396C146.184 49.8695 146.238 49.9719 146.208 50.0681C146.184 50.1463 146.111 50.1963 146.034 50.1963ZM142.046 48.5131C142.017 48.5131 141.987 48.5059 141.959 48.4908C141.323 48.1457 140.694 47.765 140.092 47.3596C140.008 47.3032 139.986 47.1899 140.043 47.1063C140.099 47.0227 140.213 47.0006 140.296 47.0569C140.889 47.4559 141.507 47.8303 142.134 48.17C142.223 48.2181 142.255 48.329 142.207 48.4175C142.174 48.4784 142.111 48.5131 142.046 48.5131ZM160.454 48.3992C160.408 48.3992 160.361 48.3814 160.325 48.3457C160.254 48.2744 160.254 48.1588 160.325 48.0876C160.847 47.5667 161.237 46.988 161.485 46.3676C161.523 46.2741 161.629 46.2282 161.723 46.2656C161.817 46.3029 161.862 46.4092 161.825 46.5028C161.559 47.1697 161.141 47.7899 160.583 48.3458C160.548 48.3813 160.501 48.3992 160.454 48.3992ZM138.371 47.2447C138.349 47.2447 138.327 47.2408 138.305 47.2323C138.211 47.1957 138.165 47.0899 138.201 46.9959C138.465 46.3206 138.772 45.6527 139.114 45.0105C139.161 44.9216 139.272 44.8878 139.361 44.935C139.45 44.9823 139.484 45.0928 139.436 45.1819C139.101 45.8114 138.8 46.4663 138.542 47.1284C138.514 47.2005 138.445 47.2447 138.371 47.2447ZM138.457 46.0977C138.416 46.0977 138.375 46.0841 138.341 46.0561C137.783 45.598 137.238 45.1063 136.721 44.5944C136.65 44.5234 136.649 44.4078 136.72 44.3363C136.791 44.2647 136.907 44.2643 136.979 44.3353C137.487 44.839 138.024 45.3232 138.574 45.7741C138.651 45.8382 138.663 45.9532 138.599 46.0311C138.562 46.0749 138.51 46.0977 138.457 46.0977ZM161.978 44.4981C161.883 44.4981 161.803 44.4244 161.796 44.3283C161.75 43.6755 161.575 42.9937 161.275 42.3019C161.234 42.2094 161.277 42.1018 161.37 42.0618C161.462 42.0217 161.57 42.0641 161.61 42.1567C161.927 42.8867 162.112 43.6088 162.161 44.3031C162.168 44.4037 162.092 44.4909 161.991 44.4977C161.987 44.4981 161.982 44.4981 161.978 44.4981ZM140.402 43.4306C140.366 43.4306 140.33 43.4203 140.298 43.3984C140.215 43.341 140.194 43.2273 140.251 43.1445C140.666 42.5455 141.119 41.9664 141.598 41.4227C141.665 41.3472 141.781 41.3397 141.857 41.4063C141.932 41.4729 141.94 41.5883 141.873 41.664C141.403 42.197 140.959 42.7649 140.552 43.3521C140.517 43.4033 140.459 43.4306 140.402 43.4306ZM135.383 43.0559C135.331 43.0559 135.279 43.0337 135.243 42.9908C134.78 42.4413 134.332 41.8599 133.913 41.2631C133.855 41.1806 133.875 41.0668 133.958 41.0088C134.04 40.951 134.154 40.9709 134.212 41.0534C134.626 41.6415 135.067 42.2143 135.522 42.7559C135.587 42.833 135.578 42.9482 135.5 43.0131C135.466 43.0418 135.424 43.0559 135.383 43.0559ZM160.357 40.543C160.3 40.543 160.244 40.5166 160.209 40.467C159.781 39.8739 159.31 39.3346 158.81 38.8644C158.737 38.7952 158.733 38.6797 158.802 38.6064C158.872 38.5329 158.987 38.5296 159.061 38.5986C159.578 39.0849 160.064 39.6418 160.505 40.254C160.564 40.3356 160.546 40.4497 160.464 40.5086C160.432 40.5317 160.394 40.543 160.357 40.543ZM143.262 40.1898C143.211 40.1898 143.161 40.1693 143.125 40.1288C143.058 40.0536 143.064 39.9383 143.14 39.8711C143.689 39.3814 144.268 38.9265 144.861 38.5191C144.944 38.4618 145.058 38.4829 145.115 38.566C145.172 38.6489 145.151 38.7625 145.068 38.8197C144.488 39.2185 143.921 39.6637 143.383 40.1433C143.349 40.1747 143.305 40.1898 143.262 40.1898ZM132.894 39.52C132.831 39.52 132.77 39.4876 132.736 39.4295C132.374 38.8124 132.029 38.1659 131.711 37.5081C131.667 37.4174 131.705 37.3082 131.795 37.2643C131.886 37.2204 131.996 37.2584 132.04 37.3492C132.354 37.9984 132.695 38.6364 133.051 39.2454C133.102 39.3325 133.073 39.4442 132.986 39.4951C132.957 39.512 132.925 39.52 132.894 39.52ZM146.828 37.7485C146.761 37.7485 146.696 37.7116 146.664 37.6479C146.619 37.5578 146.655 37.4481 146.745 37.4029C147.411 37.0685 148.094 36.7877 148.774 36.5684C148.87 36.5374 148.973 36.5902 149.004 36.6861C149.035 36.7818 148.982 36.8849 148.886 36.9159C148.224 37.1294 147.559 37.4031 146.91 37.7289C146.883 37.7422 146.855 37.7485 146.828 37.7485ZM157.208 37.6138C157.177 37.6138 157.145 37.6058 157.116 37.5885C156.505 37.2292 155.852 36.9427 155.175 36.7373C155.079 36.7079 155.025 36.606 155.054 36.5095C155.083 36.4129 155.185 36.3587 155.282 36.388C155.986 36.6017 156.665 36.9 157.302 37.2739C157.388 37.3252 157.417 37.437 157.366 37.5238C157.332 37.5818 157.271 37.6138 157.208 37.6138ZM150.939 36.4393C150.849 36.4395 150.77 36.373 150.758 36.2816C150.744 36.1817 150.814 36.0896 150.914 36.0761C151.656 35.9745 152.399 35.947 153.113 35.9951C153.214 36.0018 153.29 36.0888 153.283 36.1894C153.276 36.29 153.191 36.3661 153.089 36.3591C152.399 36.3126 151.681 36.3392 150.964 36.4376C150.955 36.4389 150.947 36.4393 150.939 36.4393ZM131.004 35.6308C130.931 35.6308 130.862 35.5872 130.834 35.5155C130.571 34.8527 130.324 34.1636 130.1 33.4672C130.07 33.3712 130.123 33.2683 130.219 33.2376C130.315 33.2066 130.418 33.2597 130.449 33.3557C130.669 34.0445 130.913 34.7258 131.174 35.3808C131.211 35.4745 131.165 35.5806 131.071 35.6178C131.049 35.6266 131.026 35.6308 131.004 35.6308ZM129.588 31.5423C129.514 31.5423 129.444 31.4973 129.417 31.4243C129.161 30.7482 128.875 30.0852 128.566 29.4538C128.522 29.3631 128.56 29.2539 128.651 29.2098C128.742 29.1656 128.851 29.2032 128.895 29.2939C129.208 29.9353 129.499 30.6086 129.759 31.2953C129.795 31.3896 129.747 31.4949 129.653 31.5306C129.631 31.5385 129.609 31.5423 129.588 31.5423ZM81.3262 30.8351C81.2981 30.8351 81.2697 30.8285 81.2428 30.8149C81.1529 30.7688 81.1176 30.6588 81.1637 30.5692C81.4877 29.9392 81.8703 29.3102 82.3012 28.6996C82.3591 28.6172 82.4733 28.5973 82.5558 28.6554C82.6384 28.7134 82.6583 28.8273 82.6 28.9097C82.1791 29.5066 81.8052 30.121 81.4891 30.736C81.4565 30.7989 81.3925 30.8351 81.3262 30.8351ZM127.687 27.6618C127.626 27.6618 127.566 27.6311 127.531 27.5752C127.154 26.9648 126.742 26.3723 126.309 25.8141C126.247 25.7343 126.261 25.6197 126.341 25.5579C126.421 25.4961 126.536 25.5107 126.598 25.5903C127.039 26.1587 127.458 26.762 127.842 27.3832C127.895 27.4691 127.869 27.5816 127.783 27.6346C127.753 27.653 127.72 27.6618 127.687 27.6618ZM83.8028 27.2974C83.7593 27.2974 83.7158 27.282 83.6807 27.2507C83.6056 27.1834 83.5994 27.0681 83.6669 26.993C84.1402 26.4668 84.6589 25.9466 85.2091 25.4469C85.2836 25.379 85.3994 25.3848 85.4673 25.4592C85.5351 25.5339 85.5297 25.6492 85.455 25.7169C84.914 26.2084 84.4039 26.7199 83.9388 27.237C83.9028 27.2769 83.8528 27.2974 83.8028 27.2974ZM86.999 24.381C86.9438 24.381 86.8893 24.3563 86.8533 24.3092C86.7921 24.2289 86.8078 24.1144 86.8882 24.0534C87.4538 23.6234 88.0553 23.2028 88.6753 22.8036C88.7603 22.7488 88.8732 22.7733 88.9281 22.858C88.9827 22.9428 88.9584 23.0558 88.8734 23.1103C88.2614 23.5046 87.6678 23.9196 87.1095 24.3439C87.0764 24.3688 87.0374 24.381 86.999 24.381ZM125.035 24.2507C124.987 24.2507 124.939 24.232 124.903 24.1949C124.408 23.684 123.878 23.1946 123.328 22.7404C123.251 22.6761 123.24 22.561 123.304 22.4834C123.368 22.4056 123.483 22.3948 123.561 22.459C124.121 22.9219 124.661 23.4204 125.166 23.941C125.236 24.0134 125.234 24.1291 125.162 24.1991C125.126 24.2337 125.08 24.2507 125.035 24.2507ZM90.6369 22.032C90.5724 22.032 90.51 21.9979 90.4766 21.9375C90.428 21.849 90.4603 21.7381 90.5489 21.6895C91.1764 21.3453 91.8306 21.0142 92.493 20.7052C92.5847 20.6627 92.6934 20.7021 92.7361 20.7933C92.7788 20.8846 92.7391 20.9932 92.6477 21.0361C91.9925 21.3416 91.3456 21.6692 90.7248 22.0097C90.6968 22.0248 90.6666 22.032 90.6369 22.032ZM121.703 21.4965C121.669 21.4965 121.634 21.4868 121.603 21.4663C121.012 21.0778 120.389 20.713 119.752 20.3821C119.662 20.3357 119.627 20.2254 119.674 20.136C119.72 20.0465 119.83 20.0116 119.92 20.0582C120.569 20.3948 121.203 20.766 121.804 21.1615C121.888 21.217 121.912 21.3302 121.856 21.4143C121.821 21.4676 121.763 21.4965 121.703 21.4965ZM94.5625 20.1982C94.4895 20.1982 94.4206 20.1543 94.3923 20.0825C94.3554 19.9888 94.4015 19.8828 94.4954 19.8458C95.1651 19.5825 95.8545 19.3346 96.5453 19.1094C96.6418 19.0779 96.7444 19.1304 96.7758 19.2262C96.8071 19.3219 96.7547 19.425 96.6588 19.4564C95.9751 19.6795 95.2922 19.9248 94.6294 20.1855C94.6075 20.1941 94.5846 20.1982 94.5625 20.1982ZM117.866 19.5021C117.843 19.5021 117.82 19.4979 117.798 19.489C117.144 19.2272 116.46 18.9898 115.767 18.7833C115.67 18.7545 115.615 18.6528 115.644 18.5562C115.673 18.4595 115.775 18.4047 115.871 18.4335C116.575 18.643 117.269 18.8843 117.934 19.1502C118.028 19.1877 118.073 19.2939 118.036 19.3875C118.007 19.4587 117.939 19.5021 117.866 19.5021ZM98.6814 18.8537C98.6002 18.8537 98.5262 18.7996 98.5047 18.7176C98.4789 18.6201 98.5372 18.5203 98.6349 18.4946C99.3353 18.3105 100.049 18.1452 100.757 18.0029C100.856 17.9829 100.952 18.0471 100.972 18.1458C100.992 18.2446 100.928 18.3408 100.829 18.3607C100.129 18.5017 99.4214 18.6654 98.7278 18.8476C98.7122 18.8519 98.6967 18.8537 98.6814 18.8537ZM113.717 18.2618C113.705 18.2618 113.692 18.2605 113.68 18.2579C112.989 18.1142 112.274 17.9949 111.555 17.9031C111.455 17.8904 111.384 17.799 111.397 17.699C111.41 17.5989 111.502 17.5281 111.602 17.5411C112.33 17.634 113.054 17.755 113.754 17.9006C113.853 17.921 113.917 18.0177 113.896 18.1164C113.878 18.2025 113.802 18.2618 113.717 18.2618ZM102.93 18.0002C102.84 18.0002 102.762 17.9342 102.749 17.8431C102.735 17.7432 102.805 17.651 102.905 17.637C103.626 17.5361 104.355 17.4568 105.071 17.4009C105.172 17.3928 105.26 17.4683 105.268 17.5688C105.276 17.6692 105.201 17.7571 105.1 17.765C104.391 17.8202 103.669 17.8988 102.956 17.9985C102.947 17.9996 102.939 18.0002 102.93 18.0002ZM109.419 17.7093C109.416 17.7093 109.412 17.7092 109.409 17.709C108.701 17.6705 107.975 17.656 107.254 17.6659C107.15 17.6644 107.07 17.5868 107.069 17.4859C107.067 17.3851 107.148 17.3022 107.249 17.3008C107.979 17.291 108.712 17.3056 109.429 17.3445C109.529 17.3499 109.607 17.436 109.601 17.5366C109.596 17.634 109.515 17.7093 109.419 17.7093Z" fill="#2E2E46"/>
<path d="M126.06 86.1163C125.959 86.1163 125.877 86.0345 125.877 85.9337C125.877 85.8329 125.959 85.7511 126.06 85.7511C126.379 85.7511 126.736 85.7179 127.12 85.6522C127.22 85.6352 127.314 85.7021 127.331 85.8014C127.348 85.9008 127.281 85.9952 127.182 86.012C126.777 86.0812 126.4 86.1163 126.06 86.1163Z" fill="#2E2E46"/>
<path d="M93.3157 36.7154C93.3115 36.7154 93.3071 36.7153 93.3027 36.7149C92.9421 36.6896 92.5747 36.6664 92.2107 36.6462C92.1098 36.6405 92.0327 36.5544 92.0384 36.4537C92.0439 36.353 92.1333 36.2764 92.231 36.2816C92.597 36.302 92.9661 36.3253 93.3285 36.3508C93.4292 36.3579 93.505 36.4451 93.498 36.5456C93.4912 36.6419 93.4109 36.7154 93.3157 36.7154Z" fill="#2E2E46"/>
<path d="M127.886 141.034C127.734 141.034 127.581 141.033 127.427 141.03C127.326 141.028 127.246 140.945 127.247 140.845C127.249 140.745 127.331 140.665 127.43 140.665C127.431 140.665 127.432 140.665 127.433 140.665C128.163 140.677 128.894 140.66 129.614 140.613C129.716 140.606 129.801 140.682 129.808 140.783C129.815 140.884 129.738 140.97 129.638 140.977C129.059 141.015 128.47 141.034 127.886 141.034ZM125.237 140.905C125.232 140.905 125.226 140.905 125.22 140.904C124.495 140.834 123.758 140.734 123.029 140.606C122.93 140.589 122.863 140.494 122.881 140.395C122.898 140.296 122.993 140.23 123.092 140.247C123.812 140.373 124.54 140.472 125.255 140.541C125.356 140.551 125.429 140.64 125.419 140.74C125.41 140.835 125.331 140.905 125.237 140.905ZM131.808 140.743C131.719 140.743 131.641 140.678 131.628 140.588C131.612 140.488 131.681 140.395 131.781 140.38C132.498 140.273 133.218 140.133 133.921 139.966C134.019 139.942 134.118 140.003 134.141 140.101C134.165 140.199 134.104 140.298 134.006 140.321C133.292 140.491 132.562 140.632 131.836 140.741C131.826 140.742 131.817 140.743 131.808 140.743ZM120.909 140.174C120.895 140.174 120.881 140.173 120.867 140.169C120.149 140.004 119.43 139.818 118.732 139.617C118.635 139.589 118.579 139.488 118.607 139.391C118.635 139.294 118.737 139.238 118.834 139.266C119.525 139.466 120.237 139.65 120.949 139.814C121.048 139.836 121.109 139.934 121.087 140.032C121.067 140.117 120.992 140.174 120.909 140.174ZM136.076 139.728C135.999 139.728 135.928 139.68 135.902 139.603C135.871 139.507 135.923 139.404 136.019 139.372C136.705 139.146 137.392 138.888 138.059 138.605C138.152 138.565 138.259 138.609 138.299 138.701C138.338 138.794 138.295 138.901 138.202 138.941C137.526 139.228 136.829 139.49 136.133 139.719C136.114 139.725 136.095 139.728 136.076 139.728ZM116.691 138.956C116.671 138.956 116.651 138.953 116.631 138.946C115.937 138.702 115.244 138.436 114.572 138.154C114.478 138.115 114.435 138.009 114.474 137.916C114.513 137.823 114.619 137.779 114.713 137.818C115.379 138.096 116.065 138.36 116.752 138.601C116.847 138.635 116.897 138.739 116.864 138.834C116.838 138.909 116.767 138.956 116.691 138.956ZM140.114 138.014C140.048 138.014 139.985 137.979 139.952 137.917C139.905 137.827 139.939 137.717 140.029 137.67C140.668 137.334 141.302 136.966 141.915 136.577C142.001 136.523 142.114 136.548 142.168 136.633C142.222 136.718 142.197 136.831 142.112 136.885C141.49 137.279 140.847 137.652 140.199 137.993C140.172 138.007 140.143 138.014 140.114 138.014ZM112.643 137.261C112.616 137.261 112.588 137.255 112.562 137.243C111.904 136.919 111.247 136.572 110.612 136.211C110.524 136.161 110.494 136.05 110.543 135.962C110.593 135.875 110.705 135.844 110.793 135.894C111.422 136.251 112.071 136.595 112.724 136.915C112.814 136.959 112.852 137.069 112.807 137.159C112.775 137.224 112.71 137.261 112.643 137.261ZM143.817 135.664C143.761 135.664 143.707 135.639 143.671 135.591C143.61 135.511 143.626 135.396 143.707 135.336C144.283 134.902 144.851 134.438 145.395 133.957C145.47 133.89 145.586 133.897 145.653 133.972C145.72 134.048 145.713 134.163 145.637 134.23C145.086 134.717 144.511 135.187 143.927 135.627C143.894 135.652 143.855 135.664 143.817 135.664ZM108.827 135.092C108.793 135.092 108.758 135.083 108.727 135.063C108.115 134.663 107.506 134.238 106.917 133.801C106.836 133.741 106.819 133.627 106.879 133.546C106.939 133.465 107.054 133.448 107.135 133.508C107.718 133.941 108.321 134.361 108.927 134.757C109.012 134.812 109.036 134.925 108.98 135.01C108.945 135.063 108.887 135.092 108.827 135.092ZM147.101 132.759C147.055 132.759 147.009 132.742 146.974 132.708C146.901 132.638 146.899 132.522 146.969 132.45C147.472 131.929 147.961 131.383 148.422 130.825C148.487 130.748 148.602 130.737 148.68 130.801C148.758 130.865 148.768 130.98 148.704 131.058C148.237 131.623 147.741 132.176 147.232 132.703C147.196 132.74 147.148 132.759 147.101 132.759ZM105.304 132.475C105.262 132.475 105.221 132.461 105.186 132.432C104.627 131.961 104.073 131.467 103.541 130.961C103.468 130.892 103.465 130.776 103.535 130.703C103.604 130.63 103.72 130.627 103.793 130.697C104.32 131.197 104.868 131.687 105.422 132.153C105.499 132.218 105.509 132.333 105.444 132.41C105.408 132.453 105.356 132.475 105.304 132.475ZM102.12 129.453C102.071 129.453 102.023 129.434 101.987 129.395C101.488 128.862 100.996 128.306 100.526 127.742C100.462 127.664 100.472 127.549 100.55 127.484C100.627 127.42 100.743 127.431 100.808 127.508C101.273 128.067 101.76 128.618 102.254 129.146C102.323 129.22 102.319 129.335 102.245 129.404C102.21 129.437 102.165 129.453 102.12 129.453ZM149.895 129.38C149.859 129.38 149.822 129.369 149.79 129.346C149.708 129.288 149.688 129.175 149.746 129.092C150.164 128.498 150.562 127.882 150.929 127.261C150.981 127.174 151.093 127.146 151.18 127.197C151.267 127.248 151.296 127.36 151.244 127.447C150.872 128.076 150.469 128.7 150.045 129.302C150.009 129.353 149.953 129.38 149.895 129.38ZM99.3104 126.081C99.2543 126.081 99.1992 126.055 99.1632 126.007C98.7272 125.418 98.3025 124.809 97.9012 124.197C97.8457 124.113 97.8695 123.999 97.9539 123.944C98.0384 123.889 98.1516 123.912 98.2071 123.997C98.6046 124.603 99.0253 125.206 99.4574 125.789C99.5173 125.871 99.5002 125.985 99.4191 126.045C99.3862 126.069 99.3482 126.081 99.3104 126.081ZM152.128 125.605C152.101 125.605 152.074 125.599 152.048 125.586C151.957 125.542 151.919 125.433 151.963 125.342C152.282 124.687 152.576 124.015 152.836 123.346C152.872 123.252 152.978 123.205 153.072 123.241C153.166 123.278 153.213 123.383 153.177 123.478C152.914 124.156 152.616 124.838 152.292 125.502C152.26 125.567 152.195 125.605 152.128 125.605ZM96.9026 122.41C96.8392 122.41 96.7776 122.377 96.7438 122.318C96.3728 121.675 96.0209 121.021 95.6982 120.374C95.6531 120.284 95.69 120.174 95.7803 120.129C95.8705 120.084 95.9804 120.121 96.0254 120.211C96.345 120.851 96.6932 121.499 97.0607 122.136C97.111 122.223 97.0809 122.335 96.9935 122.385C96.9647 122.402 96.9334 122.41 96.9026 122.41ZM153.71 121.516C153.693 121.516 153.676 121.514 153.659 121.509C153.562 121.481 153.506 121.38 153.534 121.283C153.737 120.582 153.909 119.87 154.043 119.167C154.062 119.068 154.158 119.003 154.257 119.022C154.357 119.041 154.422 119.137 154.403 119.236C154.266 119.95 154.092 120.672 153.885 121.384C153.862 121.464 153.789 121.516 153.71 121.516ZM154.53 117.213C154.525 117.213 154.519 117.212 154.514 117.212C154.413 117.203 154.339 117.114 154.348 117.014C154.405 116.392 154.433 115.768 154.433 115.158C154.433 115.052 154.432 114.947 154.431 114.842C154.429 114.741 154.509 114.658 154.61 114.657C154.611 114.657 154.612 114.657 154.613 114.657C154.713 114.657 154.794 114.736 154.796 114.836C154.798 114.943 154.798 115.05 154.799 115.157C154.799 115.779 154.77 116.414 154.712 117.046C154.704 117.141 154.624 117.213 154.53 117.213ZM154.455 112.835C154.364 112.835 154.286 112.768 154.274 112.676C154.18 111.954 154.042 111.237 153.864 110.545C153.839 110.447 153.898 110.348 153.996 110.323C154.094 110.298 154.193 110.357 154.218 110.454C154.399 111.16 154.54 111.892 154.636 112.629C154.649 112.729 154.579 112.82 154.479 112.833C154.471 112.835 154.463 112.835 154.455 112.835ZM153.363 108.597C153.29 108.597 153.222 108.554 153.193 108.482C152.926 107.81 152.613 107.151 152.262 106.523C152.213 106.435 152.244 106.324 152.333 106.274C152.421 106.225 152.532 106.257 152.581 106.345C152.94 106.987 153.26 107.661 153.533 108.347C153.57 108.441 153.524 108.547 153.43 108.584C153.408 108.593 153.385 108.597 153.363 108.597ZM139.334 106.633C138.768 106.633 138.235 106.547 137.751 106.378C137.656 106.345 137.606 106.241 137.639 106.145C137.672 106.05 137.777 106 137.872 106.033C138.489 106.249 139.196 106.316 139.959 106.233C140.06 106.221 140.15 106.294 140.161 106.394C140.172 106.494 140.1 106.584 139.999 106.596C139.773 106.62 139.549 106.633 139.334 106.633ZM142.1 106.048C142.027 106.048 141.958 106.004 141.93 105.932C141.893 105.839 141.939 105.733 142.033 105.696C142.653 105.453 143.306 105.13 143.973 104.735C144.06 104.684 144.172 104.712 144.223 104.799C144.275 104.886 144.246 104.998 144.159 105.049C143.475 105.454 142.805 105.786 142.166 106.036C142.145 106.044 142.122 106.048 142.1 106.048ZM136.056 105.123C136.001 105.123 135.947 105.099 135.911 105.052C135.462 104.469 135.16 103.748 135.036 102.966C135.02 102.867 135.088 102.773 135.188 102.758C135.288 102.743 135.382 102.81 135.397 102.91C135.512 103.631 135.789 104.295 136.201 104.829C136.263 104.909 136.248 105.024 136.168 105.085C136.134 105.111 136.095 105.123 136.056 105.123ZM151.229 104.775C151.174 104.775 151.119 104.75 151.083 104.701C150.656 104.127 150.184 103.57 149.68 103.045C149.61 102.973 149.612 102.857 149.685 102.787C149.758 102.717 149.874 102.72 149.943 102.793C150.458 103.328 150.94 103.897 151.376 104.484C151.436 104.565 151.419 104.679 151.338 104.739C151.306 104.763 151.267 104.775 151.229 104.775ZM145.889 103.852C145.833 103.852 145.779 103.827 145.743 103.779C145.682 103.699 145.698 103.585 145.778 103.524C146.34 103.099 146.865 102.601 147.34 102.045C147.406 101.968 147.521 101.959 147.598 102.024C147.675 102.089 147.684 102.205 147.619 102.281C147.127 102.858 146.582 103.374 145.999 103.815C145.966 103.84 145.927 103.852 145.889 103.852ZM148.2 101.613C148.159 101.613 148.118 101.599 148.084 101.571C148.018 101.517 147.951 101.464 147.884 101.41C147.364 100.994 146.845 100.607 146.342 100.26C146.259 100.203 146.238 100.089 146.296 100.006C146.353 99.9233 146.467 99.9024 146.55 99.9598C147.06 100.312 147.586 100.704 148.113 101.125C148.181 101.179 148.249 101.234 148.316 101.289C148.394 101.353 148.405 101.468 148.341 101.546C148.305 101.59 148.252 101.613 148.2 101.613ZM135.35 100.948C135.334 100.948 135.317 100.945 135.3 100.941C135.203 100.913 135.147 100.812 135.175 100.715C135.39 99.964 135.774 99.2836 136.287 98.7469C136.356 98.6739 136.472 98.6712 136.545 98.7407C136.618 98.8101 136.621 98.9257 136.551 98.9986C136.08 99.4928 135.725 100.121 135.526 100.815C135.503 100.895 135.43 100.948 135.35 100.948ZM148.736 100.55C148.705 100.55 148.674 100.542 148.645 100.526C148.557 100.476 148.527 100.364 148.577 100.277C148.922 99.6744 149.233 99.0159 149.501 98.3201C149.538 98.2258 149.643 98.1792 149.738 98.2151C149.832 98.2514 149.879 98.3569 149.843 98.451C149.568 99.1643 149.249 99.8397 148.895 100.458C148.861 100.517 148.799 100.55 148.736 100.55ZM144.579 99.1382C144.549 99.1382 144.519 99.131 144.492 99.116C143.814 98.7482 143.151 98.448 142.519 98.2237C142.423 98.1899 142.374 98.0856 142.408 97.9906C142.441 97.8955 142.546 97.8459 142.641 97.8798C143.291 98.1105 143.972 98.4186 144.666 98.7954C144.755 98.8435 144.788 98.9544 144.74 99.043C144.707 99.1036 144.644 99.1382 144.579 99.1382ZM138.272 97.9248C138.193 97.9248 138.121 97.874 138.097 97.7952C138.068 97.6989 138.122 97.5968 138.219 97.5675C138.896 97.3616 139.654 97.296 140.463 97.3738C140.564 97.3835 140.637 97.4726 140.628 97.5729C140.618 97.6733 140.528 97.7473 140.428 97.7372C139.667 97.6639 138.956 97.7247 138.325 97.9165C138.307 97.9221 138.289 97.9248 138.272 97.9248ZM150.327 96.4754C150.312 96.4754 150.297 96.4736 150.282 96.47C150.185 96.4457 150.125 96.3467 150.149 96.2489C150.317 95.5695 150.456 94.8512 150.56 94.1138C150.574 94.0138 150.667 93.9448 150.767 93.9586C150.867 93.9727 150.936 94.065 150.922 94.1649C150.816 94.9146 150.675 95.6453 150.504 96.3366C150.483 96.4198 150.409 96.4754 150.327 96.4754ZM150.953 92.1387C150.949 92.1387 150.946 92.1386 150.943 92.1385C150.842 92.133 150.765 92.0469 150.77 91.9462C150.798 91.4314 150.812 90.8999 150.812 90.3667C150.812 90.1679 150.811 89.9678 150.807 89.7664C150.805 89.6657 150.885 89.5823 150.986 89.5805C151.09 89.5768 151.17 89.6585 151.172 89.7595C151.176 89.9631 151.178 90.1656 151.178 90.3667C151.178 90.9065 151.164 91.4447 151.135 91.9662C151.13 92.0634 151.049 92.1387 150.953 92.1387ZM150.874 87.7545C150.78 87.7545 150.7 87.6825 150.692 87.5873C150.632 86.8773 150.549 86.1473 150.444 85.4176C150.43 85.3178 150.499 85.2253 150.599 85.2111C150.699 85.1974 150.791 85.2661 150.806 85.3658C150.911 86.1024 150.996 86.8395 151.056 87.5566C151.065 87.6571 150.99 87.7454 150.89 87.7538C150.885 87.7543 150.879 87.7545 150.874 87.7545ZM150.255 83.4111C150.169 83.4111 150.093 83.3508 150.076 83.2639C149.937 82.5614 149.776 81.8436 149.598 81.1309C149.574 81.0331 149.633 80.934 149.731 80.9096C149.829 80.8855 149.928 80.9448 149.953 81.0427C150.132 81.7613 150.294 82.4848 150.434 83.1931C150.454 83.2922 150.39 83.3881 150.291 83.4076C150.279 83.4101 150.267 83.4111 150.255 83.4111ZM149.195 79.1526C149.116 79.1526 149.044 79.1013 149.02 79.0222C148.814 78.3318 148.588 77.6313 148.348 76.9408C148.315 76.8455 148.366 76.7416 148.461 76.7086C148.557 76.6754 148.661 76.7261 148.694 76.8214C148.935 77.517 149.163 78.2224 149.37 78.9178C149.399 79.0144 149.344 79.1162 149.247 79.1449C149.23 79.1502 149.212 79.1526 149.195 79.1526ZM147.759 75.0052C147.686 75.0052 147.617 74.9614 147.589 74.8895C147.325 74.2187 147.041 73.5393 146.746 72.8704C146.706 72.7781 146.748 72.6705 146.84 72.6298C146.932 72.5893 147.04 72.631 147.081 72.7233C147.378 73.3967 147.663 74.0805 147.929 74.7559C147.966 74.8497 147.92 74.9556 147.826 74.9926C147.804 75.0012 147.781 75.0052 147.759 75.0052ZM145.989 70.9886C145.921 70.9886 145.856 70.9507 145.825 70.8859C145.507 70.2351 145.172 69.5798 144.827 68.938C144.78 68.8491 144.813 68.7385 144.903 68.6909C144.991 68.6432 145.102 68.6768 145.15 68.7657C145.496 69.4115 145.834 70.0711 146.153 70.726C146.198 70.8167 146.16 70.9259 146.069 70.9701C146.043 70.9824 146.016 70.9886 145.989 70.9886ZM143.916 67.1191C143.853 67.1191 143.792 67.0869 143.758 67.0287C143.392 66.4039 143.009 65.7753 142.618 65.1602C142.564 65.0751 142.589 64.9622 142.675 64.9083C142.76 64.8542 142.873 64.8794 142.927 64.9647C143.32 65.5835 143.706 66.216 144.074 66.8446C144.125 66.9316 144.095 67.0434 144.008 67.0942C143.979 67.1111 143.947 67.1191 143.916 67.1191ZM141.562 63.4139C141.504 63.4139 141.446 63.3862 141.411 63.3346C141 62.7364 140.571 62.1374 140.138 61.554C140.078 61.473 140.095 61.3589 140.176 61.2988C140.257 61.2385 140.372 61.2558 140.432 61.3366C140.868 61.9235 141.298 62.5263 141.712 63.1279C141.769 63.2111 141.748 63.3247 141.665 63.3817C141.634 63.4035 141.597 63.4139 141.562 63.4139ZM138.945 59.8891C138.891 59.8891 138.838 59.8657 138.802 59.8206C138.349 59.2544 137.879 58.6878 137.404 58.1362C137.338 58.0598 137.347 57.9444 137.424 57.8787C137.5 57.8129 137.616 57.8218 137.682 57.8982C138.159 58.453 138.632 59.0231 139.088 59.5927C139.151 59.6715 139.138 59.7864 139.059 59.8493C139.025 59.8762 138.985 59.8891 138.945 59.8891ZM136.081 56.5617C136.032 56.5617 135.983 56.542 135.947 56.5031C135.452 55.969 134.943 55.4376 134.431 54.9234C134.36 54.8519 134.361 54.7362 134.432 54.6653C134.504 54.5942 134.62 54.5948 134.691 54.6663C135.205 55.1837 135.718 55.7183 136.215 56.2554C136.284 56.3295 136.279 56.4449 136.205 56.5133C136.17 56.5457 136.125 56.5617 136.081 56.5617ZM132.985 53.4487C132.941 53.4487 132.896 53.4323 132.86 53.3993C132.33 52.9034 131.784 52.41 131.235 51.9328C131.159 51.8665 131.151 51.7512 131.218 51.6753C131.284 51.5992 131.4 51.5914 131.476 51.6576C132.027 52.1377 132.577 52.6341 133.11 53.1329C133.184 53.2019 133.188 53.3174 133.119 53.3908C133.083 53.4294 133.034 53.4487 132.985 53.4487ZM129.673 50.5664C129.633 50.5664 129.592 50.5531 129.558 50.5256C128.994 50.0689 128.413 49.6161 127.832 49.18C127.751 49.1194 127.735 49.0051 127.796 48.9244C127.856 48.8438 127.971 48.8276 128.052 48.8882C128.636 49.327 129.22 49.7824 129.789 50.2419C129.867 50.3054 129.879 50.4203 129.816 50.4986C129.779 50.5433 129.727 50.5664 129.673 50.5664ZM126.162 47.9305C126.126 47.9305 126.09 47.9199 126.058 47.8978C125.462 47.4831 124.85 47.0734 124.239 46.6802C124.154 46.6257 124.129 46.5127 124.184 46.4278C124.239 46.3431 124.352 46.3188 124.437 46.3733C125.051 46.7688 125.667 47.1809 126.267 47.5981C126.35 47.6557 126.37 47.7695 126.312 47.8521C126.277 47.9032 126.22 47.9305 126.162 47.9305ZM122.47 45.5548C122.438 45.5548 122.406 45.5466 122.377 45.5292C121.752 45.1585 121.112 44.794 120.474 44.4458C120.386 44.3974 120.353 44.2865 120.402 44.198C120.45 44.1096 120.561 44.0771 120.65 44.1255C121.291 44.4757 121.935 44.8424 122.564 45.2153C122.65 45.2669 122.679 45.3789 122.627 45.4656C122.593 45.5229 122.532 45.5548 122.47 45.5548ZM118.616 43.4507C118.589 43.4507 118.561 43.4443 118.534 43.4313C117.887 43.1069 117.222 42.789 116.56 42.4864C116.468 42.4445 116.428 42.3363 116.47 42.2444C116.512 42.1529 116.62 42.1126 116.712 42.1544C117.378 42.4588 118.047 42.7785 118.698 43.1049C118.789 43.15 118.825 43.2597 118.78 43.3499C118.748 43.4137 118.683 43.4507 118.616 43.4507ZM114.623 41.6259C114.599 41.6259 114.576 41.6215 114.553 41.6119C113.883 41.334 113.197 41.0635 112.516 40.8083C112.421 40.7729 112.374 40.6676 112.409 40.5732C112.445 40.4789 112.55 40.4311 112.644 40.4665C113.33 40.7233 114.019 40.9952 114.693 41.2748C114.786 41.3135 114.83 41.4204 114.791 41.5133C114.762 41.5835 114.694 41.6259 114.623 41.6259ZM110.511 40.085C110.492 40.085 110.472 40.0818 110.453 40.0754C109.766 39.8449 109.064 39.6221 108.365 39.4136C108.269 39.3847 108.214 39.2831 108.243 39.1865C108.272 39.0899 108.374 39.0349 108.47 39.0639C109.173 39.2735 109.879 39.4975 110.569 39.7293C110.665 39.7615 110.717 39.865 110.684 39.9605C110.659 40.0369 110.587 40.085 110.511 40.085ZM106.304 38.8284C106.288 38.8284 106.273 38.8264 106.257 38.8223C105.556 38.6385 104.841 38.4631 104.13 38.3013C104.032 38.279 103.97 38.181 103.992 38.0828C104.015 37.9845 104.113 37.9232 104.211 37.9454C104.926 38.1081 105.645 38.2844 106.35 38.4693C106.448 38.495 106.506 38.5948 106.48 38.6924C106.459 38.7743 106.385 38.8284 106.304 38.8284ZM102.022 37.853C102.01 37.853 101.999 37.8519 101.987 37.8497C101.277 37.7118 100.551 37.5827 99.8306 37.4663C99.7309 37.4502 99.6632 37.3565 99.6794 37.257C99.6954 37.1576 99.7882 37.0895 99.889 37.106C100.614 37.2231 101.343 37.3528 102.057 37.4914C102.156 37.5105 102.221 37.6065 102.201 37.7053C102.184 37.7924 102.108 37.853 102.022 37.853ZM97.687 37.1518C97.6792 37.1518 97.671 37.1514 97.663 37.1502C96.9454 37.0568 96.2134 36.9728 95.4869 36.9004C95.3864 36.8904 95.3132 36.8009 95.3232 36.7006C95.3334 36.6003 95.4238 36.5277 95.5232 36.5371C96.2532 36.6098 96.9891 36.6944 97.7105 36.7883C97.8105 36.8012 97.881 36.893 97.868 36.9928C97.856 37.0848 97.7776 37.1518 97.687 37.1518Z" fill="#2E2E46"/>
<path d="M94.9309 118.434C94.8589 118.434 94.7908 118.391 94.7616 118.32C94.4947 117.67 94.374 117.299 94.369 117.283C94.3378 117.188 94.3907 117.085 94.4867 117.054C94.5827 117.023 94.6858 117.075 94.7168 117.171C94.718 117.175 94.8389 117.546 95.0999 118.182C95.1381 118.275 95.0934 118.382 95 118.42C94.9774 118.429 94.9539 118.434 94.9309 118.434Z" fill="#2E2E46"/>
<path d="M53.2258 75.0575C52.8615 75.0575 52.4932 75.0445 52.1314 75.0188C52.0559 75.0134 51.999 74.9478 52.0044 74.8725C52.0098 74.797 52.0769 74.7402 52.1508 74.7457C52.8673 74.7966 53.5998 74.7962 54.3228 74.7444C54.3992 74.7391 54.4639 74.7959 54.4693 74.8711C54.4747 74.9466 54.4179 75.0121 54.3424 75.0175C53.9716 75.0439 53.5958 75.0575 53.2258 75.0575ZM56.5025 74.7108C56.4392 74.7108 56.3822 74.6667 56.3685 74.6024C56.3528 74.5284 56.4001 74.4557 56.4742 74.4399C56.6427 74.4041 56.8138 74.3651 56.9827 74.3237C57.0569 74.3053 57.1305 74.3507 57.1486 74.424C57.1666 74.4975 57.1216 74.5716 57.0481 74.5896C56.8764 74.6317 56.7025 74.6715 56.5311 74.7079C56.5215 74.7098 56.512 74.7108 56.5025 74.7108ZM49.9727 74.7065C49.963 74.7065 49.9532 74.7053 49.9433 74.7033C49.2249 74.5458 48.5124 74.3341 47.8255 74.0739C47.7546 74.047 47.7191 73.9681 47.7458 73.8974C47.7728 73.8267 47.8515 73.7911 47.9228 73.8179C48.5973 74.0733 49.2969 74.2812 50.0019 74.4358C50.0758 74.452 50.1227 74.525 50.1065 74.5988C50.0925 74.6628 50.0356 74.7065 49.9727 74.7065ZM45.888 73.1598C45.8655 73.1598 45.8425 73.1543 45.8215 73.1425C45.18 72.7854 44.5585 72.3774 43.9736 71.9298C43.9134 71.8838 43.9022 71.7979 43.9482 71.7378C43.9942 71.6778 44.0803 71.6665 44.1403 71.7125C44.7147 72.1519 45.3252 72.5526 45.955 72.9033C46.0212 72.9401 46.0449 73.0235 46.0078 73.0896C45.9827 73.1345 45.9361 73.1598 45.888 73.1598ZM42.417 70.5052C42.3814 70.5052 42.3457 70.4915 42.319 70.4639C41.8073 69.9409 41.3264 69.3745 40.8896 68.7805C40.8446 68.7195 40.8577 68.6339 40.9188 68.5891C40.9799 68.5445 41.0655 68.5573 41.1105 68.6184C41.5399 69.2021 42.0124 69.7587 42.5151 70.2727C42.568 70.3267 42.5669 70.4133 42.5128 70.4663C42.4862 70.4923 42.4515 70.5052 42.417 70.5052ZM39.8269 66.9885C39.7783 66.9885 39.7311 66.9626 39.7063 66.9169C39.3585 66.2766 39.0479 65.6024 38.7831 64.9128C38.7561 64.8422 38.7912 64.7632 38.862 64.7361C38.9324 64.709 39.0119 64.7442 39.0392 64.8149C39.2997 65.4933 39.6052 66.1566 39.9473 66.7863C39.9835 66.8527 39.9589 66.9358 39.8922 66.9719C39.8715 66.9832 39.8491 66.9885 39.8269 66.9885ZM38.2567 62.9124C38.1951 62.9124 38.139 62.8707 38.1238 62.8081C37.9503 62.1045 37.8158 61.3753 37.7238 60.6404C37.7145 60.5654 37.7678 60.4969 37.843 60.4876C37.9176 60.4781 37.9866 60.5314 37.9959 60.6066C38.0865 61.3308 38.2191 62.0495 38.39 62.7428C38.4081 62.8161 38.3631 62.8903 38.2895 62.9084C38.2786 62.9112 38.2676 62.9124 38.2567 62.9124ZM37.7092 58.5772C37.6344 58.5772 37.5732 58.5173 37.572 58.4424C37.5705 58.3373 37.5696 58.232 37.5696 58.1263C37.5696 57.5069 37.5972 56.8725 37.6517 56.2406C37.6581 56.1652 37.724 56.1102 37.8 56.1159C37.8756 56.1225 37.9313 56.1887 37.9249 56.264C37.8711 56.8882 37.8439 57.5146 37.8439 58.1263C37.8439 58.2306 37.8447 58.3346 37.8463 58.4383C37.8473 58.5139 37.7869 58.5761 37.7111 58.5771C37.7112 58.5772 37.7098 58.5772 37.7092 58.5772ZM38.0782 54.2189C38.0701 54.2189 38.0619 54.2182 38.0537 54.2167C37.9792 54.2034 37.9297 54.1321 37.9431 54.0577C38.0024 53.7277 38.0701 53.3912 38.144 53.0576C38.2317 52.6614 38.2925 52.2768 38.3247 51.9145C38.3314 51.8392 38.3991 51.7837 38.4734 51.7903C38.5489 51.797 38.6045 51.8633 38.598 51.9387C38.5647 52.3128 38.5021 52.7091 38.4119 53.1167C38.3386 53.4469 38.2717 53.7797 38.213 54.1061C38.2009 54.1723 38.1433 54.2189 38.0782 54.2189ZM38.2858 49.9056C38.2262 49.9056 38.1713 49.8666 38.1541 49.8065C37.9582 49.1268 37.6241 48.5307 37.133 47.9841C37.0822 47.9278 37.087 47.8414 37.1433 47.7908C37.1996 47.7403 37.2864 47.7449 37.337 47.8012C37.8565 48.3793 38.21 49.0106 38.4176 49.7307C38.4386 49.8033 38.3965 49.8792 38.3239 49.9C38.3111 49.9038 38.2983 49.9056 38.2858 49.9056ZM35.5285 46.6803C35.5049 46.6803 35.481 46.6743 35.459 46.6615C34.9032 46.335 34.2621 46.0307 33.4993 45.7312C33.4289 45.7037 33.3942 45.6242 33.4219 45.5537C33.4495 45.4834 33.5292 45.4488 33.5997 45.4765C34.3759 45.7812 35.0297 46.0916 35.5982 46.4255C35.6634 46.4639 35.6852 46.5479 35.6468 46.6131C35.6212 46.6563 35.5755 46.6803 35.5285 46.6803ZM31.4732 45.0256C31.4599 45.0256 31.4462 45.0236 31.4327 45.0195C30.707 44.7956 29.9604 44.5852 29.3257 44.409C29.2528 44.3888 29.2102 44.3133 29.2304 44.2404C29.2506 44.1675 29.3261 44.1251 29.3993 44.1451C30.0358 44.3218 30.7847 44.5328 31.5138 44.7578C31.586 44.78 31.6266 44.8568 31.6043 44.929C31.586 44.9879 31.5318 45.0256 31.4732 45.0256ZM27.2446 43.8277C27.2323 43.8277 27.2197 43.8259 27.2073 43.8225C26.381 43.5903 25.7101 43.3928 25.0956 43.201C25.0235 43.1785 24.9832 43.1016 25.0058 43.0294C25.0283 42.9573 25.1051 42.9171 25.1776 42.9396C25.7894 43.1308 26.4579 43.3276 27.2816 43.559C27.3545 43.5794 27.397 43.655 27.3766 43.7279C27.3594 43.7882 27.3043 43.8277 27.2446 43.8277ZM23.0572 42.4998C23.0412 42.4998 23.0251 42.4971 23.0092 42.4911C22.2712 42.2155 21.6055 41.937 20.9746 41.6396C20.9061 41.6074 20.8769 41.5257 20.9091 41.4572C20.9414 41.389 21.0232 41.3598 21.0917 41.392C21.7157 41.686 22.3744 41.9618 23.1052 42.2347C23.1762 42.2612 23.2121 42.3401 23.1857 42.4108C23.165 42.4659 23.1127 42.4998 23.0572 42.4998ZM19.1054 40.6105C19.0805 40.6105 19.0555 40.6038 19.033 40.5898C18.3858 40.1872 17.7856 39.7501 17.249 39.2908C17.1915 39.2417 17.1849 39.1552 17.2341 39.0978C17.2834 39.0404 17.3698 39.0337 17.4276 39.083C17.9536 39.5333 18.5425 39.9621 19.1781 40.3574C19.2424 40.3975 19.2619 40.4819 19.222 40.5461C19.1958 40.5877 19.1511 40.6105 19.1054 40.6105ZM15.8135 37.7635C15.7733 37.7635 15.7338 37.7463 15.7068 37.7128C15.2442 37.1421 14.8351 36.5238 14.4909 35.8749C14.4554 35.8082 14.4809 35.7252 14.5478 35.6898C14.6145 35.6546 14.6977 35.6799 14.7331 35.7468C15.0691 36.3801 15.4684 36.9836 15.9199 37.5405C15.9675 37.5992 15.9584 37.6855 15.8996 37.733C15.8742 37.7537 15.8437 37.7635 15.8135 37.7635ZM72.3612 34.0233C72.302 34.0233 72.2474 33.9847 72.2299 33.9249C72.024 33.2243 71.8023 32.5238 71.5712 31.8425C71.5471 31.771 71.5855 31.6932 71.6572 31.6688C71.7288 31.6448 71.807 31.683 71.8312 31.7547C72.0635 32.4393 72.2861 33.1436 72.4931 33.8477C72.5144 33.9203 72.4728 33.9964 72.4001 34.0177C72.3871 34.0214 72.3741 34.0233 72.3612 34.0233ZM13.7739 33.9401C13.7156 33.9401 13.6617 33.9028 13.6433 33.8444C13.4297 33.1706 13.2629 32.4504 13.1474 31.7037C13.1358 31.629 13.1871 31.559 13.262 31.5475C13.3367 31.5361 13.4069 31.5872 13.4184 31.662C13.5318 32.3949 13.6954 33.1013 13.9045 33.7617C13.9274 33.8339 13.8874 33.9109 13.8153 33.9336C13.8015 33.9379 13.7877 33.9401 13.7739 33.9401ZM70.9533 29.8775C70.8983 29.8775 70.8465 29.8443 70.8254 29.79C70.5614 29.1098 70.2799 28.4311 69.9893 27.7728C69.9588 27.7036 69.9902 27.6229 70.0595 27.5924C70.129 27.5618 70.2096 27.5933 70.2402 27.6624C70.5326 28.3244 70.8155 29.0071 71.081 29.6912C71.1084 29.7617 71.0733 29.8409 71.0028 29.8683C70.9866 29.8744 70.9698 29.8775 70.9533 29.8775ZM13.0885 29.6499C13.0147 29.6499 12.9537 29.5914 12.9517 29.5171C12.9454 29.3111 12.9424 29.101 12.9424 28.8925C12.9424 28.3839 12.9607 27.8536 12.9971 27.316C13.0022 27.2405 13.0682 27.1835 13.143 27.1886C13.2187 27.1936 13.2758 27.259 13.2706 27.3344C13.2347 27.8658 13.2165 28.39 13.2165 28.8925C13.2165 29.0983 13.2194 29.3057 13.2256 29.509C13.2279 29.5844 13.1684 29.6476 13.0928 29.6498C13.0912 29.6499 13.0898 29.6499 13.0885 29.6499ZM35.2737 28.4533C34.8692 28.4533 34.4598 28.4282 34.0568 28.3789C33.9816 28.3695 33.9282 28.3012 33.9373 28.2261C33.9467 28.1511 34.0168 28.0979 34.0901 28.1069C34.806 28.1948 35.5371 28.2027 36.2482 28.1299C36.3244 28.1224 36.3908 28.177 36.3984 28.2522C36.406 28.3275 36.3514 28.3946 36.276 28.4022C35.945 28.4362 35.6079 28.4533 35.2737 28.4533ZM38.3996 27.9348C38.3427 27.9348 38.2894 27.8991 38.2698 27.8424C38.2454 27.7709 38.2834 27.6929 38.3551 27.6684C39.0324 27.4361 39.6878 27.1245 40.3031 26.7417C40.3669 26.7019 40.4518 26.7212 40.4919 26.7855C40.5319 26.8497 40.5123 26.9342 40.448 26.9741C39.8154 27.3679 39.1412 27.6885 38.4443 27.9274C38.4294 27.9324 38.4143 27.9348 38.3996 27.9348ZM31.9441 27.8758C31.9288 27.8758 31.9132 27.8733 31.8979 27.8678C31.1944 27.6166 30.524 27.2883 29.9054 26.8922C29.8415 26.8512 29.8229 26.7667 29.8637 26.703C29.9046 26.6394 29.9898 26.6211 30.0532 26.6617C30.6545 27.0469 31.3061 27.3659 31.99 27.61C32.0614 27.6355 32.0985 27.7139 32.0729 27.785C32.0532 27.8408 32.0005 27.8758 31.9441 27.8758ZM69.1832 25.8727C69.1328 25.8727 69.0845 25.8449 69.0605 25.7969C68.7342 25.1443 68.3896 24.4957 68.036 23.8689C67.9989 23.803 68.0221 23.7196 68.0881 23.6825C68.1539 23.6455 68.2376 23.6686 68.2748 23.7346C68.6306 24.3652 68.9775 25.0179 69.3056 25.6745C69.3395 25.7421 69.312 25.8244 69.2442 25.8584C69.2246 25.868 69.2037 25.8727 69.1832 25.8727ZM42.0724 25.6182C42.0395 25.6182 42.0065 25.6064 41.9803 25.5828C41.9243 25.5319 41.9199 25.4454 41.9709 25.3894C42.4678 24.8422 42.8389 24.2318 43.0742 23.5754C43.0996 23.5043 43.1778 23.4671 43.2493 23.4926C43.3207 23.5182 43.3578 23.5964 43.3322 23.6677C43.085 24.358 42.6954 24.9993 42.1741 25.5733C42.1469 25.6031 42.1097 25.6182 42.0724 25.6182ZM28.2929 25.5228C28.2564 25.5228 28.2202 25.5084 28.1931 25.4799C27.6747 24.9314 27.2375 24.3256 26.8937 23.6792C26.8583 23.6125 26.8836 23.5296 26.9504 23.4942C27.0175 23.4587 27.1003 23.4842 27.1358 23.5508C27.468 24.1754 27.8909 24.7612 28.3924 25.292C28.4443 25.347 28.4419 25.4337 28.3868 25.4855C28.3605 25.5106 28.3266 25.5228 28.2929 25.5228ZM13.3691 25.2851C13.3625 25.2851 13.3559 25.2847 13.3492 25.2837C13.2742 25.2728 13.2224 25.2033 13.2334 25.1285C13.3348 24.4323 13.465 23.7041 13.62 22.9643C13.6355 22.8902 13.7085 22.8433 13.7822 22.8585C13.8563 22.8739 13.9038 22.9464 13.8883 23.0205C13.7343 23.7547 13.6053 24.4773 13.5046 25.1681C13.4946 25.2361 13.436 25.2851 13.3691 25.2851ZM67.0299 22.06C66.9845 22.06 66.94 22.0375 66.914 21.9962C66.5228 21.3806 66.1119 20.7718 65.6933 20.1868C65.6493 20.1253 65.6636 20.0398 65.7251 19.9958C65.7868 19.9518 65.8725 19.9661 65.9165 20.0276C66.3379 20.6167 66.7514 21.2297 67.1456 21.8497C67.186 21.9135 67.1672 21.9981 67.1034 22.0387C67.0804 22.053 67.055 22.06 67.0299 22.06ZM26.2731 21.6992C26.2093 21.6992 26.1523 21.6546 26.1389 21.5898C26.0305 21.0652 25.9756 20.5222 25.9756 19.9759C25.9755 19.7782 25.9828 19.5759 25.9972 19.3747C26.0027 19.2993 26.0674 19.2436 26.1438 19.248C26.2193 19.2533 26.2762 19.3189 26.2707 19.3943C26.2568 19.5891 26.2497 19.7847 26.2497 19.9759C26.2497 20.5037 26.3028 21.0282 26.4073 21.5346C26.4227 21.6086 26.375 21.6811 26.3008 21.6963C26.2915 21.6984 26.2822 21.6992 26.2731 21.6992ZM43.5165 21.6051C43.4433 21.6051 43.3826 21.5475 43.3795 21.4739C43.3512 20.8004 43.2119 20.0933 42.966 19.3722C42.9414 19.3006 42.9799 19.2228 43.0516 19.1984C43.1233 19.1739 43.2012 19.2123 43.2256 19.2839C43.48 20.0298 43.624 20.7627 43.6537 21.4624C43.6567 21.538 43.598 21.6018 43.5225 21.605C43.5204 21.605 43.5184 21.6051 43.5165 21.6051ZM14.2654 20.9999C14.2533 20.9999 14.2413 20.9983 14.229 20.9951C14.156 20.9751 14.113 20.8998 14.1331 20.8269C14.3325 20.1005 14.5548 19.3945 14.7938 18.7288C14.8194 18.6577 14.8981 18.6204 14.9691 18.6461C15.0404 18.6716 15.0775 18.75 15.0519 18.8211C14.8153 19.4804 14.5952 20.1795 14.3975 20.8992C14.3809 20.9601 14.3257 20.9999 14.2654 20.9999ZM64.4799 18.4998C64.4398 18.4998 64.4 18.4824 64.373 18.4488C63.915 17.8808 63.4372 17.3231 62.9531 16.7913C62.9021 16.7354 62.9063 16.6488 62.9623 16.5979C63.0184 16.547 63.1051 16.5513 63.156 16.6072C63.6439 17.1431 64.1253 17.7049 64.5866 18.2771C64.634 18.336 64.6248 18.4222 64.5659 18.4696C64.5404 18.4899 64.5101 18.4998 64.4799 18.4998ZM42.1733 17.4817C42.1262 17.4817 42.0803 17.4575 42.0549 17.4139C41.7039 16.8162 41.2859 16.2179 40.8124 15.6357C40.7648 15.5769 40.7737 15.4908 40.8325 15.4431C40.8911 15.3954 40.9776 15.4043 41.0253 15.463C41.5075 16.056 41.9336 16.6658 42.2915 17.2755C42.3297 17.3406 42.3079 17.4246 42.2425 17.4628C42.2207 17.4755 42.1968 17.4817 42.1733 17.4817ZM26.5548 17.3774C26.5411 17.3774 26.5272 17.3753 26.5133 17.3709C26.4411 17.3481 26.4012 17.271 26.4241 17.199C26.6384 16.5251 26.9327 15.8413 27.2984 15.1661C27.3346 15.0995 27.4174 15.0749 27.4843 15.1108C27.5508 15.1469 27.5757 15.2299 27.5396 15.2965C27.182 15.9565 26.8946 16.6245 26.6854 17.2819C26.667 17.3402 26.613 17.3774 26.5548 17.3774ZM15.7544 16.8871C15.7349 16.8871 15.7153 16.883 15.6964 16.8741C15.6279 16.8421 15.5983 16.7606 15.6303 16.6922C15.9513 16.0067 16.3023 15.3534 16.6735 14.7504C16.7131 14.686 16.7979 14.666 16.8621 14.7056C16.9266 14.7451 16.9468 14.8295 16.907 14.8939C16.5414 15.4879 16.1954 16.132 15.8787 16.808C15.8556 16.8578 15.8061 16.8871 15.7544 16.8871ZM61.5301 15.2624C61.4955 15.2624 61.4612 15.2496 61.4344 15.2237C60.9108 14.716 60.3673 14.2224 59.8193 13.7564C59.7616 13.7074 59.7546 13.621 59.8037 13.5635C59.8527 13.506 59.9392 13.499 59.997 13.548C60.5496 14.0178 61.0974 14.5156 61.6255 15.0273C61.6799 15.08 61.6812 15.1667 61.6285 15.221C61.6015 15.2485 61.5657 15.2624 61.5301 15.2624ZM39.4303 14.0779C39.3962 14.0779 39.362 14.0653 39.3355 14.0399C38.8188 13.5458 38.2617 13.0704 37.6796 12.6266C37.6193 12.5808 37.6077 12.4948 37.6537 12.4348C37.6995 12.3746 37.7857 12.3632 37.8459 12.409C38.4362 12.8588 39.0012 13.341 39.5249 13.842C39.5798 13.8943 39.5815 13.981 39.5292 14.0356C39.5024 14.0638 39.4664 14.0779 39.4303 14.0779ZM28.6051 13.5284C28.5766 13.5284 28.5479 13.5195 28.5231 13.5011C28.4625 13.4559 28.4501 13.3702 28.4954 13.3095C28.7995 12.9032 29.1351 12.4931 29.4926 12.0904C29.6316 11.9339 29.7763 11.7777 29.9229 11.626C29.9754 11.5716 30.0622 11.5701 30.1169 11.6226C30.1712 11.6751 30.1729 11.7618 30.1203 11.8162C29.9763 11.9651 29.8341 12.1185 29.6978 12.2721C29.3452 12.6692 29.0145 13.0734 28.7151 13.4736C28.6882 13.5094 28.6468 13.5284 28.6051 13.5284ZM18.0602 13.1771C18.0295 13.1771 17.9985 13.1669 17.973 13.1458C17.9146 13.0976 17.9064 13.0113 17.9546 12.9531C18.4358 12.3714 18.9544 11.8383 19.496 11.3687C19.5531 11.3192 19.6396 11.3252 19.6894 11.3823C19.7391 11.4394 19.7329 11.5259 19.6757 11.5754C19.1455 12.0351 18.6376 12.5574 18.166 13.1274C18.1389 13.1602 18.0998 13.1771 18.0602 13.1771ZM58.1917 12.4266C58.1634 12.4266 58.1348 12.4179 58.1103 12.3997C57.5239 11.966 56.9187 11.5505 56.3116 11.1644C56.2476 11.1238 56.229 11.0392 56.2696 10.9755C56.3103 10.9116 56.3949 10.8929 56.4588 10.9335C57.0714 11.323 57.682 11.7423 58.2734 12.1799C58.3344 12.2248 58.3471 12.3105 58.302 12.3713C58.2751 12.4074 58.2337 12.4266 58.1917 12.4266ZM35.9509 11.4221C35.9267 11.4221 35.9022 11.4157 35.8798 11.4023C35.2554 11.0248 34.6088 10.6806 33.9577 10.3789C33.889 10.347 33.8591 10.2657 33.891 10.1971C33.923 10.1285 34.0045 10.0988 34.0731 10.1305C34.7332 10.4364 35.389 10.7855 36.0219 11.1682C36.0867 11.2074 36.1074 11.2915 36.0683 11.3563C36.0425 11.3987 35.9973 11.4221 35.9509 11.4221ZM31.6541 10.3991C31.613 10.3991 31.5726 10.3808 31.5454 10.3458C31.4992 10.286 31.5103 10.2 31.5702 10.1538C32.1476 9.70875 32.7672 9.2977 33.4118 8.93247C33.4773 8.89525 33.5612 8.9181 33.5987 8.98405C33.636 9.04978 33.613 9.13328 33.5471 9.17062C32.9137 9.52949 32.3051 9.93324 31.7377 10.3706C31.7128 10.3898 31.6833 10.3991 31.6541 10.3991ZM21.3637 10.3342C21.3168 10.3342 21.2706 10.3098 21.2452 10.2662C21.2071 10.2008 21.2292 10.117 21.2946 10.0791C21.9337 9.70722 22.6113 9.39746 23.3093 9.15825C23.3811 9.13363 23.459 9.1718 23.4836 9.24329C23.5082 9.31478 23.4701 9.39263 23.3985 9.41725C22.7175 9.65057 22.056 9.9528 21.4327 10.3156C21.4109 10.3282 21.3872 10.3342 21.3637 10.3342ZM54.4936 10.0783C54.4715 10.0783 54.4494 10.0732 54.4287 10.062C53.7856 9.71676 53.1262 9.3944 52.4687 9.10407C52.3995 9.07345 52.3681 8.99265 52.3988 8.92352C52.4293 8.8545 52.51 8.82305 52.5796 8.85367C53.2435 9.14694 53.9092 9.47225 54.5585 9.82076C54.6251 9.85657 54.6502 9.9396 54.6144 10.0061C54.5897 10.0522 54.5424 10.0783 54.4936 10.0783ZM31.9745 9.58697C31.9604 9.58697 31.946 9.58473 31.932 9.58014C31.2295 9.35082 30.5204 9.1692 29.8246 9.04035C29.7501 9.02657 29.7009 8.95508 29.7147 8.88088C29.7284 8.80656 29.7995 8.75721 29.8745 8.77123C30.5823 8.90231 31.3032 9.08699 32.017 9.32008C32.089 9.34352 32.1283 9.42078 32.1047 9.49263C32.0858 9.55034 32.0321 9.58697 31.9745 9.58697ZM25.4834 8.91716C25.4161 8.91716 25.3574 8.86781 25.3478 8.79938C25.3372 8.72447 25.3895 8.65522 25.4644 8.64473C26.1788 8.54415 26.9199 8.50505 27.6751 8.52943C27.7507 8.5319 27.8102 8.59515 27.8077 8.67064C27.8052 8.74614 27.7377 8.80621 27.6664 8.80303C26.9263 8.77924 26.2016 8.8174 25.5027 8.91586C25.4961 8.91669 25.4897 8.91716 25.4834 8.91716ZM50.4853 8.31047C50.4703 8.31047 50.455 8.308 50.44 8.30282C49.7502 8.06219 49.0477 7.8496 48.3527 7.67116C48.2794 7.65232 48.2352 7.57777 48.254 7.50451C48.2729 7.43125 48.3478 7.3872 48.4209 7.40604C49.1237 7.58636 49.8334 7.80107 50.5306 8.04429C50.6019 8.06914 50.6398 8.14735 50.6148 8.2186C50.595 8.27514 50.5419 8.31047 50.4853 8.31047ZM35.4547 8.23921C35.4003 8.23921 35.349 8.20683 35.3274 8.15336C35.2992 8.08316 35.3332 8.00354 35.4035 7.97527C36.077 7.70485 36.783 7.47188 37.5019 7.28308C37.5755 7.26365 37.6502 7.30758 37.6693 7.3806C37.6887 7.45374 37.6449 7.52865 37.5718 7.54785C36.8638 7.73382 36.1687 7.96314 35.5057 8.22932C35.4889 8.23592 35.4717 8.23921 35.4547 8.23921ZM46.2414 7.22454C46.234 7.22454 46.2265 7.22395 46.2191 7.22266C45.4972 7.10453 44.7688 7.01996 44.0541 6.97144C43.9785 6.96637 43.9215 6.901 43.9267 6.82562C43.9318 6.75013 43.9968 6.69289 44.0726 6.6983C44.796 6.74742 45.5331 6.83304 46.2635 6.95259C46.3381 6.96484 46.3888 7.03527 46.3766 7.10971C46.3655 7.17696 46.3073 7.22454 46.2414 7.22454ZM39.6867 7.12054C39.6195 7.12054 39.561 7.07119 39.5512 7.00288C39.5405 6.92797 39.5927 6.85872 39.6676 6.84812C40.3852 6.74648 41.1249 6.68264 41.867 6.65826C41.9426 6.65213 42.0059 6.71503 42.0084 6.79064C42.0109 6.86626 41.9515 6.9295 41.8758 6.93198C41.1439 6.956 40.4138 7.01902 39.7062 7.11925C39.6996 7.12007 39.6932 7.12054 39.6867 7.12054Z" fill="#2E2E46"/>
<path d="M17.9517 23.8468H11.9246C11.5949 23.8468 11.3277 23.5799 11.3277 23.2506V19.7308C11.3277 19.4016 11.5949 19.1347 11.9246 19.1347H17.9517C18.2814 19.1347 18.5487 19.4016 18.5487 19.7308V23.2506C18.5487 23.5799 18.2814 23.8468 17.9517 23.8468Z" fill="#1890FF"/>
<path d="M18.498 23.4902L14.9336 21.3327L11.3754 23.4844C11.4665 23.6974 11.678 23.8467 11.9246 23.8467H17.9517C18.196 23.8467 18.4056 23.7001 18.498 23.4902Z" fill="#1890FF"/>
<path d="M11.377 19.4912L14.9414 21.9149L18.4995 19.4971C18.4085 19.2841 18.1969 19.1348 17.9503 19.1348H11.9233C11.679 19.1347 11.4693 19.2814 11.377 19.4912Z" fill="#1890FF"/>
<path d="M14.9414 21.9833L11.345 19.538L11.4089 19.4442L14.9414 21.8459L18.4675 19.4501L18.5314 19.5441L14.9414 21.9833Z" fill="#2E2E46"/>
<path d="M133.229 36.2425H127.203C126.873 36.2425 126.605 35.9755 126.605 35.6462V32.1263C126.605 31.7971 126.873 31.5302 127.203 31.5302H133.229C133.559 31.5302 133.826 31.7971 133.826 32.1263V35.6462C133.826 35.9755 133.559 36.2425 133.229 36.2425Z" fill="#E84D46"/>
<path d="M133.776 35.886L130.211 33.7285L126.653 35.8802C126.744 36.0933 126.956 36.2426 127.203 36.2426H133.229C133.474 36.2425 133.683 36.0957 133.776 35.886Z" fill="#E84D46"/>
<path d="M126.655 31.8868L130.219 34.3103L133.777 31.8927C133.686 31.6796 133.475 31.5304 133.228 31.5304H127.201C126.957 31.5304 126.747 31.677 126.655 31.8868Z" fill="#E84D46"/>
<path d="M130.219 34.3791L126.623 31.9336L126.687 31.8399L130.219 34.2418L133.745 31.8457L133.809 31.9396L130.219 34.3791Z" fill="#2E2E46"/>
<path d="M157.812 116.088H151.785C151.455 116.088 151.188 115.821 151.188 115.492V111.972C151.188 111.643 151.455 111.376 151.785 111.376H157.812C158.142 111.376 158.409 111.643 158.409 111.972V115.492C158.409 115.821 158.142 116.088 157.812 116.088Z" fill="#F9AA4B"/>
<path d="M158.358 115.731L154.794 113.574L151.236 115.726C151.327 115.939 151.538 116.088 151.785 116.088H157.812C158.056 116.088 158.266 115.941 158.358 115.731Z" fill="#F9AA4B"/>
<path d="M151.237 111.732L154.802 114.156L158.36 111.738C158.269 111.525 158.057 111.376 157.811 111.376H151.784C151.539 111.376 151.33 111.523 151.237 111.732Z" fill="#F9AA4B"/>
<path d="M154.802 114.224L151.205 111.779L151.269 111.685L154.802 114.087L158.328 111.691L158.392 111.785L154.802 114.224Z" fill="#2E2E46"/>
<path d="M27.9886 74.6122H21.9616C21.6319 74.6122 21.3645 74.3453 21.3645 74.0161V70.4962C21.3645 70.167 21.6319 69.9001 21.9616 69.9001H27.9886C28.3184 69.9001 28.5857 70.167 28.5857 70.4962V74.0161C28.5857 74.3454 28.3184 74.6122 27.9886 74.6122Z" fill="#454F5B"/>
<path d="M28.5349 74.2558L24.9705 72.0983L21.4124 74.25C21.5035 74.463 21.715 74.6123 21.9616 74.6123H27.9887C28.2328 74.6122 28.4426 74.4655 28.5349 74.2558Z" fill="#454F5B"/>
<path d="M21.4138 70.2567L24.9783 72.6802L28.5365 70.2625C28.4454 70.0495 28.2339 69.9002 27.9873 69.9002H21.9603C21.7159 69.9001 21.5063 70.0469 21.4138 70.2567Z" fill="#454F5B"/>
<path d="M24.9784 72.7489L21.3819 70.3034L21.4458 70.2096L24.9784 72.6116L28.5044 70.2156L28.5683 70.3094L24.9784 72.7489Z" fill="#2E2E46"/>
</svg>
