<svg width="16" height="16" viewBox="0 0 16 16" fill="none" xmlns="http://www.w3.org/2000/svg">
<path d="M12.697 4.93392C12.949 4.68192 13.0877 4.34725 13.0877 3.99125C13.0877 3.63525 12.949 3.30059 12.697 3.04859L11.6397 1.99125C11.3877 1.73925 11.053 1.60059 10.697 1.60059C10.341 1.60059 10.0063 1.73925 9.75499 1.99059L2.66699 9.05659V11.9999H5.60899L12.697 4.93392ZM10.697 2.93392L11.755 3.99059L10.695 5.04659L9.63766 3.98992L10.697 2.93392ZM4.00033 10.6666V9.60992L8.69366 4.93125L9.75099 5.98859L5.05833 10.6666H4.00033ZM2.66699 13.3333H13.3337V14.6666H2.66699V13.3333Z" fill="#454F5B"/>
</svg>
