<svg width="16" height="16" viewBox="0 0 16 16" fill="none" xmlns="http://www.w3.org/2000/svg">
<path d="M8 6C6.90533 6 6 6.906 6 8C6 9.09467 6.90533 10 8 10C9.094 10 10 9.09467 10 8C10 6.906 9.094 6 8 6Z" fill="#454F5B"/>
<path d="M7.99954 3.3335C2.91088 3.3335 1.38154 7.74483 1.36754 7.7895L1.29688 8.00016L1.36688 8.21083C1.38154 8.2555 2.91088 12.6668 7.99954 12.6668C13.0882 12.6668 14.6175 8.2555 14.6315 8.21083L14.7022 8.00016L14.6322 7.7895C14.6175 7.74483 13.0882 3.3335 7.99954 3.3335ZM7.99954 11.3335C4.43221 11.3335 3.05021 8.7695 2.71554 8.00016C3.05154 7.22816 4.43421 4.66683 7.99954 4.66683C11.5669 4.66683 12.9489 7.23083 13.2835 8.00016C12.9475 8.77216 11.5649 11.3335 7.99954 11.3335Z" fill="#454F5B"/>
</svg>
