<svg width="20" height="20" viewBox="0 0 20 20" fill="none" xmlns="http://www.w3.org/2000/svg">
<path d="M9.99999 17C10.946 17 11.81 16.897 12.598 16.719L10.841 14.962C10.568 14.983 10.291 15 9.99999 15C4.64899 15 2.57599 11.154 2.07399 10C2.27799 9.53 2.74799 8.619 3.58199 7.703L2.18399 6.305C0.645994 7.972 0.0629941 9.651 0.0519941 9.684C-0.0170059 9.889 -0.0170059 10.112 0.0519941 10.317C0.0729941 10.383 2.36699 17 9.99999 17ZM9.99999 3C8.16299 3 6.65399 3.396 5.39599 3.981L1.70699 0.292999L0.292994 1.707L18.293 19.707L19.707 18.293L16.388 14.974C19.002 13.023 19.935 10.359 19.949 10.317C20.018 10.112 20.018 9.889 19.949 9.684C19.927 9.617 17.633 3 9.99999 3ZM14.972 13.558L12.692 11.278C12.882 10.888 13 10.459 13 10C13 8.359 11.641 7 9.99999 7C9.54099 7 9.11199 7.118 8.72299 7.309L6.91499 5.501C7.79599 5.193 8.81399 5 9.99999 5C15.351 5 17.424 8.846 17.926 10C17.624 10.692 16.76 12.342 14.972 13.558Z" fill="#B6BEC8"/>
</svg>
