<svg width="60" height="60" viewBox="0 0 60 60" fill="none" xmlns="http://www.w3.org/2000/svg">
<circle cx="30" cy="30" r="30" fill="#FFECB3"/>
<circle cx="30" cy="30" r="24.5455" fill="#FFC20E"/>
<circle cx="30.0909" cy="30.0909" r="19.0909" fill="#F7A30A"/>
<path d="M41.25 20H37.5V18.75C37.5 18.4185 37.3683 18.1005 37.1339 17.8661C36.8995 17.6317 36.5815 17.5 36.25 17.5H23.75C23.4185 17.5 23.1005 17.6317 22.8661 17.8661C22.6317 18.1005 22.5 18.4185 22.5 18.75V20H18.75C18.4185 20 18.1005 20.1317 17.8661 20.3661C17.6317 20.6005 17.5 20.9185 17.5 21.25V25C17.5 30.3875 19.75 33.6375 23.525 33.75C24.0758 34.7024 24.8294 35.522 25.7324 36.1507C26.6354 36.7793 27.6656 37.2016 28.75 37.3875V40H26.25V42.5H33.75V40H31.25V37.3875C32.3344 37.2016 33.3646 36.7793 34.2676 36.1507C35.1706 35.522 35.9242 34.7024 36.475 33.75C40.225 33.625 42.5 30.375 42.5 25V21.25C42.5 20.9185 42.3683 20.6005 42.1339 20.3661C41.8995 20.1317 41.5815 20 41.25 20ZM20 25V22.5H22.5V31.0375C20.275 30.1 20 26.625 20 25ZM37.5 31.0375V22.5H40V25C40 26.625 39.725 30.1 37.5 31.0375Z" fill="white"/>
</svg>
