<svg width="22" height="22" viewBox="0 0 22 22" fill="none" xmlns="http://www.w3.org/2000/svg">
<path fill-rule="evenodd" clip-rule="evenodd" d="M20.7034 17.1704C20.7034 17.554 20.7044 17.9375 20.7031 18.3211C20.7023 18.5838 20.6638 18.841 20.5821 19.0906C20.2783 20.0184 19.5004 20.6009 18.6993 20.725C18.5649 20.7458 18.4281 20.76 18.2924 20.7605C17.513 20.7639 16.7335 20.7621 15.9541 20.7623C15.8441 20.7624 15.7365 20.7483 15.6329 20.7094C15.321 20.5924 15.0905 20.2741 15.1151 19.8908C15.137 19.5488 15.3853 19.2444 15.7231 19.1644C15.8056 19.1449 15.8931 19.1401 15.9783 19.1399C16.7343 19.1381 17.4904 19.1389 18.2464 19.1388C18.34 19.1388 18.4328 19.1355 18.5244 19.1096C18.8497 19.0177 19.0837 18.7156 19.1003 18.3946C19.1032 18.3393 19.104 18.2839 19.104 18.2286C19.1043 17.4773 19.1042 16.7261 19.1042 15.9748C19.1042 15.8757 19.11 15.7779 19.1354 15.6811C19.2214 15.3531 19.5444 15.0621 19.9667 15.0931C20.3238 15.1192 20.6375 15.4024 20.6897 15.7717C20.6984 15.834 20.6992 15.8975 20.7035 15.9605C20.704 15.9684 20.7036 15.9763 20.7036 15.9842C20.7036 16.3796 20.7036 16.775 20.7036 17.1705C20.7035 17.1704 20.7035 17.1704 20.7034 17.1704Z" fill="#464646"/>
<path fill-rule="evenodd" clip-rule="evenodd" d="M17.2163 1.31673C17.5709 1.31677 17.9256 1.31636 18.2802 1.3169C18.531 1.31728 18.777 1.35103 19.0174 1.42604C19.8716 1.6926 20.5156 2.43686 20.6655 3.33173C20.6897 3.47625 20.7035 3.62158 20.7035 3.7682C20.7035 4.55505 20.7032 5.3419 20.7038 6.12874C20.7039 6.24449 20.6897 6.35721 20.6494 6.46598C20.5336 6.77834 20.2193 7.01389 19.8385 6.984C19.4976 6.95722 19.2037 6.70671 19.1274 6.36257C19.1088 6.27869 19.1053 6.18999 19.1051 6.10348C19.1035 5.35222 19.1043 4.60096 19.104 3.84969C19.104 3.79437 19.1035 3.73895 19.1003 3.68374C19.0772 3.27841 18.7319 2.94767 18.3405 2.94034C18.2977 2.93954 18.2548 2.9394 18.2119 2.9394C17.4636 2.93934 16.7154 2.93907 15.9671 2.93966C15.8651 2.93973 15.7652 2.92909 15.6675 2.89812C15.3432 2.79535 15.0944 2.47071 15.1144 2.08104C15.1326 1.72843 15.387 1.41566 15.7331 1.33874C15.8122 1.32117 15.8955 1.31801 15.977 1.31762C16.3901 1.31561 16.8032 1.3167 17.2163 1.31673Z" fill="#464646"/>
<path fill-rule="evenodd" clip-rule="evenodd" d="M5.06672 20.7623C4.72376 20.7623 4.3808 20.7612 4.03786 20.7627C3.78735 20.7639 3.54031 20.7408 3.29761 20.6742C2.44505 20.4404 1.77615 19.7244 1.59169 18.849C1.55649 18.6819 1.53814 18.5134 1.53793 18.3431C1.53696 17.5365 1.53782 16.7299 1.53711 15.9233C1.53689 15.672 1.62097 15.4573 1.80922 15.2926C2.0405 15.0903 2.30815 15.0368 2.59557 15.1372C2.88355 15.2378 3.05826 15.449 3.11751 15.753C3.13098 15.8222 3.13406 15.8943 3.13416 15.9651C3.1353 16.7361 3.13431 17.5071 3.13578 18.2781C3.13593 18.3566 3.14039 18.4368 3.15634 18.5133C3.23099 18.8713 3.552 19.1274 3.8886 19.137C3.93533 19.1384 3.9821 19.1389 4.02886 19.1389C4.77323 19.139 5.51759 19.1391 6.26196 19.1389C6.3637 19.1389 6.46399 19.1469 6.56222 19.1768C6.89227 19.277 7.15491 19.6109 7.12178 20.0231C7.09363 20.3734 6.82066 20.6987 6.44548 20.7492C6.38392 20.7575 6.32136 20.7616 6.25925 20.7618C5.86175 20.7629 5.46423 20.7623 5.06672 20.7623Z" fill="#464646"/>
<path fill-rule="evenodd" clip-rule="evenodd" d="M1.53731 4.87192C1.53735 4.50419 1.53815 4.13646 1.53712 3.76874C1.53616 3.4241 1.60029 3.09331 1.73562 2.77687C2.05918 2.02026 2.7477 1.47698 3.55093 1.35121C3.68898 1.3296 3.83 1.31891 3.96971 1.31834C4.73744 1.31523 5.5052 1.31679 6.27294 1.31687C6.36667 1.31688 6.45948 1.32355 6.55032 1.35058C6.90994 1.4576 7.14228 1.79521 7.12329 2.17584C7.1049 2.54418 6.82538 2.86955 6.45759 2.92435C6.39238 2.93407 6.32586 2.93878 6.25992 2.93886C5.50387 2.93985 4.74781 2.93947 3.99177 2.93955C3.90216 2.93956 3.81323 2.94114 3.72518 2.96517C3.38685 3.05751 3.14595 3.36372 3.13565 3.71894C3.13428 3.76635 3.13493 3.81383 3.13492 3.86128C3.13488 4.61649 3.1346 5.37171 3.13521 6.12692C3.1353 6.22646 3.12495 6.32369 3.09657 6.41936C2.9998 6.74554 2.68306 7.00327 2.2955 6.9865C1.9969 6.97359 1.6484 6.76564 1.55661 6.3532C1.53966 6.27701 1.5432 6.19613 1.53733 6.11742C1.53704 6.11349 1.53728 6.10952 1.53728 6.10556C1.53728 5.69435 1.53728 5.28313 1.53731 4.87192Z" fill="#464646"/>
<path fill-rule="evenodd" clip-rule="evenodd" d="M11.1145 16.7106C10.2774 16.7058 9.4996 16.4809 8.77763 16.0554C8.61288 15.9584 8.45429 15.8496 8.29836 15.7383C8.1357 15.6222 8.03425 15.4591 7.99453 15.2616C7.8865 14.7246 8.28357 14.3132 8.70561 14.2844C8.90853 14.2706 9.09072 14.3221 9.25516 14.4431C9.49273 14.6178 9.74686 14.7626 10.0197 14.8728C10.3934 15.0237 10.7816 15.1 11.1838 15.0901C11.6961 15.0774 12.1744 14.9348 12.6191 14.6785C12.7475 14.6044 12.8714 14.5214 12.993 14.4361C13.164 14.3163 13.3502 14.2666 13.5566 14.2865C13.9007 14.3198 14.2027 14.6064 14.2518 14.9543C14.2985 15.2851 14.1903 15.5558 13.924 15.7525C13.33 16.1912 12.675 16.4925 11.9512 16.632C11.6752 16.6852 11.3961 16.7133 11.1145 16.7106Z" fill="#464646"/>
<path fill-rule="evenodd" clip-rule="evenodd" d="M10.3216 11.8398C10.3216 11.7838 10.3216 11.7367 10.3216 11.6897C10.3216 10.6818 10.3216 9.67396 10.3216 8.66608C10.3216 8.58698 10.3241 8.50871 10.3416 8.4306C10.4263 8.05304 10.761 7.79028 11.1418 7.80007C11.5016 7.80932 11.8355 8.06902 11.9071 8.47387C11.9153 8.52021 11.9162 8.56833 11.9162 8.61562C11.9166 9.69859 11.9159 10.7816 11.9166 11.8645C11.917 12.5363 11.4796 13.1844 10.7868 13.3989C10.6062 13.4548 10.4216 13.48 10.2332 13.4624C9.8458 13.4261 9.53861 13.0877 9.524 12.6921C9.50863 12.2756 9.80846 11.9201 10.1932 11.8616C10.2316 11.8558 10.2698 11.8486 10.3216 11.8398Z" fill="#464646"/>
<path fill-rule="evenodd" clip-rule="evenodd" d="M6.3264 9.41686C6.32643 9.15616 6.32628 8.89545 6.32648 8.63474C6.32658 8.51906 6.34518 8.4069 6.389 8.29948C6.52187 7.97372 6.84124 7.77843 7.18941 7.80167C7.46954 7.82038 7.80582 8.01857 7.90216 8.42082C7.91943 8.49294 7.92506 8.56946 7.92533 8.644C7.92726 9.16146 7.92642 9.67893 7.9263 10.1964C7.92625 10.4367 7.85291 10.6488 7.67668 10.8134C7.44213 11.0325 7.16707 11.0977 6.86519 10.9908C6.56863 10.8857 6.3932 10.6673 6.33985 10.3521C6.33002 10.2941 6.32729 10.2343 6.32697 10.1753C6.32562 9.92249 6.32639 9.66968 6.3264 9.41686Z" fill="#464646"/>
<path fill-rule="evenodd" clip-rule="evenodd" d="M14.3147 9.41211C14.3147 9.14312 14.3141 8.87413 14.3148 8.60514C14.3155 8.37098 14.4005 8.17177 14.5706 8.01495C14.7971 7.80618 15.0645 7.74661 15.3535 7.83924C15.6435 7.93217 15.8231 8.14025 15.8903 8.44286C15.903 8.50019 15.9091 8.56025 15.9092 8.61907C15.9106 9.1531 15.9118 9.68712 15.9094 10.2211C15.9076 10.6276 15.6423 10.9531 15.2496 11.0257C14.7792 11.1127 14.3537 10.7613 14.3179 10.302C14.3145 10.2587 14.3147 10.2151 14.3146 10.1716C14.3143 9.91843 14.3145 9.66526 14.3145 9.41211C14.3146 9.41211 14.3146 9.41211 14.3147 9.41211Z" fill="#464646"/>
</svg>
