<svg width="24" height="24" viewBox="0 0 24 24" fill="none" xmlns="http://www.w3.org/2000/svg">
<path d="M9.50005 22C11.5031 22 13.3871 21.22 14.8131 19.793L21.7171 12.697C21.9971 12.409 22.0771 11.981 21.9211 11.611C21.7651 11.241 21.4021 11 21.0001 11H17.6991L21.8741 3.48601C22.0911 3.09501 22.0221 2.60901 21.7071 2.29301C21.3911 1.97801 20.9041 1.90901 20.5151 2.12601L13.4051 6.07601L13.9811 3.19701C14.0651 2.77901 13.8751 2.35401 13.5071 2.13801C13.1401 1.92301 12.6751 1.96301 12.3521 2.24001L4.19605 9.197C1.27205 12.121 1.27205 16.879 4.19605 19.803C5.61305 21.22 7.49705 22 9.50005 22ZM5.55205 10.665L11.4541 5.63401L11.2061 6.87401L11.0201 7.80401V7.80501L10.5961 9.92401L18.4261 5.57401L15.1261 11.514C15.1261 11.514 15.1261 11.515 15.1251 11.515L14.3011 13H16.0001H18.6321L13.3891 18.389C12.3501 19.428 10.9691 20 9.50005 20C8.03105 20 6.64905 19.428 5.61005 18.389C3.46705 16.245 3.46705 12.755 5.55205 10.665Z" fill="#454F5B"/>
<path d="M9.5 18C11.433 18 13 16.433 13 14.5C13 13.1 12.172 11.9 10.984 11.341C10.989 11.394 11 11.446 11 11.5C11 12.329 10.328 13 9.5 13C8.672 13 8 12.329 8 11.5C8 11.446 8.011 11.394 8.016 11.341C6.828 11.9 6 13.1 6 14.5C6 16.433 7.567 18 9.5 18Z" fill="#454F5B"/>
</svg>
