<svg width="31" height="31" viewBox="0 0 31 31" fill="none" xmlns="http://www.w3.org/2000/svg">
<path fill-rule="evenodd" clip-rule="evenodd" d="M16.125 6.75H14.7675L12.6337 4.61625C12.4 4.38125 12.0813 4.25 11.75 4.25H5.5C4.12125 4.25 3 5.37125 3 6.75V24.25C3 25.6287 4.12125 26.75 5.5 26.75H25.5C26.8787 26.75 28 25.6287 28 24.25V16.75L25.5017 19.2483L25.5025 24.25H5.5V9.25H14.25H15.5H16.125V6.75ZM23.625 6.75V9.25H25.5H28C28 7.87125 26.8787 6.75 25.5 6.75H23.625Z" fill="#4FA800"/>
<path d="M28.5175 12.6337L26.75 10.8662L21.3837 16.2325V4.25H18.8837V16.2325L13.5175 10.8662L11.75 12.6337L20.1337 21.0175L28.5175 12.6337Z" fill="#4FA800"/>
</svg>
