<svg width="51" height="60" viewBox="0 0 51 60" fill="none" xmlns="http://www.w3.org/2000/svg">
<path d="M46.196 52.8061H8.75003C6.51915 52.8061 4.70972 51.2781 4.70972 49.3929V4.41188C4.70972 2.52799 6.51915 1 8.75003 1H46.196C48.4277 1 50.2363 2.52799 50.2363 4.41188V49.3929C50.2363 51.2781 48.4277 52.8061 46.196 52.8061Z" fill="#FCA5A6"/>
<path d="M8.63452 0.999908H46.1848C48.4227 0.999908 50.2364 2.5279 50.2364 4.41179V49.3928C50.2364 51.278 48.4227 52.806 46.1848 52.806" stroke="#FFE5F5" stroke-width="0.25" stroke-miterlimit="10" stroke-linecap="round"/>
<path d="M38.3901 7.98589H11.8818V10.1594H38.3901V7.98589Z" fill="white"/>
<path d="M38.3901 16.3572H11.8818V18.5299H38.3901V16.3572Z" fill="white"/>
<path d="M38.3901 24.7279H11.8818V26.9006H38.3901V24.7279Z" fill="white"/>
<path d="M38.3901 33.0982H11.8818V35.2709H38.3901V33.0982Z" fill="white"/>
<path d="M38.3901 41.4692H11.8818V43.6419H38.3901V41.4692Z" fill="white"/>
<path d="M44.6367 11.172H41.9569C41.537 11.172 41.1963 10.8313 41.1963 10.4113V7.73156C41.1963 7.31161 41.537 6.97095 41.9569 6.97095H44.6367C45.0566 6.97095 45.3981 7.31161 45.3981 7.73156V10.4113C45.3981 10.8321 45.0566 11.172 44.6367 11.172Z" stroke="#00030E" stroke-width="0.25" stroke-miterlimit="10" stroke-linecap="round"/>
<path d="M44.6366 19.5427H41.9568C41.5368 19.5427 41.1962 19.2021 41.1962 18.7821V16.1023C41.1962 15.6824 41.5368 15.3417 41.9568 15.3417H44.6366C45.0565 15.3417 45.398 15.6824 45.398 16.1023V18.7821C45.398 19.2028 45.0565 19.5427 44.6366 19.5427Z" stroke="#00030E" stroke-width="0.25" stroke-miterlimit="10" stroke-linecap="round"/>
<path d="M44.6366 27.9142H41.9568C41.5368 27.9142 41.1962 27.5735 41.1962 27.1536V24.473C41.1962 24.053 41.5368 23.7124 41.9568 23.7124H44.6366C45.0565 23.7124 45.398 24.053 45.398 24.473V27.1536C45.398 27.5743 45.0565 27.9142 44.6366 27.9142Z" stroke="#00030E" stroke-width="0.25" stroke-miterlimit="10" stroke-linecap="round"/>
<path d="M44.6366 36.2854H41.9568C41.5368 36.2854 41.1962 35.944 41.1962 35.5248V32.8443C41.1962 32.4243 41.5368 32.0837 41.9568 32.0837H44.6366C45.0565 32.0837 45.398 32.4243 45.398 32.8443V35.5248C45.398 35.9448 45.0565 36.2854 44.6366 36.2854Z" stroke="#00030E" stroke-width="0.25" stroke-miterlimit="10" stroke-linecap="round"/>
<path d="M44.6366 44.6561H41.9568C41.5368 44.6561 41.1962 44.3154 41.1962 43.8955V41.2149C41.1962 40.7958 41.5368 40.4543 41.9568 40.4543H44.6366C45.0565 40.4543 45.398 40.7958 45.398 41.2149V43.8955C45.398 44.3162 45.0565 44.6561 44.6366 44.6561Z" stroke="#00030E" stroke-width="0.25" stroke-miterlimit="10" stroke-linecap="round"/>
<path d="M41.9568 10.3872L41.9811 7.73171L44.6366 7.75683L44.613 10.3872H41.9568Z" fill="white"/>
<path d="M41.9568 18.7575L41.9811 16.1021L44.6366 16.1272L44.613 18.7575H41.9568Z" fill="white"/>
<path d="M41.9568 27.129L41.9811 24.4727L44.6366 24.4978L44.613 27.129H41.9568Z" fill="white"/>
<path d="M10.0138 59.3975C15.5443 59.3975 20.0277 54.9039 20.0277 49.3608C20.0277 43.8178 15.5443 39.3242 10.0138 39.3242C4.48334 39.3242 0 43.8178 0 49.3608C0 54.9039 4.48334 59.3975 10.0138 59.3975Z" fill="#FFB580"/>
<path d="M1.80502 49.6352L1.18909 49.1078L9.89094 25.462L10.6243 25.3333L21.2747 38.0068L21.1574 38.6615L1.80502 49.6352ZM10.4433 26.46L2.40577 48.3009L20.279 38.1646L10.4433 26.46Z" fill="black"/>
</svg>
