<svg width="22" height="22" viewBox="0 0 22 22" fill="none" xmlns="http://www.w3.org/2000/svg">
<path d="M5.46508 16.2014C6.41658 17.7204 6.41658 18.8534 6.41658 20.1669H8.24991C8.24991 18.7727 8.24991 17.1933 7.01883 15.227L5.46508 16.2014ZM15.1286 3.10502C12.8122 1.75111 6.92075 0.849105 3.92416 3.94652C0.836829 7.13744 1.86258 12.2625 3.92508 14.3892C4.03325 14.501 4.14875 14.5991 4.26333 14.6944C4.32933 14.7504 4.39716 14.8008 4.45125 14.8631L5.82075 13.6439C5.70708 13.5156 5.57416 13.401 5.43666 13.2855C5.37066 13.2305 5.30283 13.1764 5.2405 13.1132C3.71883 11.5448 2.94333 7.59761 5.24141 5.22252C7.556 2.82911 12.6371 3.77511 14.2037 4.68994C16.6704 6.12819 17.9592 8.63894 17.9702 8.66186L19.6102 7.84144C19.5506 7.71769 18.0812 4.82652 15.1286 3.10502Z" fill="#464646"/>
<path d="M8.56229 11.7533C7.61812 10.5983 6.92421 9.62937 7.28629 8.53945C7.52737 7.81987 8.03154 7.32487 8.78687 7.06912C9.90887 6.69329 11.4635 6.92245 12.4902 7.62004L13.5196 6.10387C12.009 5.0772 9.86946 4.76829 8.19929 5.33295C6.90862 5.76929 5.96721 6.70337 5.54829 7.96012C4.83696 10.0941 6.28071 11.8596 7.14329 12.9147C7.27987 13.0825 7.40912 13.2392 7.51821 13.384C10.084 16.7959 10.084 18.433 10.084 20.1665H11.9173C11.9173 18.3001 11.9173 16.1835 8.98304 12.2822C8.86021 12.119 8.71629 11.9421 8.56229 11.7533ZM13.8707 8.68795C15.5528 10.305 16.6519 12.7644 17.4356 16.6639L19.2332 16.3018C18.3725 12.0136 17.1102 9.25721 15.1421 7.36612L13.8707 8.68795Z" fill="#464646"/>
<path d="M10.5924 8.40527L9.57031 9.92694C9.59506 9.94436 12.0554 11.6503 13.0546 15.1739L14.8182 14.6744C13.6275 10.4742 10.7152 8.48777 10.5924 8.40527ZM13.4634 16.9211C13.6559 17.9918 13.7494 19.0533 13.7494 20.167H15.5827C15.5827 18.9433 15.4801 17.7764 15.2683 16.5966L13.4634 16.9211Z" fill="#464646"/>
</svg>
