<svg width="14" height="14" viewBox="0 0 14 14" fill="none" xmlns="http://www.w3.org/2000/svg">
<path d="M13.495 7.22044L7.49496 0.553773C7.2423 0.27244 6.75696 0.27244 6.5043 0.553773L0.504297 7.22044C0.32763 7.41577 0.28363 7.69711 0.390964 7.93777C0.49763 8.17844 0.736297 8.33311 0.99963 8.33311H2.33296L2.33296 12.9998C2.33296 13.3678 2.63096 13.6664 2.99963 13.6664H4.99963C5.3683 13.6664 5.6663 13.3678 5.6663 12.9998L5.6663 10.3331L8.33296 10.3331L8.33296 12.9998C8.33296 13.3678 8.63096 13.6664 8.99963 13.6664H10.9996C11.3683 13.6664 11.6663 13.3678 11.6663 12.9998V8.33311H12.9996C13.263 8.33311 13.5016 8.17844 13.6083 7.93777C13.7156 7.69711 13.6716 7.41644 13.495 7.22044Z" fill="#464646"/>
</svg>
