<svg width="77" height="46" viewBox="0 0 77 46" fill="none" xmlns="http://www.w3.org/2000/svg">
<path d="M29.726 25.8402L0.606445 5.68066V46.0001L29.726 25.8402Z" fill="#FFC20E"/>
<path d="M29.7256 25.8402L58.8451 5.68066V46.0001L29.7256 25.8402Z" fill="#FFC20E"/>
<path d="M27.4082 24.6046L0.606445 45.7623H59.9655L33.1641 24.6046C31.4699 23.2672 29.1024 23.2672 27.4082 24.6046Z" fill="#FFDF80"/>
<path d="M26.9025 34.5507L0.606445 5.6794H58.8456L32.5498 34.5507C30.8876 36.375 28.5644 36.375 26.9025 34.5507Z" fill="#F7A30A"/>
<path d="M44.7429 30.6875L60.9215 28.4312L65.6142 32.7306L44.7429 30.6875Z" fill="#FFDF80"/>
<path d="M44.7416 30.6864L59.6864 26.6458L58.5606 22.77L44.7416 30.6864Z" fill="#FFDF80"/>
<path d="M59.6867 26.6484L58.7254 28.7387L44.7419 30.689L59.6867 26.6484Z" fill="#F7A30A"/>
<path opacity="0.25" d="M59.6867 26.6484L58.7254 28.7387L44.7419 30.689L59.6867 26.6484Z" fill="#F7A30A"/>
<path d="M60.6302 28.3308C60.6005 28.2948 60.5853 28.2467 60.592 28.1963C60.6049 28.1008 60.6929 28.0337 60.7885 28.0469C61.1187 28.0916 61.4527 28.109 61.7814 28.0988C61.878 28.0961 61.9585 28.1717 61.9616 28.2681C61.9646 28.3642 61.8891 28.4449 61.7928 28.448C61.4446 28.4588 61.0909 28.4405 60.7413 28.3928C60.6961 28.3866 60.6572 28.3635 60.6302 28.3308ZM62.8039 28.2359C62.7873 28.2158 62.7746 28.1913 62.7685 28.1637C62.7473 28.07 62.8057 27.9763 62.8997 27.9549C63.3385 27.8545 63.7671 27.702 64.1737 27.5022C64.2603 27.4598 64.3646 27.4956 64.4072 27.5817C64.4498 27.6684 64.4141 27.7729 64.3277 27.8155C63.8968 28.0272 63.4424 28.1886 62.9773 28.2952C62.9111 28.3103 62.8446 28.2853 62.8039 28.2359ZM65.1061 27.1617C65.1042 27.1593 65.1027 27.1575 65.1011 27.1552C65.0432 27.0781 65.0587 26.9689 65.1358 26.911C65.2107 26.8547 65.2843 26.7967 65.3571 26.7368C65.6312 26.5108 65.8898 26.2575 66.1262 25.9847C66.1893 25.9116 66.2995 25.9037 66.3722 25.9667C66.4444 26.0279 66.4531 26.1398 66.39 26.2129C66.1409 26.5006 65.8679 26.7676 65.5789 27.0059C65.5022 27.0691 65.4243 27.1303 65.3454 27.1897C65.2707 27.2464 65.1651 27.2333 65.1061 27.1617ZM66.8084 25.2716C66.7623 25.2157 66.7541 25.1348 66.7938 25.0695C67.0266 24.6885 67.2277 24.2766 67.3916 23.846C67.4261 23.7561 67.5271 23.7111 67.617 23.7452C67.707 23.7793 67.7521 23.8802 67.718 23.9704C67.5461 24.4206 67.3357 24.8519 67.0918 25.2514C67.0415 25.3338 66.9341 25.3597 66.8518 25.3093C66.8348 25.2989 66.8204 25.2861 66.8084 25.2716ZM67.7559 22.9064C67.7228 22.8662 67.7079 22.8115 67.7204 22.7566C67.8196 22.3208 67.8867 21.8657 67.9198 21.4033C67.9264 21.307 68.01 21.2348 68.1063 21.2419C68.2022 21.2485 68.2747 21.3316 68.268 21.4285C68.2336 21.9083 68.1641 22.3814 68.061 22.8343C68.0394 22.9281 67.946 22.987 67.8521 22.9656C67.8126 22.9565 67.7796 22.9351 67.7559 22.9064ZM67.9743 20.3641C67.9512 20.3361 67.9366 20.3005 67.9347 20.2608C67.9159 19.8152 67.8671 19.3559 67.7901 18.8952C67.7743 18.8 67.8386 18.7105 67.9337 18.6945C68.0284 18.6785 68.1185 18.7424 68.1343 18.8376C68.2135 19.3123 68.2638 19.7862 68.2835 20.2461C68.2873 20.3422 68.2128 20.4238 68.1164 20.4279C68.0598 20.4302 68.0081 20.4051 67.9743 20.3641ZM56.8631 5.82602C56.8247 5.77935 56.8114 5.71428 56.8343 5.65383C56.8681 5.56354 56.9685 5.51784 57.0585 5.55129C57.4958 5.71485 57.9329 5.89938 58.3579 6.09961C58.446 6.14065 58.4822 6.24495 58.4413 6.33175C58.4003 6.41921 58.2964 6.45632 58.2093 6.41537C57.7927 6.21876 57.3647 6.03824 56.9365 5.87804C56.9068 5.86724 56.8819 5.84882 56.8631 5.82602ZM67.5931 17.8385C67.577 17.8189 67.5647 17.7953 67.5583 17.7689C67.4498 17.3231 67.3207 16.8765 67.1751 16.4423C67.1444 16.351 67.1939 16.2523 67.2851 16.2214C67.3766 16.1909 67.4757 16.2397 67.5061 16.3314C67.6546 16.7749 67.7866 17.2309 67.8975 17.6862C67.9204 17.7798 67.8629 17.8742 67.7694 17.8973C67.7021 17.9136 67.6344 17.8886 67.5931 17.8385ZM59.1831 6.8998C59.1389 6.84612 59.1295 6.76853 59.1656 6.70408C59.2124 6.61966 59.3187 6.58957 59.4028 6.63634C59.8111 6.86388 60.2159 7.11158 60.606 7.37192C60.6855 7.42485 60.7074 7.53373 60.6541 7.61389C60.6008 7.69404 60.4923 7.71566 60.412 7.66215C60.0299 7.40689 59.6336 7.16463 59.2335 6.94151C59.2132 6.93047 59.1967 6.91632 59.1831 6.8998ZM66.7982 15.4091C66.7875 15.3962 66.7784 15.3814 66.7717 15.3649C66.5964 14.9423 66.4007 14.521 66.1901 14.1123C66.1462 14.0268 66.1796 13.9214 66.2653 13.8773C66.3511 13.8331 66.4565 13.8671 66.5005 13.9526C66.7157 14.3699 66.9152 14.7998 67.0941 15.2312C67.131 15.3202 67.0888 15.4222 66.9998 15.4594C66.9269 15.4891 66.8456 15.4666 66.7982 15.4091ZM61.319 8.30509C61.2686 8.24406 61.2651 8.15381 61.3155 8.08809C61.3742 8.01142 61.4836 7.99716 61.5603 8.0561C61.9306 8.34032 62.2949 8.64395 62.643 8.95793C62.7138 9.02044 62.7202 9.13279 62.6559 9.20445C62.5912 9.2759 62.4806 9.28145 62.4095 9.21709C62.0681 8.90905 61.7109 8.61156 61.3477 8.33265C61.3369 8.32467 61.3274 8.31533 61.319 8.30509ZM65.6427 13.1287C65.6374 13.1222 65.6324 13.1154 65.628 13.1079C65.3909 12.716 65.1343 12.3284 64.8657 11.9558C64.8093 11.8775 64.8271 11.7684 64.9053 11.7123C64.9835 11.6557 65.0925 11.6735 65.149 11.7518C65.4231 12.1319 65.6847 12.5274 65.9267 12.9271C65.9765 13.0094 65.95 13.1166 65.8678 13.1668C65.7925 13.212 65.6969 13.1944 65.6427 13.1287ZM63.2289 10.0058C63.1716 9.93634 63.1764 9.8335 63.2421 9.76992C63.3111 9.70251 63.4217 9.70423 63.4889 9.77333C63.8155 10.1095 64.1323 10.4626 64.4303 10.8227L64.4305 10.8229C64.4915 10.8969 64.4812 11.0069 64.407 11.0684C64.3327 11.1297 64.2229 11.1194 64.1612 11.0449C63.8692 10.6922 63.5589 10.3461 63.2386 10.0165C63.2351 10.013 63.2318 10.0094 63.2289 10.0058Z" fill="#464646"/>
<path d="M58 11C60.7614 11 63 8.76142 63 6C63 3.23858 60.7614 1 58 1C55.2386 1 53 3.23858 53 6C53 8.76142 55.2386 11 58 11Z" fill="#EB2629"/>
</svg>
