<svg width="59" height="56" viewBox="0 0 59 56" fill="none" xmlns="http://www.w3.org/2000/svg">
<path d="M0 21.35L26.3063 0.966043C27.9689 -0.322014 30.2929 -0.322014 31.9558 0.966043L58.2618 21.35V55.5102H0V21.35Z" fill="#F7A30A"/>
<path d="M51.523 3.24414H6.74023V52.4929H51.523V3.24414Z" fill="#FAFAFA"/>
<path d="M48.8276 6.20801H9.43652V7.70978H48.8276V6.20801Z" fill="#DBDBDB"/>
<path d="M42.9131 9.22656H9.43652V10.728H42.9131V9.22656Z" fill="#DBDBDB"/>
<path d="M37.4801 12.2441H9.43555V13.7459H37.4801V12.2441Z" fill="#DBDBDB"/>
<path d="M37.4801 18.0371H9.43555V19.5389H37.4801V18.0371Z" fill="#DBDBDB"/>
<path d="M30.2385 20.9355H9.43652V22.437H30.2385V20.9355Z" fill="#DBDBDB"/>
<path d="M49.9338 27.0039H29.1318V28.5057H49.9338V27.0039Z" fill="#DBDBDB"/>
<path d="M49.9341 29.9609H33.0146V31.4624H49.9341V29.9609Z" fill="#DBDBDB"/>
<path d="M29.1311 38.4392L0 21.3691V55.5096L29.1311 38.4392Z" fill="#FFC20E"/>
<path d="M29.1318 38.4392L58.2626 21.3691V55.5096L29.1318 38.4392Z" fill="#FFC20E"/>
<path d="M26.3063 35.1265L0 55.5101H58.2618L31.9558 35.1265C30.2929 33.8381 27.9692 33.8381 26.3063 35.1265Z" fill="#FFDF80"/>
</svg>
