<svg width="57" height="44" viewBox="0 0 57 44" fill="none" xmlns="http://www.w3.org/2000/svg">
<path d="M51.7657 43.6443H8.66999C6.31168 43.6443 4.40039 41.7351 4.40039 39.3811V14.2123C4.40039 11.8575 6.31168 9.94922 8.66999 9.94922H51.7657C54.1232 9.94922 56.0353 11.8575 56.0353 14.2123V39.3811C56.0345 41.7351 54.1232 43.6443 51.7657 43.6443Z" fill="#FF993B"/>
<path d="M55.673 41.0951L30.1853 25.668L4.74316 41.0531C5.39431 42.5766 6.90664 43.6444 8.67032 43.6444H51.766C53.5128 43.6444 55.0117 42.5959 55.673 41.0951Z" fill="#FF993B"/>
<path d="M4.75391 12.4986L30.2407 29.8283L55.6829 12.5407C55.0326 11.0172 53.5203 9.9502 51.7558 9.9502H8.65996C6.91315 9.9502 5.41434 10.9987 4.75391 12.4986Z" fill="#FF993B"/>
<path d="M30.2397 30.3188L4.52441 12.8343L4.98156 12.1631L30.2397 29.3369L55.4549 12.2052L55.9121 12.8765L30.2397 30.3188Z" fill="#2E2E46"/>
<path d="M27.9502 16.2152H0.000394821V0H24.3935V12.4403L27.9502 16.2152Z" fill="#80C2FF"/>
<path d="M12.2179 9.42839C11.5454 9.42839 11.0003 8.88478 11.0003 8.2142C11.0003 7.54361 11.5454 7 12.2179 7C12.8904 7 13.4355 7.54361 13.4355 8.2142C13.4355 8.88478 12.8904 9.42839 12.2179 9.42839Z" fill="white"/>
<path d="M16.3478 9.48503C15.6753 9.48503 15.1301 8.94142 15.1301 8.27084C15.1301 7.60026 15.6753 7.05664 16.3478 7.05664C17.0203 7.05664 17.5654 7.60026 17.5654 8.27084C17.5654 8.94142 17.0203 9.48503 16.3478 9.48503Z" fill="white"/>
<path d="M20.4777 9.54069C19.8052 9.54069 19.26 8.99708 19.26 8.3265C19.26 7.65592 19.8052 7.1123 20.4777 7.1123C21.1502 7.1123 21.6953 7.65592 21.6953 8.3265C21.6953 8.99708 21.1502 9.54069 20.4777 9.54069Z" fill="white"/>
</svg>
