<svg width="44" height="44" viewBox="0 0 44 44" fill="none" xmlns="http://www.w3.org/2000/svg">
<path d="M40.9141 17.7024H18.5577C18.1216 17.7024 17.7694 17.3502 17.7694 16.9141V6.5158C17.7694 6.07974 18.1216 5.72754 18.5577 5.72754H40.9141C41.3501 5.72754 41.7023 6.07974 41.7023 6.5158V16.9225C41.6939 17.3502 41.3417 17.7024 40.9141 17.7024Z" fill="#4FA800"/>
<path d="M38.7505 5.72754H20.8469V17.7024H38.7505V5.72754Z" fill="#337321"/>
<path d="M40.9141 18.801H18.5577C18.1216 18.801 17.7694 18.4488 17.7694 18.0128V7.61443C17.7694 7.17837 18.1216 6.82617 18.5577 6.82617H40.9141C41.3501 6.82617 41.7023 7.17837 41.7023 7.61443V18.0211C41.6939 18.4572 41.3417 18.801 40.9141 18.801Z" fill="url(#paint0_linear_2369_121826)"/>
<path d="M38.7505 6.82617H20.8469V18.801H38.7505V6.82617Z" fill="url(#paint1_linear_2369_121826)"/>
<path d="M40.9141 20.0002H18.5577C18.1216 20.0002 17.7694 19.648 17.7694 19.212V8.81365C17.7694 8.37759 18.1216 8.02539 18.5577 8.02539H40.9141C41.3501 8.02539 41.7023 8.37759 41.7023 8.81365V19.2204C41.6939 19.648 41.3417 20.0002 40.9141 20.0002Z" fill="#ABD653"/>
<path d="M38.9036 8H21V19.9748H38.9036V8Z" fill="#7DBA00"/>
<path d="M27.5493 18.172C29.8418 18.172 31.7002 16.3136 31.7002 14.0211C31.7002 11.7286 29.8418 9.87012 27.5493 9.87012C25.2568 9.87012 23.3983 11.7286 23.3983 14.0211C23.3983 16.3136 25.2568 18.172 27.5493 18.172Z" fill="#ABD653"/>
<path d="M34.784 18.2055C35.2749 18.2055 35.6729 17.8075 35.6729 17.3166C35.6729 16.8257 35.2749 16.4277 34.784 16.4277C34.2931 16.4277 33.8951 16.8257 33.8951 17.3166C33.8951 17.8075 34.2931 18.2055 34.784 18.2055Z" fill="#ABD653"/>
<path d="M37.1992 18.2055C37.6901 18.2055 38.0881 17.8075 38.0881 17.3166C38.0881 16.8257 37.6901 16.4277 37.1992 16.4277C36.7083 16.4277 36.3103 16.8257 36.3103 17.3166C36.3103 17.8075 36.7083 18.2055 37.1992 18.2055Z" fill="#ABD653"/>
<path d="M38.6331 26.6745L38.1803 25.9114C37.5262 24.8129 36.1258 24.402 34.9853 24.9806L22.7841 31.1106L26.5912 32.3098L38.6331 26.6745Z" fill="url(#paint2_linear_2369_121826)"/>
<path d="M40.2851 29.769L26.5409 37.3581C26.1132 37.5929 25.6016 37.6181 25.1488 37.4336L11.5555 31.6558C10.9014 31.3791 10.1551 31.4042 9.51779 31.7397L2.83435 35.2533V22.8088L10.8344 19.4042C11.8574 18.9682 13.0482 19.1778 13.8616 19.9409L18.9685 24.7376L24.4109 29.8529L26.2725 30.725C26.5073 30.834 26.7757 30.8759 27.0272 30.8424C27.1698 30.8256 27.304 30.7837 27.4381 30.725L38.2222 25.7019C38.5325 25.5594 38.8595 25.4839 39.1866 25.4839C39.958 25.4839 40.7044 25.878 41.132 26.574C41.8029 27.681 41.4256 29.1401 40.2851 29.769Z" fill="url(#paint3_linear_2369_121826)"/>
<path d="M27.0188 30.8421C26.8175 31.1189 26.6247 31.4711 26.5827 31.8316C26.4486 33.1734 26.3815 34.5738 26.3815 34.5738L16 26.9994C16 26.9994 18.1299 25.5927 18.9517 24.7373L24.41 29.8494L26.27 30.7247C26.5132 30.8337 26.7672 30.8757 27.0188 30.8421Z" fill="url(#paint4_linear_2369_121826)"/>
<path d="M2.83435 22.809L11.0692 19.3037C11.9916 18.9096 13.0314 18.9515 13.9203 19.4044L26.2725 25.7356C27.5052 26.3645 27.958 27.8907 27.2788 29.0983C26.6666 30.18 25.3417 30.6245 24.2012 30.1381L15.9832 27.0689L2.83435 22.809Z" fill="url(#paint5_linear_2369_121826)"/>
<path d="M24.7044 26.6834L24.6122 26.7589C23.9413 27.2788 23.8239 28.2432 24.3438 28.914L24.4612 29.065C24.5451 29.1656 24.6457 29.2495 24.7631 29.2998C25.4759 29.61 26.3061 29.2746 26.608 28.5534C26.9098 27.8323 26.566 27.0105 25.8449 26.717L25.5178 26.5828C25.2411 26.4654 24.9308 26.5073 24.7044 26.6834Z" fill="#FFDF80"/>
<defs>
<linearGradient id="paint0_linear_2369_121826" x1="29.7359" y1="6.82617" x2="29.7359" y2="18.801" gradientUnits="userSpaceOnUse">
<stop stop-color="#ABD653"/>
<stop offset="0.153745" stop-color="#4FA800"/>
</linearGradient>
<linearGradient id="paint1_linear_2369_121826" x1="29.7987" y1="6.82617" x2="29.7987" y2="18.801" gradientUnits="userSpaceOnUse">
<stop stop-color="#4FA800"/>
<stop offset="0.12119" stop-color="#418E10"/>
</linearGradient>
<linearGradient id="paint2_linear_2369_121826" x1="30.7086" y1="25.5268" x2="30.7086" y2="33.4737" gradientUnits="userSpaceOnUse">
<stop stop-color="#FFC20E"/>
<stop offset="1" stop-color="#F7A30A"/>
</linearGradient>
<linearGradient id="paint3_linear_2369_121826" x1="9.69797" y1="28.3701" x2="44.4759" y2="28.3701" gradientUnits="userSpaceOnUse">
<stop stop-color="#FFDF80"/>
<stop offset="1" stop-color="#FFC20E"/>
</linearGradient>
<linearGradient id="paint4_linear_2369_121826" x1="21.338" y1="30.9976" x2="22.5" y2="28.4994" gradientUnits="userSpaceOnUse">
<stop stop-color="#FFDF80" stop-opacity="0"/>
<stop offset="1" stop-color="#FAAF0C"/>
</linearGradient>
<linearGradient id="paint5_linear_2369_121826" x1="9.7775" y1="23.5833" x2="27.9051" y2="25.7909" gradientUnits="userSpaceOnUse">
<stop offset="0.114591" stop-color="#FFDF80"/>
<stop offset="1" stop-color="#FFC20E"/>
</linearGradient>
</defs>
</svg>
