<svg width="44" height="44" viewBox="0 0 44 44" fill="none" xmlns="http://www.w3.org/2000/svg">
<path d="M39.4166 10.083H36.6666V37.583H39.4166C40.4295 37.583 41.25 36.7626 41.25 35.7497V11.9163C41.25 10.9034 40.4295 10.083 39.4166 10.083Z" fill="url(#paint0_linear_2080_45623)"/>
<path d="M37.5833 35.7503V8.25033C37.5833 7.23741 36.7629 6.41699 35.75 6.41699H4.58333C3.57042 6.41699 2.75 7.23741 2.75 8.25033V35.7503C2.75 36.7632 3.57042 37.5837 4.58333 37.5837H39.4167C38.4037 37.5837 37.5833 36.7632 37.5833 35.7503Z" fill="#F7B512"/>
<path d="M33.9167 15.5837H6.41667C5.91067 15.5837 5.5 15.173 5.5 14.667V12.8337C5.5 12.3277 5.91067 11.917 6.41667 11.917H33.9167C34.4227 11.917 34.8333 12.3277 34.8333 12.8337V14.667C34.8333 15.173 34.4227 15.5837 33.9167 15.5837Z" fill="white"/>
<path d="M17.4167 33H6.41667C5.91067 33 5.5 32.5893 5.5 32.0833V20.1667C5.5 19.6607 5.91067 19.25 6.41667 19.25H17.4167C17.9227 19.25 18.3333 19.6607 18.3333 20.1667V32.0833C18.3333 32.5893 17.9227 33 17.4167 33Z" fill="white"/>
<path d="M34.8333 22H22V20.1667C22 19.6607 22.4107 19.25 22.9167 19.25H33.9167C34.4227 19.25 34.8333 19.6607 34.8333 20.1667V22Z" fill="white"/>
<path d="M34.8333 22H22V24.75H34.8333V22Z" fill="#FFF0E5"/>
<path d="M34.8333 24.75H22V27.5H34.8333V24.75Z" fill="#FFD2B3"/>
<path d="M34.8333 27.5H22V30.25H34.8333V27.5Z" fill="#FFB580"/>
<path d="M33.9167 33H22.9167C22.4107 33 22 32.5893 22 32.0833V30.25H34.8333V32.0833C34.8333 32.5893 34.4227 33 33.9167 33Z" fill="#F56600"/>
<defs>
<linearGradient id="paint0_linear_2080_45623" x1="37.5998" y1="23.833" x2="41.4113" y2="23.833" gradientUnits="userSpaceOnUse">
<stop stop-color="#A40F22"/>
<stop offset="1" stop-color="#BE1128"/>
</linearGradient>
</defs>
</svg>
