<svg width="44" height="44" viewBox="0 0 44 44" fill="none" xmlns="http://www.w3.org/2000/svg">
<path d="M11 8.25H33V30.25H11V8.25Z" fill="url(#paint0_radial_2080_45647)"/>
<path d="M11 30.25H33V39.4167C33 40.4296 32.1796 41.25 31.1667 41.25H12.8333C11.8204 41.25 11 40.4296 11 39.4167V30.25Z" fill="url(#paint1_radial_2080_45647)"/>
<path d="M33 8.25033H11V5.50033C11 4.48741 11.8204 3.66699 12.8333 3.66699H31.1667C32.1796 3.66699 33 4.48741 33 5.50033V8.25033Z" fill="#D12421"/>
<path d="M18.3334 6.64648C18.7131 6.64648 19.0209 6.33868 19.0209 5.95898C19.0209 5.57929 18.7131 5.27148 18.3334 5.27148C17.9537 5.27148 17.6459 5.57929 17.6459 5.95898C17.6459 6.33868 17.9537 6.64648 18.3334 6.64648Z" fill="#FDE8E8"/>
<path d="M25.2083 5.27148C25.0305 5.27148 20.8028 5.27148 20.625 5.27148C20.2455 5.27148 19.9375 5.57948 19.9375 5.95898C19.9375 6.33848 20.2455 6.64648 20.625 6.64648C20.8028 6.64648 25.0305 6.64648 25.2083 6.64648C25.5878 6.64648 25.8958 6.33848 25.8958 5.95898C25.8958 5.57948 25.5878 5.27148 25.2083 5.27148Z" fill="#FDE8E8"/>
<path d="M21 14C21 13.4477 21.4477 13 22 13C22.5523 13 23 13.4477 23 14V35C23 35.5523 22.5523 36 22 36C21.4477 36 21 35.5523 21 35V14Z" fill="#454F5B"/>
<mask id="mask0_2080_45647" style="mask-type:alpha" maskUnits="userSpaceOnUse" x="21" y="15" width="19" height="19">
<path d="M38.794 33.9002C39.1228 33.9002 39.3936 33.3649 39.4 32.7149V16.8982C39.4 16.2355 39.1292 15.7002 38.794 15.7002H21V33.9002H38.794Z" fill="#ABD653"/>
</mask>
<g mask="url(#mask0_2080_45647)">
<path d="M38.794 33.9002C39.1228 33.9002 39.3936 33.3649 39.4 32.7149V16.8982C39.4 16.2355 39.1292 15.7002 38.794 15.7002H21V33.9002H38.794Z" fill="#ABD653"/>
<path d="M35 15.7002H21V33.9002H35V15.7002Z" fill="#7DBA00"/>
<path d="M24.5 30.7002C28.0899 30.7002 31 27.79 31 24.2002C31 20.6103 28.0899 17.7002 24.5 17.7002C20.9101 17.7002 18 20.6103 18 24.2002C18 27.79 20.9101 30.7002 24.5 30.7002Z" fill="#ABD653"/>
</g>
<rect opacity="0.07" x="21" y="15.7002" width="2" height="18.2" fill="#212B36"/>
<defs>
<radialGradient id="paint0_radial_2080_45647" cx="0" cy="0" r="1" gradientUnits="userSpaceOnUse" gradientTransform="translate(33 80) scale(50 94.3452)">
<stop offset="0.0426726" stop-color="#FFF9E5"/>
<stop offset="0.225232" stop-color="#FFF9E5"/>
<stop offset="0.542" stop-color="#FFECB3"/>
<stop offset="0.664" stop-color="#FFDF80"/>
<stop offset="0.789" stop-color="#FFC20E"/>
<stop offset="0.917" stop-color="#F7A30A"/>
<stop offset="0.944" stop-color="#F7A30A"/>
</radialGradient>
<radialGradient id="paint1_radial_2080_45647" cx="0" cy="0" r="1" gradientUnits="userSpaceOnUse" gradientTransform="translate(33 80) scale(50 94.3452)">
<stop offset="0.0426726" stop-color="#FFF9E5"/>
<stop offset="0.225232" stop-color="#FFF9E5"/>
<stop offset="0.542" stop-color="#FFECB3"/>
<stop offset="0.664" stop-color="#FFDF80"/>
<stop offset="0.789" stop-color="#FFC20E"/>
<stop offset="0.917" stop-color="#F7A30A"/>
<stop offset="0.944" stop-color="#F7A30A"/>
</radialGradient>
</defs>
</svg>
