<svg width="34" height="33" viewBox="0 0 34 33" fill="none" xmlns="http://www.w3.org/2000/svg">
<rect x="4.48572" y="5.91892" width="24.8571" height="15.3243" fill="white" fill-opacity="0.71"/>
<g filter="url(#filter0_d_6669_190609)">
<path d="M28.1 5.18919H5.72857C5.39895 5.18919 5.08282 5.30452 4.84974 5.50979C4.61666 5.71507 4.48572 5.99348 4.48572 6.28379V21.6081C4.48572 21.8984 4.61666 22.1768 4.84974 22.3821C5.08282 22.5874 5.39895 22.7027 5.72857 22.7027H28.1C28.4296 22.7027 28.7458 22.5874 28.9788 22.3821C29.2119 22.1768 29.3429 21.8984 29.3429 21.6081V6.28379C29.3429 5.99348 29.2119 5.71507 28.9788 5.50979C28.7458 5.30452 28.4296 5.18919 28.1 5.18919ZM26.8571 17.2297C25.8683 17.2297 24.9199 17.5757 24.2206 18.1915C23.5214 18.8074 23.1286 19.6426 23.1286 20.5135H10.7C10.7 19.6426 10.3072 18.8074 9.60793 18.1915C8.90869 17.5757 7.96031 17.2297 6.97143 17.2297V10.6622C7.96031 10.6622 8.90869 10.3162 9.60793 9.70037C10.3072 9.08454 10.7 8.2493 10.7 7.37838H23.1286C23.1286 8.2493 23.5214 9.08454 24.2206 9.70037C24.9199 10.3162 25.8683 10.6622 26.8571 10.6622V17.2297Z" fill="white"/>
</g>
<g filter="url(#filter1_d_6669_190609)">
<path d="M16.9143 9.56757C14.1726 9.56757 11.9429 11.5313 11.9429 13.946C11.9429 16.3606 14.1726 18.3243 16.9143 18.3243C19.656 18.3243 21.8857 16.3606 21.8857 13.946C21.8857 11.5313 19.656 9.56757 16.9143 9.56757ZM16.9143 16.1351C15.5434 16.1351 14.4286 15.1533 14.4286 13.946C14.4286 12.7386 15.5434 11.7568 16.9143 11.7568C18.2852 11.7568 19.4 12.7386 19.4 13.946C19.4 15.1533 18.2852 16.1351 16.9143 16.1351Z" fill="white"/>
</g>
<path d="M24.6188 26.2832L21.2228 28.2162H16.6657V27.5676H20.3707C20.4531 27.5675 20.534 27.5516 20.6047 27.5214C20.6754 27.4913 20.7333 27.4481 20.7722 27.3963C20.8111 27.3446 20.8296 27.2864 20.8256 27.2278C20.8217 27.1692 20.7955 27.1124 20.7498 27.0636L19.9405 26.1996C19.7744 26.0217 19.5491 25.8759 19.2847 25.775C19.0202 25.6742 18.7248 25.6215 18.4248 25.6216H11.1971C10.9554 25.6216 10.7236 25.69 10.5527 25.8116C10.3817 25.9333 10.2857 26.0982 10.2857 26.2703V30.1622C10.2857 30.5062 10.4778 30.8362 10.8196 31.0795C11.1615 31.3228 11.6251 31.4595 12.1086 31.4595H20.8938C21.2836 31.4595 21.6688 31.4003 22.0238 31.2857C22.3787 31.1712 22.6951 31.004 22.9518 30.7952L28.5143 26.2703L27.1909 25.9563C26.7579 25.8536 26.2957 25.8297 25.8464 25.8868C25.3971 25.9439 24.9751 26.0802 24.6188 26.2832Z" fill="white"/>
<rect x="6.14282" y="24.8919" width="4.14286" height="7.29729" rx="1.40426" fill="white" fill-opacity="0.71"/>
<defs>
<filter id="filter0_d_6669_190609" x="0.272952" y="0.976428" width="33.2826" height="25.939" filterUnits="userSpaceOnUse" color-interpolation-filters="sRGB">
<feFlood flood-opacity="0" result="BackgroundImageFix"/>
<feColorMatrix in="SourceAlpha" type="matrix" values="0 0 0 0 0 0 0 0 0 0 0 0 0 0 0 0 0 0 127 0" result="hardAlpha"/>
<feOffset/>
<feGaussianBlur stdDeviation="2.10638"/>
<feComposite in2="hardAlpha" operator="out"/>
<feColorMatrix type="matrix" values="0 0 0 0 0.879167 0 0 0 0 0.0915799 0 0 0 0 0.375111 0 0 0 0.34 0"/>
<feBlend mode="normal" in2="BackgroundImageFix" result="effect1_dropShadow_6669_190609"/>
<feBlend mode="normal" in="SourceGraphic" in2="effect1_dropShadow_6669_190609" result="shape"/>
</filter>
<filter id="filter1_d_6669_190609" x="7.73011" y="5.35481" width="18.3684" height="17.1823" filterUnits="userSpaceOnUse" color-interpolation-filters="sRGB">
<feFlood flood-opacity="0" result="BackgroundImageFix"/>
<feColorMatrix in="SourceAlpha" type="matrix" values="0 0 0 0 0 0 0 0 0 0 0 0 0 0 0 0 0 0 127 0" result="hardAlpha"/>
<feOffset/>
<feGaussianBlur stdDeviation="2.10638"/>
<feComposite in2="hardAlpha" operator="out"/>
<feColorMatrix type="matrix" values="0 0 0 0 0.879167 0 0 0 0 0.0915799 0 0 0 0 0.375111 0 0 0 0.34 0"/>
<feBlend mode="normal" in2="BackgroundImageFix" result="effect1_dropShadow_6669_190609"/>
<feBlend mode="normal" in="SourceGraphic" in2="effect1_dropShadow_6669_190609" result="shape"/>
</filter>
</defs>
</svg>
