<svg width="66" height="46" viewBox="0 0 66 46" fill="none" xmlns="http://www.w3.org/2000/svg">
<path d="M48.682 0H0V45.7924H48.682V0Z" fill="#FFDF80"/>
<path d="M48.682 0H0V5.29097H48.682V0Z" fill="#FFB580"/>
<path d="M25.8046 28.6402C25.4754 29.9294 24.792 31.0995 23.7834 31.925L23.3276 31.3644C25.5445 29.5518 25.9815 25.8541 24.2811 23.2896C22.778 21.0202 19.8353 19.7111 16.8503 19.9435C17.158 22.2312 16.9904 24.5755 16.2737 26.776C15.7364 28.4276 14.669 30.6257 12.6337 31.718C10.3362 32.9511 7.77906 32.0724 6.83241 30.4777C5.64099 28.4707 6.73574 25.8903 8.15429 24.1449C10.2873 21.5228 13.1419 19.7727 16.0252 19.3137C15.2344 14.9406 12.6361 10.8655 8.80465 8.61653L9.17009 7.99218C13.1921 10.3531 15.917 14.6361 16.738 19.227C19.9986 18.9551 23.2268 20.3909 24.8823 22.889C26.01 24.5908 26.2887 26.7446 25.8046 28.6402ZM7.18736 27.4744C6.95348 28.3903 6.98235 29.3123 7.45331 30.1073C8.40051 31.7045 10.7651 31.9012 12.294 31.0807C14.1171 30.1014 15.0911 28.0777 15.5879 26.5519C16.2716 24.4481 16.4318 22.2118 16.1373 20.0265C13.4277 20.4583 10.734 22.1145 8.7131 24.6005C8.04539 25.4247 7.45016 26.4453 7.18736 27.4744Z" fill="white"/>
<path d="M52.0113 41.0684C51.2585 42.7579 50.2759 44.3286 49.1408 45.7879H24.29C22.7568 43.8395 21.2136 41.8146 20.5619 39.4249C19.8919 36.968 20.4011 34.0016 22.4489 32.4935C23.8331 31.4746 25.7845 31.2941 27.3305 32.043C28.8765 32.792 29.9473 34.4382 30.0098 36.1573C30.3425 32.2439 31.7856 28.3304 34.5476 25.5437C37.3105 22.7579 41.4926 21.2636 45.2896 22.2411C48.9588 23.1853 51.8523 26.336 52.9681 29.9647C54.083 33.5925 53.5582 37.6027 52.0113 41.0684Z" fill="#FFB580"/>
<path d="M41.8373 45.9428L41.4154 45.5522C41.6342 45.3145 46.8126 39.7622 50.6335 40.8373C52.105 41.2518 53.1565 42.584 53.7668 44.8041C54.8542 42.1104 58.6089 34.3085 65.3618 34.8327L65.3177 35.4066C57.6484 34.8096 54.0132 45.7668 53.9773 45.8774L53.4222 45.8451C52.9093 43.2961 51.9184 41.7972 50.4763 41.3919C46.9928 40.4098 41.8878 45.8884 41.8373 45.9428Z" fill="black"/>
<path d="M9.4035 45.788C9.4035 45.788 29.0354 31.2739 29.0354 45.788H9.4035Z" fill="#C2E1FF"/>
</svg>
