<svg width="44" height="44" viewBox="0 0 44 44" fill="none" xmlns="http://www.w3.org/2000/svg">
<path d="M9.19995 6.59961C9.19995 5.49504 10.0954 4.59961 11.2 4.59961H32.7999C33.9045 4.59961 34.8 5.49504 34.8 6.59961V29.5996C34.8 30.7042 33.9045 31.5996 32.8 31.5996H11.2C10.0954 31.5996 9.19995 30.7042 9.19995 29.5996V6.59961Z" fill="url(#paint0_linear_2369_121832)"/>
<path d="M8.20001 10.2002C8.20001 9.09563 9.09544 8.2002 10.2 8.2002H33.7C34.8046 8.2002 35.7 9.09563 35.7 10.2002V33.2002C35.7 34.3048 34.8046 35.2002 33.7 35.2002H10.2C9.09544 35.2002 8.20001 34.3048 8.20001 33.2002V10.2002Z" fill="url(#paint1_linear_2369_121832)"/>
<path d="M7.29999 14C7.29999 12.8954 8.19542 12 9.29999 12H34.6C35.7046 12 36.6 12.8954 36.6 14V37C36.6 38.1046 35.7046 39 34.6 39H9.29999C8.19542 39 7.29999 38.1046 7.29999 37V14Z" fill="url(#paint2_linear_2369_121832)"/>
<rect x="15" y="18" width="15" height="2" rx="0.5" fill="#454F5B"/>
<rect x="15" y="22" width="13" height="2" rx="0.5" fill="#454F5B"/>
<path fill-rule="evenodd" clip-rule="evenodd" d="M16.1642 28.4004H6.5C5.94772 28.4004 5.5 28.8481 5.5 29.4004V37.4004C5.5 38.505 6.39543 39.4004 7.5 39.4004H36.5C37.6046 39.4004 38.5 38.505 38.5 37.4004V29.4004C38.5 28.8481 38.0523 28.4004 37.5 28.4004H27.8358C27.2052 31.0388 24.8317 33.0004 22 33.0004C19.1683 33.0004 16.7948 31.0388 16.1642 28.4004Z" fill="url(#paint3_linear_2369_121832)"/>
<defs>
<linearGradient id="paint0_linear_2369_121832" x1="21.5" y1="4.4996" x2="21.5604" y2="8.49869" gradientUnits="userSpaceOnUse">
<stop stop-color="#FFECB3"/>
<stop offset="1" stop-color="#FFDF80"/>
</linearGradient>
<linearGradient id="paint1_linear_2369_121832" x1="22.0001" y1="13.0002" x2="22.0062" y2="8.00021" gradientUnits="userSpaceOnUse">
<stop stop-color="#FFECB3"/>
<stop offset="1" stop-color="#FFF9E5"/>
</linearGradient>
<linearGradient id="paint2_linear_2369_121832" x1="21.9999" y1="34.5" x2="21.9999" y2="8.5" gradientUnits="userSpaceOnUse">
<stop stop-color="#D3D8DE"/>
<stop offset="0.319118" stop-color="#EAEEF2"/>
<stop offset="0.668097" stop-color="#F8F9FA"/>
<stop offset="1" stop-color="white"/>
<stop offset="1" stop-color="#F8F9FA"/>
</linearGradient>
<linearGradient id="paint3_linear_2369_121832" x1="25.5399" y1="28.5671" x2="25.7122" y2="39.3976" gradientUnits="userSpaceOnUse">
<stop stop-color="#FFDF80"/>
<stop offset="1" stop-color="#FFC20E"/>
</linearGradient>
</defs>
</svg>
