<svg width="31" height="31" viewBox="0 0 31 31" fill="none" xmlns="http://www.w3.org/2000/svg">
<path d="M9.25 21.7663L14.7662 21.7475L26.8062 9.8225C27.2787 9.35 27.5387 8.7225 27.5387 8.055C27.5387 7.3875 27.2787 6.76 26.8062 6.2875L24.8237 4.305C23.8787 3.36 22.23 3.365 21.2925 4.30125L9.25 16.2288V21.7663ZM23.0562 6.0725L25.0425 8.05125L23.0462 10.0288L21.0637 8.0475L23.0562 6.0725ZM11.75 17.2713L19.2875 9.805L21.27 11.7875L13.7337 19.2513L11.75 19.2575V17.2713Z" fill="#F56600"/>
<path d="M6.75 26.75H24.25C25.6287 26.75 26.75 25.6287 26.75 24.25V13.415L24.25 15.915V24.25H10.6975C10.665 24.25 10.6313 24.2625 10.5988 24.2625C10.5575 24.2625 10.5163 24.2512 10.4738 24.25H6.75V6.75H15.3088L17.8088 4.25H6.75C5.37125 4.25 4.25 5.37125 4.25 6.75V24.25C4.25 25.6287 5.37125 26.75 6.75 26.75Z" fill="#F56600"/>
</svg>
