<svg width="59" height="58" viewBox="0 0 59 58" fill="none" xmlns="http://www.w3.org/2000/svg">
<path d="M41.4863 52.4978H4.04031C1.80944 52.4978 0 50.9698 0 49.0846V4.10357C0 2.21969 1.80944 0.691696 4.04031 0.691696H41.4863C43.718 0.691696 45.5266 2.21969 45.5266 4.10357V49.0846C45.5266 50.9698 43.718 52.4978 41.4863 52.4978Z" fill="#D3D8DE"/>
<path d="M3.92474 0.69162H41.4751C43.7129 0.69162 45.5266 2.21961 45.5266 4.1035V49.0845C45.5266 50.9697 43.7129 52.4977 41.4751 52.4977" stroke="#FFE5F5" stroke-width="0.25" stroke-miterlimit="10" stroke-linecap="round"/>
<path d="M33.6803 7.67758H7.17206V9.85108H33.6803V7.67758Z" fill="white"/>
<path d="M33.6803 16.0489H7.17206V18.2216H33.6803V16.0489Z" fill="white"/>
<path d="M33.6803 24.4196H7.17206V26.5923H33.6803V24.4196Z" fill="white"/>
<path d="M33.6803 32.7899H7.17206V34.9626H33.6803V32.7899Z" fill="white"/>
<path d="M33.6803 41.1609H7.17206V43.3336H33.6803V41.1609Z" fill="white"/>
<path d="M39.9269 10.8637H37.2471C36.8272 10.8637 36.4865 10.523 36.4865 10.103V7.42325C36.4865 7.00331 36.8272 6.66264 37.2471 6.66264H39.9269C40.3469 6.66264 40.6883 7.00331 40.6883 7.42325V10.103C40.6883 10.5238 40.3469 10.8637 39.9269 10.8637Z" stroke="#00030E" stroke-width="0.25" stroke-miterlimit="10" stroke-linecap="round"/>
<path d="M39.9269 19.2344H37.2471C36.8272 19.2344 36.4865 18.8938 36.4865 18.4738V15.794C36.4865 15.3741 36.8272 15.0334 37.2471 15.0334H39.9269C40.3469 15.0334 40.6883 15.3741 40.6883 15.794V18.4738C40.6883 18.8945 40.3469 19.2344 39.9269 19.2344Z" stroke="#00030E" stroke-width="0.25" stroke-miterlimit="10" stroke-linecap="round"/>
<path d="M39.9269 27.6059H37.2471C36.8272 27.6059 36.4865 27.2652 36.4865 26.8453V24.1647C36.4865 23.7447 36.8272 23.4041 37.2471 23.4041H39.9269C40.3469 23.4041 40.6883 23.7447 40.6883 24.1647V26.8453C40.6883 27.266 40.3469 27.6059 39.9269 27.6059Z" stroke="#00030E" stroke-width="0.25" stroke-miterlimit="10" stroke-linecap="round"/>
<path d="M39.9269 35.9771H37.2471C36.8272 35.9771 36.4865 35.6357 36.4865 35.2165V32.536C36.4865 32.116 36.8272 31.7754 37.2471 31.7754H39.9269C40.3469 31.7754 40.6883 32.116 40.6883 32.536V35.2165C40.6883 35.6365 40.3469 35.9771 39.9269 35.9771Z" stroke="#00030E" stroke-width="0.25" stroke-miterlimit="10" stroke-linecap="round"/>
<path d="M39.9269 44.3478H37.2471C36.8272 44.3478 36.4865 44.0071 36.4865 43.5872V40.9066C36.4865 40.4875 36.8272 40.146 37.2471 40.146H39.9269C40.3469 40.146 40.6883 40.4875 40.6883 40.9066V43.5872C40.6883 44.0079 40.3469 44.3478 39.9269 44.3478Z" stroke="#00030E" stroke-width="0.25" stroke-miterlimit="10" stroke-linecap="round"/>
<path d="M37.2471 10.0789L37.2714 7.42341L39.9269 7.44852L39.9033 10.0789H37.2471Z" fill="white"/>
<path d="M37.2471 18.4492L37.2714 15.7938L39.9269 15.8189L39.9033 18.4492H37.2471Z" fill="white"/>
<path d="M37.2471 26.8207L37.2714 24.1644L39.9269 24.1895L39.9033 26.8207H37.2471Z" fill="white"/>
<path d="M24.3162 42.4829L50.6991 5.09095L57.4783 9.88971L31.0963 47.2819L23.0939 51.4198L24.3162 42.4829Z" fill="#FFDF80"/>
<path d="M48.8425 7.72171L55.6222 12.5204L55.9675 12.031L49.1878 7.23229L48.8425 7.72171Z" fill="black"/>
<path d="M24.3162 42.4832L31.0963 47.2822L25.9755 49.9304L23.0939 51.4201L23.534 48.2034L24.3162 42.4832Z" fill="white"/>
<path d="M23.534 48.203L25.9755 49.93L23.094 51.4196L23.534 48.203Z" fill="black"/>
</svg>
