<svg width="13" height="13" viewBox="0 0 13 13" fill="none" xmlns="http://www.w3.org/2000/svg">
<path d="M5.66683 11C6.8975 11 8.02883 10.5767 8.9315 9.87468L11.8622 12.8053L12.8048 11.8627L9.87416 8.93201C10.5768 8.02868 11.0002 6.89734 11.0002 5.66668C11.0002 2.72601 8.6075 0.333344 5.66683 0.333344C2.72616 0.333344 0.333496 2.72601 0.333496 5.66668C0.333496 8.60734 2.72616 11 5.66683 11ZM5.66683 1.66668C7.87283 1.66668 9.66683 3.46068 9.66683 5.66668C9.66683 7.87268 7.87283 9.66668 5.66683 9.66668C3.46083 9.66668 1.66683 7.87268 1.66683 5.66668C1.66683 3.46068 3.46083 1.66668 5.66683 1.66668Z" fill="#464646"/>
</svg>
