<svg width="19" height="20" viewBox="0 0 19 20" fill="none" xmlns="http://www.w3.org/2000/svg">
<path d="M18.5627 0.340186C18.4189 0.242298 18.2521 0.183537 18.0787 0.169686C17.9053 0.155834 17.7313 0.187368 17.5737 0.261186L0.573737 8.26119C0.399965 8.34307 0.253455 8.47327 0.151727 8.63623C0.0499993 8.79918 -0.00264053 8.98798 0.00010195 9.18006C0.00284443 9.37214 0.0608533 9.55937 0.167192 9.71935C0.27353 9.87933 0.423698 10.0053 0.599737 10.0822L5.99974 12.4452V19.1672L11.8357 14.9992L16.5997 17.0832C16.7468 17.1476 16.9072 17.1757 17.0675 17.165C17.2277 17.1543 17.3829 17.1052 17.5202 17.0218C17.6574 16.9384 17.7725 16.8232 17.8558 16.686C17.9391 16.5487 17.9881 16.3934 17.9987 16.2332L18.9987 1.23319C19.0097 1.05931 18.9753 0.88558 18.8988 0.729026C18.8224 0.572472 18.7066 0.438477 18.5627 0.340186ZM16.0967 14.6802L10.8277 12.3742L13.9997 6.16719L6.35074 10.4172L3.41874 9.13419L16.8897 2.79419L16.0967 14.6802Z" fill="#454F5B"/>
</svg>
