<svg width="24" height="24" viewBox="0 0 24 24" fill="none" xmlns="http://www.w3.org/2000/svg">
<path fill-rule="evenodd" clip-rule="evenodd" d="M12 8.75C10.2051 8.75 8.75 10.2051 8.75 12C8.75 13.7949 10.2051 15.25 12 15.25C13.7949 15.25 15.25 13.7949 15.25 12C15.25 10.2051 13.7949 8.75 12 8.75ZM10.75 12C10.75 11.3096 11.3096 10.75 12 10.75C12.6903 10.75 13.25 11.3097 13.25 12C13.25 12.6903 12.6903 13.25 12 13.25C11.3096 13.25 10.75 12.6904 10.75 12Z" fill="#454F5B"/>
<path fill-rule="evenodd" clip-rule="evenodd" d="M15.1195 5.04901C15.2416 5.68821 15.8834 6.11189 16.553 5.99532C16.6189 5.98386 16.6836 5.96729 16.7466 5.94583L19.1109 5.13886C19.3461 5.05865 19.6085 5.12165 19.7758 5.29841C20.7652 6.3437 21.5149 7.5771 21.97 8.92079C22.0469 9.14748 21.9728 9.396 21.7826 9.55018L19.8662 11.1032C19.3473 11.5238 19.2838 12.2662 19.7245 12.7615C19.7678 12.8102 19.8151 12.8555 19.8662 12.8968L21.7826 14.4499C21.9728 14.6041 22.0469 14.8526 21.97 15.0792C21.5149 16.423 20.7652 17.6564 19.7758 18.7017C19.6085 18.8784 19.3461 18.9415 19.1109 18.8613L16.7467 18.0542C16.1057 17.8356 15.4004 18.1544 15.1713 18.7662C15.1488 18.8264 15.1315 18.8881 15.1194 18.9511L14.6677 21.3114C14.6229 21.546 14.4341 21.7316 14.1897 21.7811C13.4751 21.9263 12.7423 22 12 22C11.2572 22 10.524 21.9261 9.80891 21.7809C9.56451 21.7312 9.37571 21.5457 9.33092 21.3109L8.88051 18.951C8.75839 18.3118 8.11653 17.8881 7.44688 18.0047C7.38103 18.0162 7.31629 18.0328 7.25335 18.0542L4.88895 18.8613C4.65396 18.9415 4.39149 18.8784 4.22419 18.7017C3.23487 17.6564 2.48508 16.423 2.02992 15.0792C1.95313 14.8526 2.02717 14.6041 2.21743 14.4499L4.13379 12.8968C4.65266 12.4763 4.71612 11.7338 4.27553 11.2385C4.23221 11.1898 4.1848 11.1446 4.13381 11.1033L2.21743 9.55018C2.02717 9.396 1.95313 9.14748 2.02992 8.92079C2.48508 7.5771 3.23487 6.3437 4.22419 5.29841C4.39149 5.12165 4.65396 5.05865 4.88895 5.13886L7.25324 5.9458C7.89425 6.16446 8.59957 5.8457 8.82863 5.23384C8.85115 5.17367 8.86851 5.11187 8.88049 5.04911L9.33092 2.6891C9.37571 2.45444 9.56451 2.26884 9.80891 2.21917C10.524 2.07389 11.2572 2 12 2C12.7423 2 13.4751 2.07379 14.1897 2.21891C14.4341 2.26852 14.6229 2.45402 14.6677 2.68858L15.1195 5.04901ZM11.1107 3.96098L10.8368 5.39606C10.8084 5.54445 10.7688 5.69083 10.7183 5.83353C10.7122 5.85063 10.706 5.86769 10.6997 5.88468C10.0947 7.50074 8.24832 8.31901 6.58923 7.75306L5.12873 7.2546C4.78512 7.70494 4.49137 8.18741 4.25241 8.69445L5.41399 9.63581C5.54754 9.74405 5.67191 9.86273 5.78562 9.99057C6.94812 11.2974 6.77697 13.2595 5.41405 14.3642L4.25241 15.3056C4.49137 15.8126 4.78512 16.2951 5.12874 16.7454L6.58918 16.2471C6.75342 16.1909 6.9222 16.1479 7.09311 16.118C8.82461 15.8166 10.5131 16.9097 10.8367 18.6038L11.1107 20.0391C11.4041 20.0682 11.7008 20.0828 12 20.0828C12.2989 20.0828 12.5953 20.0682 12.8885 20.0392L13.1632 18.6039C13.1949 18.4379 13.2408 18.2742 13.3003 18.1154C13.9053 16.4993 15.7514 15.6809 17.4104 16.2469L18.8713 16.7454C19.2148 16.2951 19.5086 15.8126 19.7476 15.3056L18.5861 14.3643C18.4525 14.2561 18.3281 14.1374 18.2144 14.0095C17.0519 12.7027 17.223 10.7405 18.5858 9.63586L19.7476 8.69445C19.5086 8.18743 19.2148 7.70495 18.8713 7.25461L17.4106 7.7531C17.2466 7.80906 17.0777 7.85225 16.9067 7.88204C15.6275 8.10469 14.3719 7.56632 13.6727 6.58679C13.4256 6.24054 13.2479 5.83916 13.1633 5.39679L13.0741 4.9307L12.8885 3.9609C12.5953 3.9319 12.2989 3.91724 12 3.91724C11.8483 3.91724 11.6973 3.92101 11.5469 3.92852C11.4008 3.93582 11.2554 3.94665 11.1107 3.96098Z" fill="#454F5B"/>
</svg>
