<svg width="32" height="32" viewBox="0 0 32 32" fill="none" xmlns="http://www.w3.org/2000/svg">
<circle cx="16" cy="16" r="16" fill="#FF993B"/>
<path d="M21.8333 12.6667H20.1666V15.1667H17.6666V16.8333H20.1666V19.3333H21.8333V16.8333H24.3333V15.1667H21.8333V12.6667ZM9.33329 12.6667C9.32303 13.1072 9.40224 13.5453 9.56612 13.9543C9.73 14.3634 9.97516 14.735 10.2868 15.0465C10.5984 15.3581 10.9699 15.6033 11.379 15.7672C11.788 15.9311 12.2261 16.0103 12.6666 16C13.1072 16.0103 13.5452 15.9311 13.9543 15.7672C14.3633 15.6033 14.7349 15.3581 15.0465 15.0465C15.3581 14.735 15.6033 14.3634 15.7671 13.9543C15.931 13.5453 16.0102 13.1072 16 12.6667C16.0102 12.2261 15.931 11.7881 15.7671 11.379C15.6033 10.97 15.3581 10.5984 15.0465 10.2868C14.7349 9.97521 14.3633 9.73005 13.9543 9.56617C13.5452 9.40229 13.1072 9.32308 12.6666 9.33334C12.2261 9.32308 11.788 9.40229 11.379 9.56617C10.9699 9.73005 10.5984 9.97521 10.2868 10.2868C9.97516 10.5984 9.73 10.97 9.56612 11.379C9.40224 11.7881 9.32303 12.2261 9.33329 12.6667ZM14.3333 12.6667C14.344 12.8884 14.3082 13.1099 14.2283 13.3169C14.1483 13.524 14.0259 13.7121 13.869 13.869C13.712 14.026 13.524 14.1484 13.3169 14.2283C13.1098 14.3083 12.8883 14.3441 12.6666 14.3333C12.4449 14.3441 12.2234 14.3083 12.0164 14.2283C11.8093 14.1484 11.6212 14.026 11.4643 13.869C11.3073 13.7121 11.1849 13.524 11.105 13.3169C11.025 13.1099 10.9892 12.8884 11 12.6667C10.9892 12.445 11.025 12.2235 11.105 12.0164C11.1849 11.8093 11.3073 11.6213 11.4643 11.4643C11.6212 11.3074 11.8093 11.185 12.0164 11.105C12.2234 11.0251 12.4449 10.9893 12.6666 11C12.8883 10.9893 13.1098 11.0251 13.3169 11.105C13.524 11.185 13.712 11.3074 13.869 11.4643C14.0259 11.6213 14.1483 11.8093 14.2283 12.0164C14.3082 12.2235 14.344 12.445 14.3333 12.6667ZM9.33329 21C9.33329 20.337 9.59668 19.7011 10.0655 19.2322C10.5344 18.7634 11.1703 18.5 11.8333 18.5H13.5C14.163 18.5 14.7989 18.7634 15.2677 19.2322C15.7366 19.7011 16 20.337 16 21V21.8333H17.6666V21C17.6666 20.4528 17.5589 19.911 17.3495 19.4055C17.1401 18.9 16.8331 18.4406 16.4462 18.0537C16.0593 17.6668 15.6 17.3599 15.0945 17.1505C14.589 16.9411 14.0471 16.8333 13.5 16.8333H11.8333C10.7282 16.8333 9.66842 17.2723 8.88701 18.0537C8.10561 18.8351 7.66663 19.8949 7.66663 21V21.8333H9.33329V21Z" fill="white"/>
</svg>
