<svg width="42" height="42" viewBox="0 0 42 42" fill="none" xmlns="http://www.w3.org/2000/svg">
<circle cx="21" cy="21" r="20" fill="#FF4548"/>
<path d="M31.5042 28.7194L29.4034 23.2577C29.2468 22.8506 28.8555 22.5817 28.4189 22.5817H23.079V24.5591H27.561C27.9249 24.5591 28.2201 24.8543 28.2201 25.2182C28.2201 25.582 27.9249 25.8773 27.561 25.8773H23.079V27.3274C23.079 28.1231 22.8043 28.8544 22.3471 29.4366H31.0117C31.3813 29.436 31.637 29.0648 31.5042 28.7194ZM19.6516 12.5625H12.7967C11.6319 12.5625 10.6875 13.5069 10.6875 14.6717V27.3268C10.6875 28.4916 11.6319 29.436 12.7967 29.436H19.6516C20.8164 29.436 21.7607 28.4916 21.7607 27.3268V14.6717C21.7607 13.5069 20.8164 12.5625 19.6516 12.5625ZM17.0151 27.7223H15.4332C15.0693 27.7223 14.7741 27.427 14.7741 27.0632C14.7741 26.6994 15.0693 26.4041 15.4332 26.4041H17.0151C17.3789 26.4041 17.6742 26.6994 17.6742 27.0632C17.6742 27.427 17.3789 27.7223 17.0151 27.7223ZM18.597 25.0858H13.8513C13.4875 25.0858 13.1922 24.7905 13.1922 24.4267C13.1922 24.0629 13.4875 23.7676 13.8513 23.7676H18.597C18.9608 23.7676 19.2561 24.0629 19.2561 24.4267C19.2561 24.7905 18.9608 25.0858 18.597 25.0858ZM19.3057 19.8055C18.8205 21.0715 17.5835 21.9226 16.2278 21.9226C14.8605 21.9226 13.6203 21.0631 13.141 19.7833C13.0134 19.4427 13.1864 19.0625 13.527 18.9349C13.8676 18.8078 14.2473 18.9802 14.3754 19.3209C14.6628 20.0886 15.4073 20.6043 16.2278 20.6043C17.0414 20.6043 17.7833 20.0939 18.0749 19.3341C18.2052 18.994 18.5875 18.8242 18.926 18.9544C19.2661 19.0847 19.4359 19.4654 19.3057 19.8055ZM18.9339 17.9815C18.8717 18 18.8089 18.009 18.7467 18.009C18.4625 18.009 18.1999 17.8234 18.1155 17.5365C17.8688 16.7039 17.0889 16.1218 16.2189 16.1218C15.3488 16.1218 14.59 16.6791 14.3311 17.508C14.222 17.855 13.8529 18.0475 13.5054 17.9404C13.1579 17.8318 12.9644 17.4621 13.073 17.1147C13.5054 15.7326 14.7698 14.8035 16.2194 14.8035C17.6689 14.8035 18.9687 15.7737 19.3795 17.1626C19.4823 17.5117 19.283 17.8787 18.9339 17.9815Z" fill="white"/>
<path d="M26.8755 18.1659C26.1299 17.867 25.7755 17.5126 25.4765 16.767C25.3922 16.5566 25.0858 16.5566 25.0009 16.767C24.7019 17.5126 24.3476 17.867 23.6025 18.1659C23.3916 18.2503 23.3916 18.5572 23.6025 18.6416C24.3476 18.9405 24.7019 19.2949 25.0009 20.04C25.0858 20.2509 25.3922 20.2509 25.4765 20.04C25.7755 19.2949 26.1299 18.9405 26.8755 18.6416C27.0869 18.5577 27.0869 18.2508 26.8755 18.1659ZM31.6438 19.7832C31.0084 19.5279 30.7063 19.2253 30.4511 18.5894C30.3783 18.4096 30.1168 18.4096 30.0445 18.5894C29.7898 19.2253 29.4866 19.5274 28.8512 19.7832C28.6709 19.8554 28.6709 20.1169 28.8512 20.1892C29.4866 20.4444 29.7893 20.7465 30.0445 21.3825C30.1168 21.5628 30.3783 21.5628 30.4511 21.3825C30.7057 20.7465 31.0084 20.4449 31.6438 20.1892C31.8241 20.1169 31.8241 19.8554 31.6438 19.7832ZM28.5038 14.545C27.9775 14.3335 27.727 14.0836 27.5161 13.5568C27.4565 13.4081 27.2398 13.4081 27.1797 13.5568C26.9683 14.0836 26.7183 14.3335 26.1916 14.545C26.0429 14.6046 26.0429 14.8208 26.1916 14.8809C26.7183 15.0918 26.9683 15.3423 27.1797 15.869C27.2393 16.0177 27.456 16.0177 27.5161 15.869C27.727 15.3423 27.9775 15.0918 28.5038 14.8809C28.653 14.8213 28.653 14.6051 28.5038 14.545Z" fill="white"/>
</svg>
