<svg width="32" height="32" viewBox="0 0 32 32" fill="none" xmlns="http://www.w3.org/2000/svg">
<circle cx="16" cy="16" r="16" fill="#7B61FF"/>
<path d="M23.5 12.9989C23.5 12.7266 23.3523 12.4761 23.113 12.3434L16.3465 8.59337C16.1208 8.46887 15.8463 8.46887 15.6205 8.59337L8.887 12.3134C8.6485 12.4454 8.50075 12.6959 8.5 12.9681C8.49925 13.2396 8.64625 13.4916 8.88475 13.6244L15.6513 17.4044C15.7653 17.4681 15.8905 17.4996 16.0165 17.4996C16.1425 17.4996 16.2678 17.4681 16.381 17.4051L23.1145 13.6551C23.353 13.5224 23.5 13.2711 23.5 12.9989ZM16.0173 15.8901L10.795 12.9734L15.9828 10.1069L21.2058 13.0011L16.0173 15.8901Z" fill="white"/>
<path d="M22.3865 15.3447L16.0002 18.8922L9.61399 15.3447L8.88574 16.6557L15.6357 20.4057C15.749 20.4687 15.875 20.5002 16.0002 20.5002C16.1255 20.5002 16.2515 20.4687 16.364 20.4057L23.114 16.6557L22.3865 15.3447Z" fill="white"/>
<path d="M22.3865 18.3447L16.0002 21.8922L9.61399 18.3447L8.88574 19.6557L15.6357 23.4057C15.749 23.4687 15.875 23.5002 16.0002 23.5002C16.1255 23.5002 16.2515 23.4687 16.364 23.4057L23.114 19.6557L22.3865 18.3447Z" fill="white"/>
</svg>
