<svg width="32" height="32" viewBox="0 0 32 32" fill="none" xmlns="http://www.w3.org/2000/svg">
<circle cx="16" cy="16" r="16" fill="#FD5437"/>
<path d="M18.9275 23.0016C19.1267 23.0027 19.3241 22.9642 19.5083 22.8882C19.6924 22.8122 19.8596 22.7003 20 22.5591L22.0325 20.5266C22.1722 20.386 22.2506 20.196 22.2506 19.9978C22.2506 19.7997 22.1722 19.6096 22.0325 19.4691L19.0325 16.4691C18.892 16.3294 18.7019 16.251 18.5038 16.251C18.3056 16.251 18.1155 16.3294 17.975 16.4691L16.775 17.6616C15.9442 17.4401 15.1748 17.0322 14.525 16.4691C13.9634 15.8183 13.5557 15.0492 13.3325 14.2191L14.525 13.0191C14.6647 12.8785 14.7431 12.6885 14.7431 12.4903C14.7431 12.2922 14.6647 12.1021 14.525 11.9616L11.525 8.96157C11.3845 8.82188 11.1944 8.74348 10.9963 8.74348C10.7981 8.74348 10.608 8.82188 10.4675 8.96157L8.44252 11.0016C8.30125 11.142 8.18936 11.3092 8.11338 11.4933C8.03741 11.6774 7.99887 11.8749 8.00003 12.0741C8.06807 14.9558 9.21958 17.706 11.225 19.7766C13.2956 21.782 16.0458 22.9335 18.9275 23.0016ZM11 10.5591L12.9425 12.5016L11.975 13.4691C11.8834 13.5549 11.8148 13.6624 11.7755 13.7816C11.7361 13.9009 11.7274 14.0281 11.75 14.1516C12.0304 15.4043 12.6239 16.5656 13.475 17.5266C14.4353 18.3788 15.5968 18.9725 16.85 19.2516C16.9717 19.277 17.0977 19.2718 17.2168 19.2365C17.336 19.2011 17.4444 19.1367 17.5325 19.0491L18.5 18.0591L20.4425 20.0016L18.9425 21.5016C16.4553 21.4375 14.0822 20.4449 12.29 18.7191C10.5597 16.9262 9.56423 14.5499 9.50003 12.0591L11 10.5591ZM21.5 14.7516H23C23.0195 13.8598 22.8582 12.9734 22.5258 12.1456C22.1935 11.3179 21.697 10.566 21.0663 9.93529C20.4356 9.30458 19.6837 8.80809 18.856 8.47576C18.0282 8.14343 17.1418 7.98212 16.25 8.00157V9.50157C16.946 9.4775 17.6394 9.59683 18.2872 9.85215C18.9351 10.1075 19.5235 10.4933 20.0159 10.9857C20.5083 11.4781 20.8941 12.0665 21.1494 12.7143C21.4048 13.3622 21.5241 14.0556 21.5 14.7516Z" fill="white"/>
<path d="M16.25 12.502C17.825 12.502 18.5 13.177 18.5 14.752H20C20 12.337 18.665 11.002 16.25 11.002V12.502Z" fill="white"/>
</svg>
