<svg width="32" height="32" viewBox="0 0 32 32" fill="none" xmlns="http://www.w3.org/2000/svg">
<circle cx="16" cy="16.0001" r="16" fill="#3BB281"/>
<path d="M21.3334 12.6667H20.5274C20.6147 12.3927 20.6667 12.064 20.6667 11.6667C20.6667 10.38 19.62 9.33334 18.3334 9.33334C17.252 9.33334 16.53 10.3213 16.064 11.39C15.6047 10.38 14.846 9.33334 13.6667 9.33334C12.38 9.33334 11.3334 10.38 11.3334 11.6667C11.3334 12.064 11.386 12.3927 11.4727 12.6667H10.6667C9.93137 12.6667 9.33337 13.2647 9.33337 14V15.3333C9.33337 16.0687 9.93137 16.6667 10.6667 16.6667V21.3333C10.6667 22.0687 11.2647 22.6667 12 22.6667H15.3334H16.6667H20C20.7354 22.6667 21.3334 22.0687 21.3334 21.3333V16.6667C22.0687 16.6667 22.6667 16.0687 22.6667 15.3333V14C22.6667 13.2647 22.0687 12.6667 21.3334 12.6667ZM18.3334 10.6667C18.8847 10.6667 19.3334 11.1153 19.3334 11.6667C19.3334 12.6667 18.916 12.6667 18.6667 12.6667H17.0147C17.3554 11.616 17.85 10.6667 18.3334 10.6667ZM12.6667 11.6667C12.6667 11.1153 13.1154 10.6667 13.6667 10.6667C14.2587 10.6667 14.8094 11.6833 15.132 12.6667H13.3334C13.084 12.6667 12.6667 12.6667 12.6667 11.6667ZM10.6667 14H15.3334V15.3333H10.6667V14ZM12 21.3333V16.6667H15.3334V21.3333H12ZM20 21.3333H16.6667V16.6667H20V21.3333ZM16.6667 15.3333V14.0567C16.67 14.038 16.674 14.0187 16.678 14H21.3334L21.334 15.3333H16.6667Z" fill="white"/>
</svg>
