<svg width="32" height="32" viewBox="0 0 32 32" fill="none" xmlns="http://www.w3.org/2000/svg">
<circle cx="16" cy="16" r="16" fill="#2788FA"/>
<path d="M16 8.5C14.5166 8.5 13.0666 8.93987 11.8332 9.76398C10.5999 10.5881 9.63856 11.7594 9.07091 13.1299C8.50325 14.5003 8.35472 16.0083 8.64411 17.4632C8.9335 18.918 9.64781 20.2544 10.6967 21.3033C11.7456 22.3522 13.082 23.0665 14.5368 23.3559C15.9917 23.6453 17.4997 23.4968 18.8701 22.9291C20.2406 22.3614 21.4119 21.4001 22.236 20.1668C23.0601 18.9334 23.5 17.4834 23.5 16C23.5 15.0151 23.306 14.0398 22.9291 13.1299C22.5522 12.2199 21.9997 11.3931 21.3033 10.6967C20.6069 10.0003 19.7801 9.44781 18.8701 9.0709C17.9602 8.69399 16.9849 8.5 16 8.5ZM16 22C14.8133 22 13.6533 21.6481 12.6666 20.9888C11.6799 20.3295 10.9109 19.3925 10.4567 18.2961C10.0026 17.1997 9.88378 15.9933 10.1153 14.8295C10.3468 13.6656 10.9182 12.5965 11.7574 11.7574C12.5965 10.9182 13.6656 10.3468 14.8295 10.1153C15.9933 9.88378 17.1997 10.0026 18.2961 10.4567C19.3925 10.9108 20.3295 11.6799 20.9888 12.6666C21.6481 13.6533 22 14.8133 22 16C22 17.5913 21.3679 19.1174 20.2426 20.2426C19.1174 21.3679 17.5913 22 16 22Z" fill="white"/>
<path d="M16 15.25C14.5 15.25 14.5 14.7775 14.5 14.5C14.5 14.2225 15.025 13.75 16 13.75C16.975 13.75 17.0425 14.23 17.05 14.5H18.55C18.5399 13.9891 18.3561 13.4968 18.0289 13.1042C17.7018 12.7116 17.2507 12.4421 16.75 12.34V11.5H15.25V12.3175C13.75 12.565 13 13.5325 13 14.5C13 15.34 13.39 16.75 16 16.75C17.5 16.75 17.5 17.26 17.5 17.5C17.5 17.74 17.035 18.25 16 18.25C14.62 18.25 14.5 17.605 14.5 17.5H13C13 18.19 13.495 19.4125 15.25 19.69V20.5H16.75V19.69C18.25 19.435 19 18.4675 19 17.5C19 16.66 18.61 15.25 16 15.25Z" fill="white"/>
</svg>
