<svg width="32" height="32" viewBox="0 0 32 32" fill="none" xmlns="http://www.w3.org/2000/svg">
<circle cx="16" cy="16.0001" r="16" fill="#2788FA"/>
<path d="M16 7.66667C11.405 7.66667 7.66663 11.405 7.66663 16C7.66663 20.595 11.405 24.3333 16 24.3333C20.595 24.3333 24.3333 20.595 24.3333 16C24.3333 11.405 20.595 7.66667 16 7.66667ZM16 22.6667C12.3241 22.6667 9.33329 19.6758 9.33329 16C9.33329 12.3242 12.3241 9.33334 16 9.33334C19.6758 9.33334 22.6666 12.3242 22.6666 16C22.6666 19.6758 19.6758 22.6667 16 22.6667Z" fill="white"/>
<path d="M16.8333 11.8333H15.1666V16.8333H20.1666V15.1667H16.8333V11.8333Z" fill="white"/>
</svg>
