<svg width="32" height="32" viewBox="0 0 32 32" fill="none" xmlns="http://www.w3.org/2000/svg">
<circle cx="16" cy="16" r="16" fill="#B6BEC8"/>
<path d="M14.5 22.75H10C9.80109 22.75 9.61032 22.671 9.46967 22.5303C9.32902 22.3897 9.25 22.1989 9.25 22V17.5C9.25 17.3011 9.32902 17.1103 9.46967 16.9697C9.61032 16.829 9.80109 16.75 10 16.75H14.5C14.6989 16.75 14.8897 16.829 15.0303 16.9697C15.171 17.1103 15.25 17.3011 15.25 17.5V22C15.25 22.1989 15.171 22.3897 15.0303 22.5303C14.8897 22.671 14.6989 22.75 14.5 22.75ZM13.75 18.25H10.75V21.25H13.75V18.25ZM22 22.75H17.5C17.3011 22.75 17.1103 22.671 16.9697 22.5303C16.829 22.3897 16.75 22.1989 16.75 22V17.5C16.75 17.3011 16.829 17.1103 16.9697 16.9697C17.1103 16.829 17.3011 16.75 17.5 16.75H22C22.1989 16.75 22.3897 16.829 22.5303 16.9697C22.671 17.1103 22.75 17.3011 22.75 17.5V22C22.75 22.1989 22.671 22.3897 22.5303 22.5303C22.3897 22.671 22.1989 22.75 22 22.75ZM21.25 18.25H18.25V21.25H21.25V18.25ZM14.5 15.25H10C9.80109 15.25 9.61032 15.171 9.46967 15.0303C9.32902 14.8897 9.25 14.6989 9.25 14.5V10C9.25 9.80109 9.32902 9.61032 9.46967 9.46967C9.61032 9.32902 9.80109 9.25 10 9.25H14.5C14.6989 9.25 14.8897 9.32902 15.0303 9.46967C15.171 9.61032 15.25 9.80109 15.25 10V14.5C15.25 14.6989 15.171 14.8897 15.0303 15.0303C14.8897 15.171 14.6989 15.25 14.5 15.25ZM13.75 10.75H10.75V13.75H13.75V10.75ZM19.75 15.25C18.0955 15.25 16.75 13.9045 16.75 12.25C16.75 10.5955 18.0955 9.25 19.75 9.25C21.4045 9.25 22.75 10.5955 22.75 12.25C22.75 13.9045 21.4045 15.25 19.75 15.25Z" fill="white"/>
</svg>
