<svg width="28" height="28" viewBox="0 0 28 28" fill="none" xmlns="http://www.w3.org/2000/svg">
<path d="M1.99997 15.3333H3.3333V18V24.6667C3.3333 26.1373 4.5293 27.3333 5.99997 27.3333H9.99997H18H22C23.4706 27.3333 24.6666 26.1373 24.6666 24.6667V18V15.3333H26C26.5386 15.3333 27.0266 15.008 27.232 14.5107C27.4386 14.012 27.324 13.4387 26.9426 13.0573L14.9426 1.05732C14.4213 0.535987 13.5786 0.535987 13.0573 1.05732L1.0573 13.0573C0.675967 13.4387 0.561301 14.012 0.767968 14.5107C0.973301 15.008 1.4613 15.3333 1.99997 15.3333ZM11.3333 24.6667V18H16.6666V24.6667H11.3333ZM14 3.88532L22 11.8853V18L22.0013 24.6667H19.3333V18C19.3333 16.5293 18.1373 15.3333 16.6666 15.3333H11.3333C9.86263 15.3333 8.66663 16.5293 8.66663 18V24.6667H5.99997V18V14V11.8853L14 3.88532Z" fill="#D12421"/>
</svg>
