<svg width="32" height="32" viewBox="0 0 32 32" fill="none" xmlns="http://www.w3.org/2000/svg">
<circle cx="16" cy="16" r="16" fill="#FF4548"/>
<path d="M22.6666 11H20.1666V9.33332C20.1666 8.41416 19.4191 7.66666 18.5 7.66666H13.5C12.5808 7.66666 11.8333 8.41416 11.8333 9.33332V11H9.33329C8.41413 11 7.66663 11.7475 7.66663 12.6667V21.8333C7.66663 22.7525 8.41413 23.5 9.33329 23.5H22.6666C23.5858 23.5 24.3333 22.7525 24.3333 21.8333V12.6667C24.3333 11.7475 23.5858 11 22.6666 11ZM18.5 9.33332V11H13.5V9.33332H18.5ZM12.6666 12.6667H19.3333H22.6666V15.1667H9.33329V12.6667H12.6666ZM9.33329 21.8333V16.8333H14.3333V18.5H17.6666V16.8333H22.6666L22.6675 21.8333H9.33329Z" fill="white"/>
</svg>
