<svg width="32" height="32" viewBox="0 0 32 32" fill="none" xmlns="http://www.w3.org/2000/svg">
<circle cx="16" cy="16" r="16" fill="#7B61FF"/>
<path d="M10.6667 15.3335H14.6667C14.8435 15.3335 15.013 15.2633 15.1381 15.1382C15.2631 15.0132 15.3333 14.8437 15.3333 14.6668V10.6668C15.3333 10.49 15.2631 10.3205 15.1381 10.1954C15.013 10.0704 14.8435 10.0002 14.6667 10.0002H10.6667C10.4899 10.0002 10.3203 10.0704 10.1953 10.1954C10.0702 10.3205 10 10.49 10 10.6668V14.6668C10 14.8437 10.0702 15.0132 10.1953 15.1382C10.3203 15.2633 10.4899 15.3335 10.6667 15.3335ZM10.6667 22.0002H14.6667C14.8435 22.0002 15.013 21.9299 15.1381 21.8049C15.2631 21.6799 15.3333 21.5103 15.3333 21.3335V17.3335C15.3333 17.1567 15.2631 16.9871 15.1381 16.8621C15.013 16.7371 14.8435 16.6668 14.6667 16.6668H10.6667C10.4899 16.6668 10.3203 16.7371 10.1953 16.8621C10.0702 16.9871 10 17.1567 10 17.3335V21.3335C10 21.5103 10.0702 21.6799 10.1953 21.8049C10.3203 21.9299 10.4899 22.0002 10.6667 22.0002ZM17.3333 22.0002H21.3333C21.5101 22.0002 21.6797 21.9299 21.8047 21.8049C21.9298 21.6799 22 21.5103 22 21.3335V17.3335C22 17.1567 21.9298 16.9871 21.8047 16.8621C21.6797 16.7371 21.5101 16.6668 21.3333 16.6668H17.3333C17.1565 16.6668 16.987 16.7371 16.8619 16.8621C16.7369 16.9871 16.6667 17.1567 16.6667 17.3335V21.3335C16.6667 21.5103 16.7369 21.6799 16.8619 21.8049C16.987 21.9299 17.1565 22.0002 17.3333 22.0002ZM22.1953 12.1955L19.8047 9.80484C19.7428 9.74288 19.6693 9.69372 19.5885 9.66018C19.5076 9.62664 19.4209 9.60938 19.3333 9.60938C19.2458 9.60938 19.1591 9.62664 19.0782 9.66018C18.9973 9.69372 18.9239 9.74288 18.862 9.80484L16.4713 12.1955C16.4094 12.2574 16.3602 12.3308 16.3267 12.4117C16.2931 12.4926 16.2759 12.5793 16.2759 12.6668C16.2759 12.7544 16.2931 12.8411 16.3267 12.922C16.3602 13.0028 16.4094 13.0763 16.4713 13.1382L18.862 15.5288C18.9239 15.5908 18.9973 15.64 19.0782 15.6735C19.1591 15.707 19.2458 15.7243 19.3333 15.7243C19.4209 15.7243 19.5076 15.707 19.5885 15.6735C19.6693 15.64 19.7428 15.5908 19.8047 15.5288L22.1953 13.1382C22.2573 13.0763 22.3065 13.0028 22.34 12.922C22.3735 12.8411 22.3908 12.7544 22.3908 12.6668C22.3908 12.5793 22.3735 12.4926 22.34 12.4117C22.3065 12.3308 22.2573 12.2574 22.1953 12.1955Z" fill="white"/>
</svg>
