<svg width="32" height="32" viewBox="0 0 32 32" fill="none" xmlns="http://www.w3.org/2000/svg">
<circle cx="16" cy="16" r="16" fill="#3BB281"/>
<path d="M16.0833 10.8438H13.6944C13.3876 10.8438 13.1389 11.106 13.1389 11.4297C13.1389 12.0758 12.6404 12.6016 12.0278 12.6016C11.7209 12.6016 11.4722 12.8639 11.4722 13.1875V18.8125C11.4722 19.1361 11.7209 19.3984 12.0278 19.3984C12.6404 19.3984 13.1389 19.9242 13.1389 20.5703C13.1389 20.894 13.3876 21.1562 13.6944 21.1562H16.0833C16.3902 21.1562 16.6389 20.894 16.6389 20.5703C16.6389 19.9242 17.1374 19.3984 17.75 19.3984C18.0569 19.3984 18.3056 19.1361 18.3056 18.8125V13.1875C18.3056 12.8639 18.0569 12.6016 17.75 12.6016C17.1374 12.6016 16.6389 12.0758 16.6389 11.4297C16.6389 11.106 16.3902 10.8438 16.0833 10.8438ZM17.1944 13.6993V18.3007C16.4147 18.5131 15.7995 19.162 15.5981 19.9844H14.1797C13.9783 19.162 13.3631 18.5131 12.5833 18.3007V13.6993C13.3631 13.4869 13.9783 12.838 14.1797 12.0156H15.5981C15.7995 12.838 16.4147 13.4869 17.1944 13.6993ZM22.1944 21.625C22.5013 21.625 22.75 21.3627 22.75 21.0391V10.8438C22.75 9.55137 21.7531 8.5 20.5278 8.5H11.4722C10.2469 8.5 9.25 9.55137 9.25 10.8438V21.1562C9.25 22.4486 10.2469 23.5 11.4722 23.5H20.5278C21.7531 23.5 22.75 22.4486 22.75 21.1562C22.75 20.8326 22.5013 20.5703 22.1944 20.5703C21.8876 20.5703 21.6389 20.8326 21.6389 21.1562C21.6389 21.8024 21.1404 22.3281 20.5278 22.3281H20.2288C20.4185 21.9831 20.5278 21.583 20.5278 21.1562V10.8438C20.5278 10.417 20.4185 10.0169 20.2288 9.67188H20.5278C21.1404 9.67188 21.6389 10.1976 21.6389 10.8438V21.0391C21.6389 21.3627 21.8876 21.625 22.1944 21.625ZM19.4167 10.8438V21.1562C19.4167 21.8024 18.9182 22.3281 18.3056 22.3281H11.4722C10.8596 22.3281 10.3611 21.8024 10.3611 21.1562V10.8438C10.3611 10.1976 10.8596 9.67188 11.4722 9.67188H18.3056C18.9182 9.67188 19.4167 10.1976 19.4167 10.8438Z" fill="white"/>
<path fill-rule="evenodd" clip-rule="evenodd" d="M9.0625 10.8438C9.0625 9.45735 10.134 8.3125 11.4722 8.3125H20.5278C21.866 8.3125 22.9375 9.45735 22.9375 10.8438V21.0391C22.9375 21.0587 22.9368 21.0783 22.9354 21.0977C22.9368 21.117 22.9375 21.1366 22.9375 21.1562C22.9375 22.5427 21.866 23.6875 20.5278 23.6875H11.4722C10.134 23.6875 9.0625 22.5427 9.0625 21.1562V10.8438ZM22.5625 20.4838V10.8438C22.5625 9.64539 21.6403 8.6875 20.5278 8.6875H11.4722C10.3597 8.6875 9.4375 9.64539 9.4375 10.8438V21.1562C9.4375 22.3546 10.3597 23.3125 11.4722 23.3125H20.5278C21.4481 23.3125 22.2382 22.657 22.4837 21.7521C22.3954 21.7909 22.2978 21.8125 22.1944 21.8125C22.0202 21.8125 21.8625 21.7511 21.7377 21.6495C21.5499 22.1522 21.0835 22.5156 20.5278 22.5156H19.9118L20.0645 22.2378C20.2393 21.9198 20.3403 21.5507 20.3403 21.1562V10.8438C20.3403 10.4493 20.2393 10.0802 20.0645 9.7622L19.9118 9.48438H20.5278C21.2532 9.48438 21.8264 10.1036 21.8264 10.8438V20.4838C21.934 20.4197 22.0592 20.3828 22.1944 20.3828C22.3297 20.3828 22.4549 20.4197 22.5625 20.4838ZM21.8303 21.0977C21.8569 20.8985 22.0173 20.7578 22.1944 20.7578C22.3716 20.7578 22.532 20.8985 22.5586 21.0977C22.532 21.2968 22.3716 21.4375 22.1944 21.4375C22.0173 21.4375 21.8569 21.2968 21.8303 21.0977ZM21.4535 21.0977C21.4521 21.0783 21.4514 21.0587 21.4514 21.0391V10.8438C21.4514 10.2916 21.0276 9.85938 20.5278 9.85938H20.525C20.6474 10.1623 20.7153 10.4949 20.7153 10.8438V21.1562C20.7153 21.5051 20.6474 21.8377 20.525 22.1406H20.5278C21.0276 22.1406 21.4514 21.7084 21.4514 21.1562C21.4514 21.1366 21.4521 21.117 21.4535 21.0977ZM11.4722 9.85938C10.9724 9.85938 10.5486 10.2916 10.5486 10.8438V21.1562C10.5486 21.7084 10.9724 22.1406 11.4722 22.1406H18.3056C18.8054 22.1406 19.2292 21.7084 19.2292 21.1562V10.8438C19.2292 10.2916 18.8054 9.85938 18.3056 9.85938H11.4722ZM10.1736 10.8438C10.1736 10.1036 10.7468 9.48438 11.4722 9.48438H18.3056C19.031 9.48438 19.6042 10.1036 19.6042 10.8438V21.1562C19.6042 21.8964 19.031 22.5156 18.3056 22.5156H11.4722C10.7468 22.5156 10.1736 21.8964 10.1736 21.1562V10.8438ZM12.9514 11.4297C12.9514 11.012 13.2748 10.6562 13.6944 10.6562H16.0833C16.503 10.6562 16.8264 11.012 16.8264 11.4297C16.8264 11.9818 17.2502 12.4141 17.75 12.4141C18.1697 12.4141 18.4931 12.7698 18.4931 13.1875V18.8125C18.4931 19.2302 18.1697 19.5859 17.75 19.5859C17.2502 19.5859 16.8264 20.0182 16.8264 20.5703C16.8264 20.988 16.503 21.3438 16.0833 21.3438H13.6944C13.2748 21.3438 12.9514 20.988 12.9514 20.5703C12.9514 20.0182 12.5276 19.5859 12.0278 19.5859C11.6081 19.5859 11.2847 19.2302 11.2847 18.8125V13.1875C11.2847 12.7698 11.6081 12.4141 12.0278 12.4141C12.5276 12.4141 12.9514 11.9818 12.9514 11.4297ZM13.6944 11.0312C13.5004 11.0312 13.3264 11.2001 13.3264 11.4297C13.3264 12.1698 12.7532 12.7891 12.0278 12.7891C11.8338 12.7891 11.6597 12.9579 11.6597 13.1875V18.8125C11.6597 19.0421 11.8338 19.2109 12.0278 19.2109C12.7532 19.2109 13.3264 19.8302 13.3264 20.5703C13.3264 20.7999 13.5004 20.9688 13.6944 20.9688H16.0833C16.2774 20.9688 16.4514 20.7999 16.4514 20.5703C16.4514 19.8302 17.0245 19.2109 17.75 19.2109C17.944 19.2109 18.1181 19.0421 18.1181 18.8125V13.1875C18.1181 12.9579 17.944 12.7891 17.75 12.7891C17.0245 12.7891 16.4514 12.1698 16.4514 11.4297C16.4514 11.2001 16.2774 11.0312 16.0833 11.0312H13.6944ZM14.0326 11.8281H15.7452L15.7802 11.971C15.9663 12.7311 16.5336 13.3249 17.2437 13.5184L17.3819 13.556V18.444L17.2437 18.4816C16.5336 18.6751 15.9663 19.2689 15.7802 20.029L15.7452 20.1719H14.0326L13.9976 20.029C13.8114 19.2689 13.2442 18.6751 12.5341 18.4816L12.3958 18.444V13.556L12.5341 13.5184C13.2442 13.3249 13.8114 12.7311 13.9976 11.971L14.0326 11.8281ZM14.3225 12.2031C14.0869 12.9727 13.5083 13.5863 12.7708 13.8378V18.1622C13.5083 18.4137 14.0869 19.0273 14.3225 19.7969H15.4553C15.6909 19.0273 16.2695 18.4137 17.0069 18.1622V13.8378C16.2695 13.5863 15.6909 12.9727 15.4553 12.2031H14.3225Z" fill="white"/>
</svg>
