<svg width="28" height="28" viewBox="0 0 28 28" fill="none" xmlns="http://www.w3.org/2000/svg">
<path d="M1.9996 15.333H3.33293V17.9997V24.6663C3.33293 26.137 4.52893 27.333 5.9996 27.333H9.9996H17.9996H21.9996C23.4703 27.333 24.6663 26.137 24.6663 24.6663V17.9997V15.333H25.9996C26.5383 15.333 27.0263 15.0077 27.2316 14.5103C27.4383 14.0117 27.3236 13.4383 26.9423 13.057L14.9423 1.05702C14.4209 0.535682 13.5783 0.535682 13.0569 1.05702L1.05693 13.057C0.675601 13.4383 0.560935 14.0117 0.767601 14.5103C0.972935 15.0077 1.46093 15.333 1.9996 15.333ZM11.3329 24.6663V17.9997H16.6663V24.6663H11.3329ZM13.9996 3.88502L21.9996 11.885V17.9997L22.0009 24.6663H19.3329V17.9997C19.3329 16.529 18.1369 15.333 16.6663 15.333H11.3329C9.86227 15.333 8.66627 16.529 8.66627 17.9997V24.6663H5.9996V17.9997V13.9997V11.885L13.9996 3.88502Z" fill="#D12421"/>
</svg>
