<svg width="32" height="32" viewBox="0 0 32 32" fill="none" xmlns="http://www.w3.org/2000/svg">
<circle cx="16" cy="16" r="16" fill="#FF8C5A"/>
<path d="M13.5954 16.0003C14.5545 16.0003 15.262 15.2928 15.262 14.3337C15.262 13.3745 14.5545 12.667 13.5954 12.667C12.6362 12.667 11.9287 13.3745 11.9287 14.3337C11.9287 15.2928 12.6354 16.0003 13.5954 16.0003Z" fill="white"/>
<path d="M22.167 9.33301H8.83366C7.91449 9.33301 7.16699 10.0338 7.16699 10.8955V21.1038C7.16699 21.9655 7.91449 22.6663 8.83366 22.6663H22.167C23.0862 22.6663 23.8337 21.9655 23.8337 21.1038V10.8955C23.8337 10.0338 23.0862 9.33301 22.167 9.33301ZM22.167 20.9997L8.83366 20.9905V10.9997L22.167 11.0088V20.9997Z" fill="white"/>
<path d="M17.1667 13.5H20.5V15.1667H17.1667V13.5ZM18 16.8333H20.5V18.5H18V16.8333ZM16.6917 18.9467C16.6917 17.8017 15.295 16.625 13.5958 16.625C11.8967 16.625 10.5 17.8017 10.5 18.9467V19.3333H16.6917V18.9467Z" fill="white"/>
</svg>
