<svg width="36" height="49" viewBox="0 0 36 49" fill="none" xmlns="http://www.w3.org/2000/svg">
<path d="M2.56641 10.7759L2.56641 38.5225C2.56641 38.5564 2.5664 38.5902 2.5664 38.6239C2.56633 40.1202 2.56628 41.3926 2.70361 42.4081C2.85001 43.4904 3.17688 44.5021 3.99831 45.3186C4.8185 46.1339 5.83253 46.4572 6.91711 46.6021C7.93683 46.7384 9.21531 46.7384 10.7218 46.7383C10.7552 46.7383 10.7887 46.7383 10.8224 46.7383L24.8677 46.7383L24.9683 46.7383C26.4748 46.7384 27.7532 46.7384 28.773 46.6021C29.8575 46.4572 30.8716 46.1339 31.6918 45.3186C32.5132 44.5021 32.8401 43.4904 32.9865 42.4081C33.1238 41.3926 33.1237 40.1202 33.1237 38.6239L33.1237 38.5225L33.1237 10.7759L33.1237 10.6744C33.1237 9.17816 33.1238 7.90574 32.9865 6.8903C32.8401 5.80793 32.5132 4.79631 31.6918 3.97977C30.8716 3.16446 29.8575 2.8412 28.773 2.69625C27.7532 2.55997 26.4748 2.56003 24.9683 2.5601L24.8677 2.5601L10.8224 2.5601L10.7217 2.5601C9.21526 2.56003 7.93682 2.55997 6.91711 2.69625C5.83253 2.8412 4.8185 3.16446 3.99831 3.97977C3.17688 4.79631 2.85001 5.80793 2.70361 6.8903C2.56628 7.90573 2.56633 9.17816 2.5664 10.6744L2.56641 10.7759Z" fill="url(#paint0_linear_7075_259093)" stroke="url(#paint1_linear_7075_259093)" stroke-width="3"/>
<path fill-rule="evenodd" clip-rule="evenodd" d="M3 10.7006C2.99997 9.18185 2.99994 7.93542 3.13319 6.9502C3.27277 5.91821 3.5759 5.01554 4.30183 4.29393C5.02776 3.57232 5.93584 3.27099 6.974 3.13225C7.96512 2.99979 9.21902 2.99982 10.7469 2.99985L24.9439 2.99985C26.4717 2.99982 27.7256 2.99979 28.7167 3.13225C29.7549 3.27099 30.663 3.57232 31.3889 4.29393C32.1148 5.01554 32.4179 5.91822 32.5575 6.9502C32.6908 7.93542 32.6907 9.18186 32.6907 10.7006L32.6907 38.5981C32.6907 40.1168 32.6908 41.3633 32.5575 42.3485C32.4179 43.3805 32.1148 44.2831 31.3889 45.0047C30.663 45.7264 29.7549 46.0277 28.7167 46.1664C27.7256 46.2989 26.4717 46.2989 24.9439 46.2988L10.7469 46.2988C9.21901 46.2989 7.96512 46.2989 6.974 46.1664C5.93584 46.0277 5.02776 45.7264 4.30183 45.0047C3.5759 44.2831 3.27277 43.3805 3.13319 42.3485C2.99994 41.3633 2.99997 40.1168 3 38.5981L3 10.7006ZM5.05612 44.2549C6.04551 45.2384 7.63791 45.2384 10.8227 45.2384L24.868 45.2384C28.0528 45.2384 29.6452 45.2384 30.6346 44.2549C31.624 43.2714 31.624 41.6885 31.624 38.5227L31.624 10.776C31.624 7.61016 31.624 6.02724 30.6346 5.04374C29.6452 4.06024 28.0528 4.06024 24.868 4.06024L10.8227 4.06024C7.63791 4.06024 6.04551 4.06024 5.05612 5.04374C4.06673 6.02724 4.06673 7.61016 4.06673 10.776L4.06673 38.5227C4.06673 41.6885 4.06673 43.2714 5.05612 44.2549Z" fill="#FFECB3"/>
<path fill-rule="evenodd" clip-rule="evenodd" d="M31.6236 32.7411L4.06641 32.7411L4.06641 31.6807L31.6236 31.6807L31.6236 32.7411Z" fill="#F7A30A"/>
<path fill-rule="evenodd" clip-rule="evenodd" d="M8.8239 45.2048L8.8239 32.5459L9.89062 32.5459L9.89062 45.2048L8.8239 45.2048Z" fill="#F7A30A"/>
<path fill-rule="evenodd" clip-rule="evenodd" d="M8.86686 16.5582L8.86686 4.06055L9.93359 4.06055L9.93359 16.5582L8.86686 16.5582Z" fill="#F7A30A"/>
<path fill-rule="evenodd" clip-rule="evenodd" d="M14.2712 45.2048L14.2712 32.5459L15.3379 32.5459L15.3379 45.2048L14.2712 45.2048Z" fill="#F7A30A"/>
<path fill-rule="evenodd" clip-rule="evenodd" d="M14.2008 16.5582L14.2008 4.06055L15.2676 4.06055L15.2676 16.5582L14.2008 16.5582Z" fill="#F7A30A"/>
<path fill-rule="evenodd" clip-rule="evenodd" d="M19.7174 45.2048L19.7174 32.5459L20.7842 32.5459L20.7842 45.2048L19.7174 45.2048Z" fill="#F7A30A"/>
<path fill-rule="evenodd" clip-rule="evenodd" d="M19.7126 16.5582L19.7126 4.06055L20.7793 4.06055L20.7793 16.5582L19.7126 16.5582Z" fill="#F7A30A"/>
<path fill-rule="evenodd" clip-rule="evenodd" d="M25.5085 32.5457L25.5085 16.5283L26.5752 16.5283L26.5752 32.5457L25.5085 32.5457Z" fill="#F7A30A"/>
<path fill-rule="evenodd" clip-rule="evenodd" d="M31.6241 16.7851L8.86719 16.7851L8.86719 15.7246L31.6241 15.7246L31.6241 16.7851Z" fill="#F7A30A"/>
<defs>
<linearGradient id="paint0_linear_7075_259093" x1="4.06641" y1="24.6492" x2="31.6237" y2="24.6492" gradientUnits="userSpaceOnUse">
<stop stop-color="#F7B512"/>
<stop offset="1" stop-color="#FFDF80"/>
</linearGradient>
<linearGradient id="paint1_linear_7075_259093" x1="3.72128" y1="3.72134" x2="31.8656" y2="49.1853" gradientUnits="userSpaceOnUse">
<stop stop-color="#EAAA28"/>
<stop offset="1" stop-color="#D12421"/>
</linearGradient>
</defs>
</svg>
