<svg width="25" height="24" viewBox="0 0 25 24" fill="none" xmlns="http://www.w3.org/2000/svg">
<path d="M5.51211 15.2621L6.25 16L9.75 12.5L6.25 9L5.51211 9.73789L7.75239 11.9782H2.75V13.0218H7.75239L5.51211 15.2621Z" fill="white"/>
<path fill-rule="evenodd" clip-rule="evenodd" d="M6.25 8.64642L10.1036 12.5L6.25 16.3535L5.15856 15.2621L7.14883 13.2718H2.5V11.7281H7.14883L5.15856 9.73786L6.25 8.64642ZM5.86567 9.73786L8.35594 12.2281H3V12.7718H8.35594L5.86567 15.2621L6.25 15.6464L9.39645 12.5L6.25 9.35353L5.86567 9.73786Z" fill="white"/>
<path d="M11.75 9C11.75 11.28 13.47 13 15.75 13C18.03 13 19.75 11.28 19.75 9C19.75 6.72 18.03 5 15.75 5C13.47 5 11.75 6.72 11.75 9ZM17.75 9C17.75 10.178 16.928 11 15.75 11C14.572 11 13.75 10.178 13.75 9C13.75 7.822 14.572 7 15.75 7C16.928 7 17.75 7.822 17.75 9ZM11.75 19C11.75 17.346 13.096 16 14.75 16H16.75C18.404 16 19.75 17.346 19.75 19V20H21.75V19C21.75 16.243 19.507 14 16.75 14H14.75C11.993 14 9.75 16.243 9.75 19V20H11.75V19Z" fill="white"/>
</svg>
