<svg width="881" height="166" viewBox="0 0 881 166" fill="none" xmlns="http://www.w3.org/2000/svg">
<g opacity="0.5">
<g filter="url(#filter0_b_3987_7226)">
<path d="M178.898 74.0145L8.05864 171.238C7.43377 171.593 7.04785 172.257 7.04785 172.976V277.493C7.04785 278.597 7.94329 279.493 9.04786 279.493H879C880.105 279.493 881 278.597 881 277.493V21.8123C881 19.8196 878.405 19.0526 877.322 20.7253L846.106 68.9361C845.151 70.4105 842.896 70.0263 842.483 68.3191L827.083 4.6222C826.667 2.90043 824.383 2.52977 823.444 4.0315L777.259 77.8589C776.774 78.634 775.825 78.9816 774.954 78.7032L707.995 57.2963C707.423 57.1133 706.798 57.1974 706.295 57.5256L592.841 131.437C591.67 132.2 590.096 131.556 589.796 130.19L578.375 78.1557C577.976 76.3382 575.529 76.0027 574.655 77.6458L564.541 96.6733C563.815 98.0394 561.879 98.0991 561.07 96.7802L547.154 74.0894C546.698 73.3467 545.814 72.9844 544.969 73.1935L407.69 107.138C406.526 107.426 405.371 106.631 405.225 105.44L392.717 3.47074C392.529 1.93543 390.744 1.1859 389.516 2.12663L208.439 140.859C207.366 141.681 205.804 141.224 205.343 139.954L181.767 75.0697C181.344 73.9053 179.975 73.4017 178.898 74.0145Z" fill="#FDE8E8" fill-opacity="0.3"/>
<path d="M178.898 74.0145L8.05864 171.238C7.43377 171.593 7.04785 172.257 7.04785 172.976V277.493C7.04785 278.597 7.94329 279.493 9.04786 279.493H879C880.105 279.493 881 278.597 881 277.493V21.8123C881 19.8196 878.405 19.0526 877.322 20.7253L846.106 68.9361C845.151 70.4105 842.896 70.0263 842.483 68.3191L827.083 4.6222C826.667 2.90043 824.383 2.52977 823.444 4.0315L777.259 77.8589C776.774 78.634 775.825 78.9816 774.954 78.7032L707.995 57.2963C707.423 57.1133 706.798 57.1974 706.295 57.5256L592.841 131.437C591.67 132.2 590.096 131.556 589.796 130.19L578.375 78.1557C577.976 76.3382 575.529 76.0027 574.655 77.6458L564.541 96.6733C563.815 98.0394 561.879 98.0991 561.07 96.7802L547.154 74.0894C546.698 73.3467 545.814 72.9844 544.969 73.1935L407.69 107.138C406.526 107.426 405.371 106.631 405.225 105.44L392.717 3.47074C392.529 1.93543 390.744 1.1859 389.516 2.12663L208.439 140.859C207.366 141.681 205.804 141.224 205.343 139.954L181.767 75.0697C181.344 73.9053 179.975 73.4017 178.898 74.0145Z" stroke="#D5E6B4"/>
</g>
<g filter="url(#filter1_b_3987_7226)">
<path d="M47.1405 136.56L-92.9246 209.583C-93.5855 209.927 -94 210.611 -94 211.356V289.318C-94 290.422 -93.1046 291.318 -92 291.318H623.157C624.261 291.318 625.157 290.422 625.157 289.318V98.2585C625.157 96.3077 622.649 95.5111 621.523 97.1042L596.835 132.035C595.855 133.422 593.701 133.033 593.268 131.391L580.987 84.8554C580.549 83.1987 578.367 82.8229 577.401 84.2379L539.931 139.11C539.442 139.825 538.548 140.145 537.717 139.902L482.887 123.843C482.353 123.686 481.778 123.76 481.3 124.045L388.378 179.503C387.219 180.194 385.722 179.564 385.408 178.251L376.338 140.398C375.917 138.642 373.569 138.299 372.663 139.86L365.007 153.056C364.264 154.336 362.438 154.394 361.615 153.165L350.576 136.676C350.116 135.989 349.279 135.656 348.472 135.838L236.011 161.314C234.865 161.573 233.743 160.794 233.587 159.629L223.445 83.8858C223.246 82.399 221.542 81.6524 220.314 82.5142L72.0126 186.604C70.9548 187.346 69.481 186.905 69.0045 185.704L49.9242 137.596C49.487 136.494 48.1921 136.012 47.1405 136.56Z" fill="#F2FAE2" fill-opacity="0.7"/>
<path d="M47.1405 136.56L-92.9246 209.583C-93.5855 209.927 -94 210.611 -94 211.356V289.318C-94 290.422 -93.1046 291.318 -92 291.318H623.157C624.261 291.318 625.157 290.422 625.157 289.318V98.2585C625.157 96.3077 622.649 95.5111 621.523 97.1042L596.835 132.035C595.855 133.422 593.701 133.033 593.268 131.391L580.987 84.8554C580.549 83.1987 578.367 82.8229 577.401 84.2379L539.931 139.11C539.442 139.825 538.548 140.145 537.717 139.902L482.887 123.843C482.353 123.686 481.778 123.76 481.3 124.045L388.378 179.503C387.219 180.194 385.722 179.564 385.408 178.251L376.338 140.398C375.917 138.642 373.569 138.299 372.663 139.86L365.007 153.056C364.264 154.336 362.438 154.394 361.615 153.165L350.576 136.676C350.116 135.989 349.279 135.656 348.472 135.838L236.011 161.314C234.865 161.573 233.743 160.794 233.587 159.629L223.445 83.8858C223.246 82.399 221.542 81.6524 220.314 82.5142L72.0126 186.604C70.9548 187.346 69.481 186.905 69.0045 185.704L49.9242 137.596C49.487 136.494 48.1921 136.012 47.1405 136.56Z" stroke="#D5E6B4"/>
</g>
</g>
<defs>
<filter id="filter0_b_3987_7226" x="1.54785" y="-3.78906" width="884.952" height="288.782" filterUnits="userSpaceOnUse" color-interpolation-filters="sRGB">
<feFlood flood-opacity="0" result="BackgroundImageFix"/>
<feGaussianBlur in="BackgroundImage" stdDeviation="2.5"/>
<feComposite in2="SourceAlpha" operator="in" result="effect1_backgroundBlur_3987_7226"/>
<feBlend mode="normal" in="SourceGraphic" in2="effect1_backgroundBlur_3987_7226" result="shape"/>
</filter>
<filter id="filter1_b_3987_7226" x="-99.5" y="76.6484" width="730.156" height="220.169" filterUnits="userSpaceOnUse" color-interpolation-filters="sRGB">
<feFlood flood-opacity="0" result="BackgroundImageFix"/>
<feGaussianBlur in="BackgroundImage" stdDeviation="2.5"/>
<feComposite in2="SourceAlpha" operator="in" result="effect1_backgroundBlur_3987_7226"/>
<feBlend mode="normal" in="SourceGraphic" in2="effect1_backgroundBlur_3987_7226" result="shape"/>
</filter>
</defs>
</svg>
