<svg width="206" height="72" viewBox="0 0 206 72" fill="none" xmlns="http://www.w3.org/2000/svg">
<path d="M204.949 9.88503C193.134 14.3282 180.664 16.9074 168.011 17.5249C168.642 26.7984 174.897 36.9488 180.015 36.9488C192.983 36.9488 203.404 15.9393 205.604 11.4466C206.445 9.77692 205.802 9.52466 204.949 9.88503Z" fill="url(#paint0_linear_9574_159031)"/>
<path d="M175.082 13.6089C168.901 11.4467 170.138 1.09205 170.002 0.395336C169.384 -1.875 160.013 6.13724 160.013 11.5788C160.013 13.8492 161.534 14.5699 164.031 14.642C167.728 14.6184 171.417 14.293 175.058 13.669C175.144 13.681 175.132 13.6209 175.082 13.6089Z" fill="url(#paint1_linear_9574_159031)"/>
<path fill-rule="evenodd" clip-rule="evenodd" d="M0.000531061 52.3485V24.5039C-0.00736199 24.0771 0.0728004 23.6532 0.236286 23.2571C0.399772 22.8609 0.643269 22.5007 0.952402 22.1975C1.25317 21.8909 1.61609 21.6483 2.01823 21.485C2.42038 21.3217 2.85302 21.2411 3.28881 21.2485H6.49056V32.8164H19.4706V21.2485H26.0472V52.3485H19.4706V38.5102H6.49056V52.3485H0.000531061Z" fill="#BE1128"/>
<path fill-rule="evenodd" clip-rule="evenodd" d="M29.2855 52.349V24.5044C29.2839 24.0764 29.3694 23.6524 29.5372 23.2567C29.7049 22.8611 29.9516 22.5016 30.2631 22.199C30.5745 21.8964 30.9444 21.6566 31.3516 21.4936C31.7588 21.3306 32.1952 21.2475 32.6356 21.249H40.7945C45.6898 21.249 49.3489 22.5143 51.7719 25.0449C54.2443 27.6877 55.3939 31.6157 55.3939 36.793C55.4527 39.3477 55.0339 41.8914 54.1578 44.3007C53.3463 46.3468 51.9999 48.152 50.2514 49.5381C48.9094 50.5338 47.3749 51.2569 45.7393 51.6643C43.5153 52.1635 41.2337 52.3775 38.9525 52.3009L29.2855 52.349ZM35.7013 46.7392H39.892C42.9331 46.7392 45.1582 45.9584 46.5922 44.3368C48.0262 42.7151 48.632 40.3607 48.632 36.745C48.632 33.1293 47.9891 30.7388 46.6788 29.0571C45.9628 28.2176 45.0473 27.5602 44.0113 27.1417C42.9753 26.7231 41.85 26.5559 40.7327 26.6546H35.7013V46.7392Z" fill="#BE1128"/>
<path fill-rule="evenodd" clip-rule="evenodd" d="M58.5462 52.3488V24.5042C58.5378 24.0764 58.619 23.6513 58.7847 23.2548C58.9505 22.8584 59.1974 22.4988 59.5105 22.1978C59.8159 21.8906 60.1832 21.6478 60.5894 21.4846C60.9956 21.3213 61.4321 21.2411 61.8716 21.2489H73.5042C76.1594 21.0747 78.7978 21.7727 80.9956 23.2309C81.852 23.9597 82.5296 24.8655 82.9788 25.882C83.4281 26.8984 83.6374 27.9996 83.5916 29.1049C83.6355 30.5009 83.2803 31.8814 82.5655 33.093C81.8502 34.1307 80.8592 34.9609 79.6976 35.4955C81.1844 36.0637 82.4717 37.0352 83.4062 38.2944C84.279 39.6481 84.71 41.2268 84.6424 42.823C84.7186 44.1348 84.4942 45.4467 83.9854 46.664C83.4767 47.8813 82.6961 48.9736 81.7002 49.8623C79.1957 51.626 76.1322 52.4765 73.0468 52.2647L58.5462 52.3488ZM64.8261 33.2732H72.3175C73.5482 33.3607 74.7761 33.0708 75.8283 32.4444C76.2062 32.1376 76.5032 31.7476 76.6946 31.3067C76.886 30.8658 76.9662 30.3869 76.9285 29.9098C76.9662 29.4344 76.886 28.9572 76.6945 28.5183C76.5031 28.0793 76.206 27.6914 75.8283 27.3872C74.7332 26.7828 73.471 26.5266 72.2186 26.6544H64.8014L64.8261 33.2732ZM64.8261 46.7391H72.5894C73.9877 46.8259 75.378 46.4766 76.5576 45.742C77.0067 45.3667 77.3543 44.8902 77.5698 44.354C77.7853 43.8179 77.8622 43.2386 77.7938 42.6669C77.8548 42.0831 77.7749 41.4936 77.5603 40.9452C77.3457 40.3967 77.0024 39.9045 76.5576 39.5076C75.3391 38.7951 73.9198 38.4755 72.5029 38.5947H64.8261V46.7391Z" fill="#464646"/>
<path fill-rule="evenodd" clip-rule="evenodd" d="M134.857 52.349H131.556C131.13 52.3661 130.706 52.2982 130.308 52.1494C129.91 52.0007 129.548 51.7742 129.244 51.4841C128.943 51.1974 128.708 50.8526 128.552 50.4719C128.397 50.0912 128.325 49.6831 128.342 49.2738V36.3606C128.395 35.7646 128.299 35.165 128.062 34.6129C127.826 34.0607 127.455 33.5723 126.982 33.1893C126.1 32.5418 125.022 32.1955 123.916 32.2043C122.824 32.1876 121.76 32.5353 120.9 33.1893C120.437 33.5785 120.076 34.069 119.846 34.6202C119.616 35.1715 119.524 35.768 119.577 36.3606V52.349H112.976V37.6219C112.976 33.5297 114.093 30.7868 116.326 29.3934C118.549 28.0161 121.109 27.2368 123.743 27.1351C126.438 27.1172 129.083 27.8419 131.371 29.2252C133.695 30.6067 134.869 33.4055 134.869 37.6339L134.857 52.349Z" fill="#464646"/>
<path fill-rule="evenodd" clip-rule="evenodd" d="M106.906 28.8404C105.089 27.6391 102.357 27.1106 98.7227 27.1106C96.0478 26.9417 93.3955 27.6805 91.2189 29.2007C90.4701 29.7618 89.8431 30.4616 89.3742 31.2595C88.9053 32.0574 88.6037 32.9377 88.487 33.8495H95.0141C95.1603 33.5217 95.3755 33.2273 95.6459 32.9853C95.9163 32.7432 96.2359 32.5588 96.584 32.4441C97.3812 32.1889 98.2172 32.067 99.0564 32.0837C99.9944 32.0954 100.926 32.2329 101.826 32.4921C102.259 32.5565 102.653 32.773 102.933 33.1006C103.213 33.4282 103.36 33.8442 103.346 34.2699C103.346 35.4712 101.912 36.264 99.0564 36.6724C98.5332 36.7201 98.0132 36.7963 97.4988 36.9006C97.092 36.9825 96.6781 37.0267 96.2626 37.0328C94.1079 37.3031 92.0471 38.0556 90.2424 39.231C88.5982 40.3242 87.77 42.138 87.77 44.6967C87.77 47.2553 88.6477 49.3815 90.4031 50.5707C92.2219 51.7757 94.3832 52.3974 96.584 52.3485C99.2466 52.5362 101.905 51.9374 104.211 50.6308C104.337 50.9794 104.53 51.3016 104.78 51.5797C105.036 51.857 105.351 52.0769 105.703 52.2242C106.056 52.3715 106.436 52.4426 106.82 52.4326H109.737V33.9456C109.771 32.9275 109.528 31.9187 109.03 31.022C108.533 30.1252 107.8 29.3725 106.906 28.8404V28.8404ZM103.395 41.9578C103.437 42.6951 103.32 43.4327 103.052 44.1235C102.784 44.8143 102.37 45.4432 101.838 45.97C101.257 46.4747 100.578 46.8629 99.8422 47.1124C99.1061 47.3618 98.3265 47.4675 97.5483 47.4235C96.6633 47.4673 95.7899 47.2127 95.0759 46.7027C94.7819 46.4172 94.5521 46.0754 94.401 45.6991C94.2499 45.3228 94.1808 44.9201 94.1982 44.5165C94.2172 43.7955 94.4583 43.0967 94.8905 42.5104C95.6211 41.9143 96.4914 41.5018 97.4246 41.3092L99.6004 40.8527C100.906 40.5838 102.178 40.1812 103.395 39.6515V41.9578Z" fill="#464646"/>
<path fill-rule="evenodd" clip-rule="evenodd" d="M144.499 28.3003V36.7089L152.287 27.099H159.989L151.335 37.4897L160.125 52.3249H152.423L147.948 44.1806C147.021 42.5589 146.23 41.8622 145.55 42.1024C144.87 42.3427 144.548 42.7151 144.548 43.1836V52.3249H138.083V21.249H141.384C142.199 21.258 142.978 21.5733 143.559 22.1287C144.14 22.6842 144.477 23.4365 144.499 24.2281V28.3003Z" fill="#464646"/>
<path fill-rule="evenodd" clip-rule="evenodd" d="M2.47301 61.231C1.71819 61.66 1.09889 62.2822 0.682563 63.0299C0.248523 63.704 0.0124817 64.4809 1.92757e-05 65.2762C-0.00238903 66.1189 0.220912 66.9478 0.647942 67.6811C1.03207 68.4041 1.62977 68.9987 2.36419 69.3887C3.09535 69.8283 3.94333 70.0491 4.80256 70.0236H6.22205V68.8451H4.80256C4.25112 68.8385 3.70961 68.7015 3.22479 68.4459C2.70617 68.1483 2.2619 67.7426 1.924 67.2579C1.55661 66.6512 1.37314 65.9558 1.39478 65.2521C1.3882 64.7737 1.49838 64.3006 1.71627 63.8716C1.87538 63.4389 2.13423 63.0473 2.47301 62.7269C2.84082 62.4061 3.26914 62.1578 3.73423 61.9958C4.2412 61.8159 4.77732 61.7263 5.31694 61.7312H6.20227V60.5383H5.17845C4.22765 60.5176 3.29006 60.7577 2.47301 61.231V61.231Z" fill="#464646"/>
<path fill-rule="evenodd" clip-rule="evenodd" d="M13.6212 64.2281C13.3074 63.9677 12.9514 63.7597 12.5677 63.6124C12.1016 63.4709 11.6167 63.3963 11.1284 63.3912C10.4791 63.3802 9.83801 63.5344 9.26875 63.8385C8.74951 64.1038 8.3291 64.5211 8.06688 65.0314C7.763 65.5535 7.60445 66.1437 7.6069 66.7437C7.64202 67.627 7.97976 68.4735 8.56642 69.1487C8.87365 69.4606 9.23971 69.7121 9.64464 69.8894C10.0663 70.0632 10.5174 70.1594 10.9751 70.1732C11.316 70.1948 11.6568 70.1302 11.9643 69.9856C12.2622 69.8736 12.5434 69.7231 12.8002 69.5383V68.1386C12.4953 68.5742 12.0285 68.8779 11.498 68.9855C10.9676 69.0932 10.4149 68.9965 9.95624 68.7158C9.6186 68.5299 9.34761 68.2479 9.17972 67.9077C8.97899 67.5688 8.87803 67.1828 8.88791 66.7918C8.88566 66.3995 8.96823 66.0111 9.13026 65.6518C9.30164 65.3059 9.57552 65.0178 9.91667 64.8245C10.2664 64.6026 10.6762 64.4871 11.0938 64.4926C11.4735 64.4892 11.8489 64.5698 12.1918 64.7283C12.5213 64.8496 12.8022 65.0705 12.9931 65.3584C13.1991 65.6542 13.3014 66.0068 13.2849 66.3637V70.0337H14.5412V66.484C14.5406 66.0445 14.462 65.6084 14.3087 65.1949C14.1601 64.825 13.9247 64.4939 13.6212 64.2281V64.2281Z" fill="#464646"/>
<path fill-rule="evenodd" clip-rule="evenodd" d="M24.5914 64.0353C24.3782 63.8256 24.1221 63.6617 23.8396 63.5543C23.5418 63.4348 23.222 63.3759 22.8999 63.3812C22.5034 63.3853 22.1111 63.4603 21.7425 63.6024C21.4028 63.7554 21.1147 63.9989 20.9116 64.3047C20.6748 64.0199 20.3844 63.7816 20.0559 63.6024C19.6957 63.4668 19.3144 63.392 18.9283 63.3812C18.5042 63.389 18.0871 63.4875 17.7066 63.6698C17.3505 63.8842 17.0467 64.1714 16.8163 64.5115C16.6086 64.8319 16.5052 65.2057 16.5196 65.5841V70.0526H17.7561V65.916C17.7269 65.5458 17.8455 65.1788 18.0874 64.8915C18.2018 64.7744 18.3401 64.6818 18.4934 64.6197C18.6467 64.5575 18.8117 64.5273 18.9777 64.5308C19.8581 64.5308 20.2587 65.0502 20.2587 66.0892V70.0718H21.5002V66.0892C21.5002 65.0502 21.9502 64.5308 22.8554 64.5308C23.0189 64.5293 23.1811 64.5605 23.3317 64.6226C23.4823 64.6846 23.6181 64.7762 23.7308 64.8915C23.9641 65.184 24.0864 65.5459 24.077 65.916V70.0718H25.2937V65.6034C25.2996 65.3134 25.2334 65.0263 25.1008 64.7665C25.0046 64.4812 24.8281 64.228 24.5914 64.0353V64.0353Z" fill="#464646"/>
<path fill-rule="evenodd" clip-rule="evenodd" d="M37.3669 65.7579C37.547 65.5175 37.7121 65.267 37.8615 65.0075L38.7666 63.5357H37.3669L36.1947 65.4596C36.0807 65.6301 35.9177 65.7642 35.7261 65.8454C35.5344 65.9266 35.3224 65.9514 35.1165 65.9166H34.6219V60.5391H33.3953V70.0532H34.6565V67.0854H36.0364C36.1848 67.0786 36.3329 67.1025 36.4711 67.1556C36.6092 67.2087 36.7341 67.2897 36.8377 67.3933C36.9445 67.5101 37.0266 67.6463 37.0792 67.794C37.1319 67.9418 37.154 68.0982 37.1443 68.2542V70.0532H38.3808V68.1292C38.4058 67.6523 38.2608 67.1817 37.9703 66.7968C37.6759 66.4738 37.2758 66.2597 36.8377 66.1908V66.1908C37.0572 66.1054 37.2428 65.9536 37.3669 65.7579Z" fill="#464646"/>
<path fill-rule="evenodd" clip-rule="evenodd" d="M45.0727 68.5187C44.8726 68.705 44.6345 68.8484 44.3737 68.9395C44.113 69.0307 43.8355 69.0675 43.5592 69.0478C43.2634 69.058 42.9689 69.0053 42.6964 68.8931C42.4238 68.7809 42.1798 68.6121 41.9815 68.3984C41.7679 68.1863 41.5998 67.9351 41.4868 67.6593C41.3739 67.3835 41.3184 67.0887 41.3236 66.7919C41.3124 66.49 41.365 66.1891 41.4782 65.9078C41.5913 65.6266 41.7626 65.3708 41.9815 65.1565C42.1829 64.947 42.4276 64.7813 42.6995 64.6702C42.9714 64.5591 43.2644 64.5052 43.5592 64.512C43.8532 64.5067 44.1449 64.5624 44.4149 64.6755C44.6706 64.7822 44.8962 64.9472 45.0727 65.1565L41.7193 66.9506L42.2485 67.9126L46.8137 65.4595C46.5368 64.8366 46.0819 64.3041 45.503 63.9252C44.9109 63.564 44.2234 63.3784 43.5246 63.3912C43.0632 63.3899 42.605 63.4647 42.1694 63.6125C41.7573 63.7926 41.382 64.0435 41.0615 64.3532C40.7275 64.655 40.4658 65.0245 40.2949 65.4355C40.1217 65.8677 40.0344 66.328 40.0377 66.7919C40.0362 67.2587 40.1234 67.7219 40.2949 68.1579C40.5018 68.556 40.7722 68.9196 41.0961 69.2353C41.4181 69.5334 41.7936 69.7715 42.204 69.9376C42.6395 70.0901 43.0967 70.176 43.5592 70.1925C44.1535 70.1927 44.7395 70.0576 45.2705 69.7981C45.7745 69.5543 46.1978 69.1776 46.4922 68.7111C46.8127 68.2442 47.0004 67.7032 47.0362 67.143L45.7849 66.9987C45.7103 67.5635 45.462 68.0933 45.0727 68.5187V68.5187Z" fill="#464646"/>
<path fill-rule="evenodd" clip-rule="evenodd" d="M43.4207 61.8134L44.2121 62.8524H45.1864L43.9648 61.2314H42.8816L41.6896 62.8524H42.6145L43.4207 61.8134Z" fill="#464646"/>
<path fill-rule="evenodd" clip-rule="evenodd" d="M44.855 62.1068H45.6513L47.1994 60.457H45.9283L44.855 62.1068Z" fill="#464646"/>
<path fill-rule="evenodd" clip-rule="evenodd" d="M50.2313 61.876H48.9652V67.9269C48.939 68.4898 49.1294 69.042 49.4993 69.4757C49.6824 69.6709 49.908 69.8239 50.1595 69.9237C50.411 70.0236 50.6822 70.0677 50.9534 70.0529H52.6499V68.8985H51.1414C50.8967 68.9207 50.6514 68.8632 50.444 68.735C50.2963 68.5536 50.2208 68.3264 50.2313 68.0953V64.6754H52.6647V63.5354H50.2313V61.876Z" fill="#464646"/>
<path d="M61.9879 60.5391H60.7465V70.0532H61.9879V60.5391Z" fill="#464646"/>
<path fill-rule="evenodd" clip-rule="evenodd" d="M67.4186 70.8227C67.3356 70.8134 67.2516 70.8235 67.1733 70.8519C67.0951 70.8803 67.0249 70.9263 66.9685 70.9862C66.9086 71.0399 66.8612 71.1055 66.8297 71.1785C66.7981 71.2515 66.783 71.3303 66.7855 71.4095C66.7832 71.4872 66.7983 71.5645 66.8299 71.636C66.8615 71.7074 66.9088 71.7713 66.9685 71.8231C67.022 71.8871 67.0914 71.9366 67.1702 71.9669C67.2491 71.9972 67.3346 72.0074 67.4186 71.9963C67.503 72.0039 67.5882 71.9923 67.6672 71.9622C67.7462 71.9321 67.8169 71.8845 67.8736 71.8231C67.9622 71.7404 68.0225 71.6331 68.0462 71.5159C68.07 71.3987 68.0561 71.2772 68.0064 71.1679C67.9567 71.0586 67.8736 70.9669 67.7685 70.9051C67.6633 70.8434 67.5411 70.8146 67.4186 70.8227V70.8227Z" fill="#464646"/>
<path fill-rule="evenodd" clip-rule="evenodd" d="M71.044 64.3343H71.3506C71.3328 64.4086 71.3001 64.4787 71.2542 64.5407C71.2084 64.6026 71.1504 64.655 71.0835 64.695C70.8903 64.7907 70.6771 64.8417 70.4603 64.8441C70.2575 64.5605 70.0144 64.3062 69.7382 64.089C69.4549 63.8676 69.1285 63.704 68.7787 63.608C68.3951 63.4644 67.9879 63.3895 67.5768 63.3867C67.124 63.3902 66.6747 63.4649 66.2464 63.608C65.8289 63.7889 65.4472 64.0396 65.1187 64.3487C64.7718 64.6423 64.5064 65.0162 64.3471 65.4358C64.133 65.8573 64.0245 66.3221 64.0306 66.7922C64.0268 67.2651 64.1351 67.7326 64.3471 68.1582C64.5156 68.5679 64.7758 68.9359 65.1088 69.2356C65.4203 69.5396 65.7922 69.7785 66.2019 69.9379C66.6431 70.0819 67.1022 70.1676 67.5669 70.1928C68.019 70.1693 68.4653 70.0835 68.8925 69.9379C69.3096 69.7732 69.6919 69.5352 70.0201 69.2356C70.3458 68.9367 70.5948 68.5677 70.7472 68.1582C70.9685 67.735 71.0837 67.2669 71.0835 66.7922C71.083 66.5061 71.0431 66.2214 70.9648 65.9456C70.9127 65.7132 70.8295 65.4885 70.7175 65.277C70.9946 65.2844 71.2657 65.1977 71.4841 65.0317C71.6004 64.9408 71.6918 64.8235 71.7505 64.6902C71.8091 64.5568 71.8331 64.4115 71.8205 64.2669V63.3915H71.044V64.3535V64.3343ZM69.1348 68.3987C68.9357 68.6088 68.693 68.7754 68.4227 68.8873C68.1524 68.9993 67.8607 69.0541 67.5669 69.048C67.2664 69.0559 66.9675 69.0022 66.6897 68.8903C66.4119 68.7785 66.1614 68.6109 65.9546 68.3987C65.5426 67.9604 65.3179 67.3859 65.3264 66.7922C65.3147 66.4927 65.3642 66.194 65.472 65.9133C65.5798 65.6326 65.7438 65.3754 65.9546 65.1568C66.1624 64.9461 66.4131 64.78 66.6908 64.669C66.9684 64.558 67.2669 64.5046 67.5669 64.5123C67.8602 64.5065 68.1514 64.561 68.4215 64.672C68.6917 64.7831 68.9347 64.9483 69.1348 65.1568C69.3472 65.373 69.5099 65.6306 69.6122 65.9125C69.7145 66.1944 69.7541 66.4943 69.7283 66.7922C69.7466 67.0851 69.7033 67.3786 69.6013 67.6547C69.4993 67.9309 69.3406 68.184 69.1348 68.3987V68.3987Z" fill="#464646"/>
<path d="M74.7585 63.5352H73.5121V70.0527H74.7585V63.5352Z" fill="#464646"/>
<path fill-rule="evenodd" clip-rule="evenodd" d="M74.1353 61.467C74.0516 61.4633 73.9681 61.4764 73.8898 61.5053C73.8116 61.5343 73.7403 61.5785 73.6802 61.6353C73.5782 61.7566 73.5192 61.9068 73.5121 62.0634C73.5292 62.2178 73.5871 62.3653 73.6802 62.4915C73.8064 62.5986 73.9678 62.6583 74.1353 62.6598C74.2141 62.6607 74.2923 62.6462 74.3654 62.6173C74.4384 62.5884 74.5048 62.5456 74.5606 62.4915C74.678 62.3765 74.7498 62.2249 74.7634 62.0634C74.7659 61.9816 74.7489 61.9005 74.7137 61.8262C74.6786 61.7519 74.6261 61.6866 74.5606 61.6353C74.5075 61.5777 74.4416 61.5326 74.3679 61.5034C74.2942 61.4743 74.2147 61.4618 74.1353 61.467V61.467Z" fill="#464646"/>
<path fill-rule="evenodd" clip-rule="evenodd" d="M82.8796 62.7273H83.6512L85.2092 61.0967H83.9232L82.8796 62.7273Z" fill="#464646"/>
<path d="M84.5168 63.5352H83.2655V70.0527H84.5168V63.5352Z" fill="#464646"/>
<path fill-rule="evenodd" clip-rule="evenodd" d="M89.3589 63.766C88.942 63.886 88.5593 64.0984 88.2411 64.3865C87.9039 64.6851 87.6271 65.0423 87.425 65.4399C87.2335 65.8659 87.1374 66.3266 87.1431 66.7915C87.1378 67.4009 87.3093 67.9993 87.6377 68.5183C87.9647 69.0007 88.4123 69.3946 88.9385 69.663C89.4332 69.9105 89.9798 70.0439 90.5361 70.0527H91.7478V68.8983H90.7586C90.1754 68.915 89.6064 68.7214 89.1611 68.3547C88.9274 68.1647 88.742 67.9248 88.6193 67.6536C88.4966 67.3825 88.44 67.0874 88.4538 66.7915C88.4453 66.4003 88.5527 66.015 88.7632 65.6815C88.9736 65.3481 89.2783 65.0805 89.6408 64.9108C89.99 64.7502 90.3724 64.6696 90.7586 64.6751H91.7478V63.5352H90.5361C90.1322 63.5391 89.7328 63.6174 89.3589 63.766V63.766Z" fill="#464646"/>
<path fill-rule="evenodd" clip-rule="evenodd" d="M96.3426 63.3914C96.0031 63.3814 95.6655 63.4438 95.3534 63.5741C95.0711 63.6897 94.8192 63.8656 94.6164 64.0888V60.5391H93.3503V70.0532H94.6164V66.2437C94.6005 66.0211 94.6337 65.7977 94.7139 65.5886C94.7941 65.3796 94.9194 65.1896 95.0814 65.0316C95.2235 64.8655 95.4022 64.7326 95.6042 64.6427C95.8063 64.5528 96.0265 64.5082 96.2486 64.5121C97.3615 64.5121 97.9204 65.0941 97.9204 66.2437V70.0532H99.147V66.2437C99.1519 64.3534 98.1924 63.3914 96.3426 63.3914Z" fill="#464646"/>
<path fill-rule="evenodd" clip-rule="evenodd" d="M109.44 63.766C109.02 63.8868 108.634 64.099 108.312 64.3865C107.985 64.6854 107.722 65.0432 107.535 65.4399C107.323 65.8595 107.221 66.324 107.239 66.7915C107.236 67.4005 107.407 67.9984 107.733 68.5183C108.062 68.9973 108.507 69.3904 109.029 69.663C109.52 69.9028 110.058 70.0358 110.607 70.0527H111.819V68.8983H110.864C110.262 68.9194 109.673 68.7261 109.207 68.3547C108.983 68.159 108.806 67.9171 108.69 67.6468C108.573 67.3764 108.52 67.0843 108.534 66.7915C108.522 66.3941 108.636 66.0026 108.861 65.6708C109.07 65.3533 109.357 65.0919 109.697 64.9108C110.064 64.7505 110.462 64.67 110.864 64.6751H111.819V63.5352H110.607C110.206 63.538 109.81 63.6164 109.44 63.766V63.766Z" fill="#464646"/>
<path fill-rule="evenodd" clip-rule="evenodd" d="M119.198 64.2284C118.878 63.9586 118.509 63.7498 118.11 63.6128C117.647 63.4659 117.163 63.3912 116.676 63.3915C116.043 63.3774 115.419 63.5321 114.87 63.8388C114.333 64.0851 113.902 64.5074 113.654 65.0317C113.385 65.4826 113.228 65.988 113.195 66.5079C113.161 67.0279 113.252 67.5484 113.461 68.0283C113.59 68.4562 113.825 68.8473 114.143 69.1683C114.443 69.4932 114.815 69.7467 115.231 69.909C115.639 70.0834 116.077 70.1798 116.522 70.1928C116.864 70.2239 117.207 70.1588 117.511 70.0052C117.813 69.9045 118.094 69.7531 118.342 69.5579V68.1582C118.155 68.4254 117.904 68.6454 117.612 68.8001C117.319 68.9548 116.993 69.0398 116.661 69.048C116.252 69.0362 115.851 68.9289 115.493 68.7354C115.175 68.5321 114.915 68.2542 114.737 67.9273C114.548 67.5835 114.446 67.201 114.44 66.8114C114.449 66.4162 114.545 66.0274 114.722 65.6714C114.886 65.3257 115.156 65.0371 115.493 64.8441C115.843 64.6293 116.247 64.5143 116.661 64.5122C117.039 64.504 117.414 64.5848 117.754 64.7479C118.084 64.881 118.371 65.0988 118.585 65.378C118.788 65.6759 118.897 66.0257 118.896 66.3833V70.0533H120.113V66.5035C120.121 66.0629 120.041 65.6249 119.876 65.2145C119.726 64.8417 119.495 64.5052 119.198 64.2284V64.2284Z" fill="#464646"/>
<path fill-rule="evenodd" clip-rule="evenodd" d="M127.73 64.3335C127.41 64.0136 127.024 63.7626 126.598 63.5969C126.172 63.4312 125.715 63.3544 125.257 63.3715C124.807 63.3758 124.361 63.4506 123.936 63.5927C123.522 63.7852 123.139 64.0346 122.799 64.3335C122.462 64.6483 122.197 65.0275 122.019 65.4473C121.841 65.8671 121.754 66.3182 121.765 66.7721C121.757 67.2404 121.848 67.7054 122.032 68.1382C122.222 68.5373 122.482 68.9017 122.799 69.2156C123.13 69.5153 123.516 69.7534 123.936 69.9178C124.362 70.0639 124.806 70.1498 125.257 70.1728C125.714 70.1558 126.167 70.0698 126.597 69.9178C127.017 69.7636 127.398 69.5242 127.715 69.2156C128.046 68.9133 128.307 68.5461 128.482 68.1382C128.675 67.7073 128.774 67.2422 128.773 66.7721C128.775 66.3051 128.675 65.843 128.482 65.4157C128.311 64.9987 128.05 64.6228 127.715 64.3142L127.73 64.3335ZM126.864 68.3979C126.658 68.6061 126.411 68.7711 126.137 68.8828C125.863 68.9944 125.569 69.0504 125.272 69.0472C124.975 69.0518 124.681 68.9964 124.408 68.8846C124.134 68.7728 123.888 68.6071 123.684 68.3979C123.272 67.9596 123.047 67.3851 123.056 66.7914C123.044 66.4919 123.094 66.1932 123.201 65.9125C123.309 65.6317 123.473 65.3746 123.684 65.156C123.889 64.9483 124.136 64.784 124.409 64.6731C124.682 64.5622 124.976 64.5072 125.272 64.5114C125.568 64.5085 125.862 64.5641 126.136 64.6749C126.41 64.7857 126.657 64.9493 126.864 65.156C127.077 65.3736 127.242 65.6305 127.351 65.9114C127.46 66.1922 127.509 66.4915 127.497 66.7914C127.506 67.386 127.279 67.9612 126.864 68.3979V68.3979Z" fill="#464646"/>
<path fill-rule="evenodd" clip-rule="evenodd" d="M141.272 63.7661C140.814 63.5082 140.292 63.3783 139.763 63.3909C139.242 63.3753 138.727 63.5055 138.279 63.7661C137.848 63.9885 137.487 64.3211 137.236 64.7281C136.984 65.188 136.856 65.7028 136.865 66.224V70.0335H138.116V66.224C138.092 65.9214 138.164 65.6189 138.324 65.3582C138.463 65.1039 138.666 64.8874 138.913 64.7281C139.161 64.5743 139.449 64.4925 139.743 64.4924C140.04 64.4988 140.329 64.5825 140.58 64.7349C140.832 64.8872 141.036 65.1025 141.173 65.3582C141.332 65.6193 141.406 65.9211 141.386 66.224V70.0335H142.647V66.224C142.656 65.7028 142.528 65.188 142.276 64.7281C142.041 64.3218 141.693 63.9883 141.272 63.7661V63.7661Z" fill="#464646"/>
<path fill-rule="evenodd" clip-rule="evenodd" d="M147.613 63.3914C147.274 63.3869 146.937 63.4491 146.623 63.5741C146.344 63.6971 146.092 63.8719 145.882 64.0888V60.5391H144.625V70.0532H145.882V66.2437C145.871 66.0191 145.91 65.795 145.995 65.5861C146.081 65.3772 146.21 65.1882 146.376 65.0316C146.519 64.8649 146.698 64.7316 146.901 64.6417C147.104 64.5517 147.325 64.5074 147.548 64.5121C148.636 64.5121 149.175 65.0941 149.175 66.2437V70.0532H150.407V66.2437C150.407 64.3534 149.472 63.3914 147.613 63.3914Z" fill="#464646"/>
<path fill-rule="evenodd" clip-rule="evenodd" d="M158.113 64.2282C157.79 63.9645 157.424 63.7563 157.03 63.6125C156.574 63.471 156.099 63.3964 155.62 63.3913C154.963 63.3793 154.313 63.5334 153.736 63.8386C153.219 64.1108 152.798 64.526 152.524 65.0315C152.248 65.5623 152.106 66.1491 152.108 66.7438C152.091 67.1864 152.183 67.6267 152.376 68.0281C152.489 68.4636 152.728 68.8589 153.063 69.168C153.348 69.4895 153.705 69.743 154.107 69.9088C154.524 70.079 154.97 70.1751 155.422 70.1926C155.773 70.2192 156.125 70.1545 156.441 70.005C156.741 69.8911 157.025 69.7408 157.287 69.5576V68.1579C157.088 68.4235 156.83 68.6417 156.532 68.7959C156.234 68.95 155.903 69.0362 155.566 69.0478C155.157 69.0411 154.757 68.9335 154.403 68.7351C154.081 68.5336 153.817 68.2555 153.637 67.9271C153.444 67.5856 153.346 67.2008 153.355 66.8112C153.347 66.414 153.444 66.0214 153.637 65.6712C153.8 65.3258 154.067 65.0371 154.403 64.8439C154.753 64.6265 155.16 64.5113 155.576 64.512C155.948 64.5053 156.316 64.5862 156.649 64.7477C156.982 64.8725 157.268 65.0921 157.47 65.3778C157.683 65.6764 157.791 66.0343 157.777 66.3975V70.0675H159.008V66.5177C159.019 66.0725 158.923 65.631 158.726 65.2287C158.622 64.8461 158.409 64.4995 158.113 64.2282Z" fill="#464646"/>
<path fill-rule="evenodd" clip-rule="evenodd" d="M155.576 61.8468L156.387 62.905H157.326L156.139 61.2744H155.051L153.839 62.905H154.794L155.576 61.8468Z" fill="#464646"/>
<path fill-rule="evenodd" clip-rule="evenodd" d="M157.01 62.1068H157.811L159.334 60.457H158.078L157.01 62.1068Z" fill="#464646"/>
<path fill-rule="evenodd" clip-rule="evenodd" d="M164.785 64.6754V63.5354H162.337V61.876H161.125V67.9269C161.101 68.2065 161.135 68.4879 161.226 68.7541C161.317 69.0203 161.463 69.2658 161.654 69.4757C161.841 69.6742 162.071 69.8292 162.328 69.9292C162.585 70.0291 162.862 70.0714 163.138 70.0529H164.8V68.8985H163.286C163.049 68.9247 162.81 68.8666 162.614 68.735C162.52 68.6572 162.447 68.5583 162.401 68.4468C162.355 68.3353 162.338 68.2146 162.352 68.0953V64.6754H164.785Z" fill="#464646"/>
<defs>
<linearGradient id="paint0_linear_9574_159031" x1="163.566" y1="20.3438" x2="208.219" y2="28.4447" gradientUnits="userSpaceOnUse">
<stop stop-color="#F9A51A"/>
<stop offset="0.5" stop-color="#FFDC00"/>
<stop offset="1" stop-color="#FFDC00"/>
</linearGradient>
<linearGradient id="paint1_linear_9574_159031" x1="172.993" y1="17.0324" x2="164.306" y2="-2.13804" gradientUnits="userSpaceOnUse">
<stop stop-color="#F9A51A"/>
<stop offset="0.2" stop-color="#FFC10E"/>
<stop offset="0.45" stop-color="#FFDC00"/>
<stop offset="1" stop-color="#FFDC00"/>
</linearGradient>
</defs>
</svg>
